SplineFontDB: 2.0
FontName: THFahkwang
FullName: THFahkwang
FamilyName: TH Fah kwang
Weight: Book
Copyright: Copyright (c) 2006 by Department of Intellectual Property (DIP), Ministry of Commerce and Software Industry Promotion Agency (Public Organization) (SIPA). All rights reserved.
Version: 1.1
ItalicAngle: 0
UnderlinePosition: -35
UnderlineWidth: 30
Ascent: 800
Descent: 200
XUID: [1021 375 425136265 4039945]
FSType: 0
OS2Version: 3
OS2_WeightWidthSlopeOnly: 0
OS2_UseTypoMetrics: 1
CreationTime: 1158666960
ModificationTime: 1204863512
PfmFamily: 17
TTFWeight: 400
TTFWidth: 5
LineGap: 60
VLineGap: 0
Panose: 2 0 5 6 0 0 0 2 0 4
OS2TypoAscent: 0
OS2TypoAOffset: 1
OS2TypoDescent: 0
OS2TypoDOffset: 1
OS2TypoLinegap: 0
OS2WinAscent: 5
OS2WinAOffset: 1
OS2WinDescent: -196
OS2WinDOffset: 1
HheadAscent: 5
HheadAOffset: 1
HheadDescent: 196
HheadDOffset: 1
OS2SubXSize: 700
OS2SubYSize: 650
OS2SubXOff: 0
OS2SubYOff: 140
OS2SupXSize: 700
OS2SupYSize: 650
OS2SupXOff: 0
OS2SupYOff: 477
OS2StrikeYSize: 30
OS2StrikeYPos: 250
OS2FamilyClass: 773
OS2Vendor: 'ipth'
Lookup: 4 0 0 "'frac' Diagonal Fractions in Latin lookup 0"  {"'frac' Diagonal Fractions in Latin lookup 0 subtable"  } ['frac' ('latn' <'dflt' > ) ]
Lookup: 6 0 0 "'liga' Standard Ligatures in Latin lookup 1"  {"'liga' Standard Ligatures in Latin lookup 1 subtable"  } ['liga' ('latn' <'dflt' > ) ]
Lookup: 6 0 0 "'liga' Standard Ligatures in Latin lookup 2"  {"'liga' Standard Ligatures in Latin lookup 2 subtable"  } ['liga' ('latn' <'dflt' > ) ]
Lookup: 6 0 0 "'liga' Standard Ligatures in Latin lookup 3"  {"'liga' Standard Ligatures in Latin lookup 3 subtable"  } ['liga' ('latn' <'dflt' > ) ]
Lookup: 6 0 0 "'liga' Standard Ligatures in Latin lookup 4"  {"'liga' Standard Ligatures in Latin lookup 4 subtable"  } ['liga' ('latn' <'dflt' > ) ]
Lookup: 6 0 0 "'liga' Standard Ligatures in Latin lookup 5"  {"'liga' Standard Ligatures in Latin lookup 5 subtable"  } ['liga' ('latn' <'dflt' > ) ]

StartChar: .notdef
Encoding: 65536 -1 0
Width: 547
VWidth: 1533
Flags: W
HStem: 0 44<71 475> 739 44<69 475>
VStem: 0 44<84 698> 503 44<81 701>
Fore
0 0 m 1
 0 783 l 1
 547 783 l 1
 547 0 l 1
 0 0 l 1
475 739 m 1
 69 739 l 1
 273 431 l 1
 475 739 l 1
245 389 m 1
 44 698 l 1
 44 84 l 1
 245 389 l 1
71 44 m 1
 475 44 l 1
 273 350 l 1
 71 44 l 1
299 389 m 1
 503 81 l 1
 503 701 l 1
 299 389 l 1
EndSplineSet
EndChar
StartChar: numbersign
Encoding: 35 35 4
Width: 732
VWidth: 1533
Flags: W
HStem: 0 21G<199 249.793 402 451.793> 222 42<104 230 284 432 486 598> 423 42<135 258 311 461 514 627>
Fore
507 423 m 1
 486 264 l 1
 598 264 l 1
 598 222 l 1
 480 222 l 1
 449 0 l 1
 402 0 l 1
 432 222 l 1
 278 222 l 1
 247 0 l 1
 199 0 l 1
 230 222 l 1
 104 222 l 1
 104 264 l 1
 236 264 l 1
 258 423 l 1
 135 423 l 1
 135 465 l 1
 264 465 l 1
 294 687 l 1
 342 687 l 1
 311 465 l 1
 468 465 l 1
 498 687 l 1
 544 687 l 1
 514 465 l 1
 627 465 l 1
 627 423 l 1
 507 423 l 1
305 423 m 1
 284 264 l 1
 438 264 l 1
 461 423 l 1
 305 423 l 1
EndSplineSet
EndChar
StartChar: dollar
Encoding: 36 36 5
Width: 732
VWidth: 1533
Flags: W
HStem: 21 30<260.047 365 397 479.265> 647 25<265.745 365 397 466.504>
VStem: 74 89<146.821 210> 109 81<473.71 576.874> 365 32<-83 21 672 771> 578 80<132.392 249.32>
Fore
373 647 m 0xdc
 301 647 190 622 190 521 c 0xdc
 190 371 658 438 658 218 c 0
 658 139 616 40 397 21 c 1
 397 -83 l 1
 365 -83 l 1
 365 21 l 1
 221 21 83 99 74 210 c 1
 163 210 l 1xec
 166 117 255 51 357 51 c 0
 445 51 578 80 578 195 c 0
 578 376 109 292 109 501 c 0
 109 638 275 672 365 672 c 1
 365 771 l 1
 397 771 l 1
 397 672 l 1
 529 665 617 604 645 521 c 1
 566 521 l 1
 522 627 428 647 373 647 c 0xdc
EndSplineSet
EndChar
StartChar: percent
Encoding: 37 37 6
Width: 754
VWidth: 1533
Flags: W
HStem: -2 19<519.104 614.495> 301 16<144.109 237.898> 370 16<521.498 615.254> 672 16<145.663 238.155>
VStem: 32 62<400.453 588.36> 290 60<401.214 589.486> 408 60<98.4371 288.5> 667 58<96.965 289.312>
Fore
567 386 m 256
 670 386 725 281 725 193 c 256
 725 104 668 -2 567 -2 c 256
 476 -2 408 92 408 193 c 256
 408 291 472 386 567 386 c 256
186 -17 m 1
 146 -17 l 1
 570 705 l 1
 610 705 l 1
 186 -17 l 1
190 688 m 256
 292 688 350 583 350 495 c 256
 350 412 296 301 192 301 c 256
 93 301 32 403 32 495 c 0
 32 568 81 688 190 688 c 256
567 17 m 256
 647 17 667 154 667 193 c 0
 667 244 641 370 569 370 c 256
 506 370 468 273 468 193 c 256
 468 128 497 17 567 17 c 256
192 317 m 256
 261 317 290 435 290 495 c 0
 290 546 264 672 192 672 c 256
 114 672 94 538 94 495 c 0
 94 449 114 317 192 317 c 256
EndSplineSet
EndChar
StartChar: ampersand
Encoding: 38 38 7
Width: 794
VWidth: 1533
Flags: W
HStem: -21 21<267.886 448.161> 668 19<267.167 392.209>
VStem: 64 88<113.68 242.458> 170 60<481.715 597.015> 437 67<487.501 624.671> 610 89<239.534 323.251>
Fore
699 351 m 1
 695 256 658 177 610 117 c 1
 665 74 725 35 787 0 c 1
 644 0 l 1
 625 9 605 20 555 60 c 1
 483 1 398 -21 322 -21 c 0
 224 -21 64 15 64 159 c 0
 64 225 96 280 178 324 c 2
 242 359 l 1
 173 435 170 485 170 507 c 0
 170 615 248 687 351 687 c 0
 422 687 504 648 504 564 c 0
 504 453 388 404 331 377 c 1
 466 225 551 163 578 143 c 1
 599 179 610 225 610 278 c 0
 610 303 607 328 601 351 c 1
 699 351 l 1
316 396 m 1
 416 445 437 497 437 555 c 0
 437 623 389 668 325 668 c 0
 270 668 230 619 230 566 c 0
 230 509 248 474 316 396 c 1
259 339 m 1
 181 293 152 251 152 192 c 0
 152 93 251 -0 350 0 c 0
 418 0 485 26 532 80 c 1
 483 119 436 160 391 204 c 2
 259 339 l 1
EndSplineSet
EndChar
StartChar: quotesingle
Encoding: 39 39 8
Width: 239
VWidth: 1533
Flags: W
HStem: 386 351<112 127>
VStem: 81 77<466.985 709.516>
Fore
120 737 m 256
 152 737 158 704 158 688 c 0
 158 582 145 552 127 386 c 1
 112 386 l 1
 94 553 81 584 81 690 c 0
 81 709 88 737 120 737 c 256
EndSplineSet
EndChar
StartChar: parenleft
Encoding: 40 40 9
Width: 306
VWidth: 1533
Flags: W
HStem: 719 20G<173 241>
VStem: 51 73<85.2721 429.6>
Fore
124 258 m 256
 124 47 147 -58 241 -224 c 1
 222 -224 l 1
 99 -54 51 108 51 258 c 0
 51 442 124 606 222 739 c 1
 241 739 l 1
 146 575 124 462 124 258 c 256
EndSplineSet
EndChar
StartChar: parenright
Encoding: 41 41 10
Width: 306
VWidth: 1533
Flags: W
HStem: 719 20G<52 119>
VStem: 169 73<89.4393 427.774>
Fore
69 739 m 1
 169 601 242 438 242 257 c 0
 242 109 193 -53 69 -224 c 1
 52 -224 l 1
 146 -58 169 65 169 258 c 256
 169 444 147 575 52 739 c 1
 69 739 l 1
EndSplineSet
EndChar
StartChar: asterisk
Encoding: 42 42 11
Width: 512
VWidth: 1533
Flags: W
HStem: 333 383<212 339 212 212>
VStem: 63 386<538 538 538 538>
Fore
273 512 m 1
 406 383 l 1
 339 333 l 1
 256 500 l 1
 173 333 l 1
 106 383 l 1
 239 512 l 1
 63 538 l 1
 89 616 l 1
 244 535 l 1
 212 716 l 1
 296 716 l 1
 265 534 l 1
 425 616 l 1
 449 538 l 1
 273 512 l 1
EndSplineSet
EndChar
StartChar: plus
Encoding: 43 43 12
Width: 677
VWidth: 1533
Flags: W
HStem: 0 21G<311 366> 262 57<54 311 366 624>
VStem: 311 55<0 262 319 581>
Fore
366 262 m 1
 366 0 l 1
 311 0 l 1
 311 262 l 1
 54 262 l 1
 54 319 l 1
 311 319 l 1
 311 581 l 1
 366 581 l 1
 366 319 l 1
 624 319 l 1
 624 262 l 1
 366 262 l 1
EndSplineSet
EndChar
StartChar: comma
Encoding: 44 44 13
Width: 367
VWidth: 1533
Flags: W
HStem: -8 103<138.66 197.307>
VStem: 202 36<-66.0489 -3>
Fore
129 43 m 256
 129 71 150 95 181 95 c 0
 232 95 238 39 238 18 c 0
 238 -39 206 -105 155 -135 c 1
 149 -129 l 1
 170 -109 202 -68 202 -26 c 2
 202 -3 l 1
 193 -6 188 -8 179 -8 c 0
 149 -8 129 15 129 43 c 256
EndSplineSet
EndChar
StartChar: hyphen
Encoding: 45 45 14
Width: 410
VWidth: 1533
Flags: W
HStem: 273 60<23 388>
VStem: 23 365<273 333 273 333 273 273>
Fore
388 273 m 1
 23 273 l 1
 23 333 l 1
 388 333 l 1
 388 273 l 1
EndSplineSet
EndChar
StartChar: period
Encoding: 46 46 15
Width: 367
VWidth: 1533
Flags: W
HStem: -14 108<144.106 226.372>
VStem: 132 106<-2.37506 83.2295>
Fore
184 94 m 256
 211 94 238 72 238 41 c 256
 238 13 216 -14 184 -14 c 0
 157 -14 132 12 132 41 c 256
 132 72 156 94 184 94 c 256
EndSplineSet
EndChar
StartChar: slash
Encoding: 47 47 16
Width: 317
VWidth: 1533
Flags: W
HStem: -23 21G<-12 47.6316> 717 20G<271.342 330>
VStem: -12 342<-23 737 -23 -23>
Fore
40 -23 m 1
 -12 -23 l 1
 279 737 l 1
 330 737 l 1
 40 -23 l 1
EndSplineSet
EndChar
StartChar: zero
Encoding: 48 48 17
Width: 677
VWidth: 1533
Flags: W
HStem: -11 37<242.606 433.62> 672 36<244.922 431.548>
VStem: 32 85<216.569 476.514> 561 84<218.477 481.576>
Fore
339 708 m 256
 533 708 645 525 645 350 c 0
 645 174 536 -11 339 -11 c 256
 136 -11 32 183 32 350 c 0
 32 514 137 708 339 708 c 256
561 350 m 0
 561 565 476 672 339 672 c 256
 161 672 117 501 117 350 c 0
 117 190 165 26 339 26 c 256
 428 26 561 74 561 350 c 0
EndSplineSet
EndChar
StartChar: one
Encoding: 49 49 18
Width: 677
VWidth: 1533
Flags: W
HStem: 0 21G<308 389> 560 33<136 271.568> 687 20G<325.5 389>
VStem: 136 253<560 593> 308 81<0 560>
Fore
136 593 m 1xf0
 251 593 304 606 347 707 c 1
 389 707 l 1
 389 0 l 1
 308 0 l 1
 308 560 l 1xe8
 136 560 l 1
 136 593 l 1xf0
EndSplineSet
EndChar
StartChar: two
Encoding: 50 50 19
Width: 677
VWidth: 1533
Flags: W
HStem: 0 74<136 622> 670 32<221.843 418.981>
VStem: 28 81<483 554.396> 526 81<410.072 572.922>
Fore
320 702 m 0
 457 702 607 641 607 486 c 0
 607 227 164 247 136 74 c 1
 622 74 l 1
 622 0 l 1
 44 0 l 1
 84 269 526 250 526 488 c 0
 526 608 422 670 320 670 c 256
 216 670 109 604 109 483 c 1
 28 483 l 1
 46 626 178 702 320 702 c 0
EndSplineSet
EndChar
StartChar: three
Encoding: 51 51 20
Width: 677
VWidth: 1533
Flags: W
HStem: -11 34<227.389 440.016> 353 32<292.541 433.036> 670 32<237.856 441.878>
VStem: 35 82<133.822 205> 78 81<513.937 594.544> 523 81<460.766 601.848> 561 81<122.985 276.983>
Fore
435 373 m 1xec
 528 366 642 319 642 201 c 0
 642 31 439 -11 328 -11 c 0
 178 -11 55 67 35 205 c 1
 117 205 l 1
 117 82 230 23 328 23 c 0
 433 23 561 78 561 202 c 0xf2
 561 316 446 353 343 353 c 0
 326 353 308 352 256 345 c 1
 256 389 l 1
 277 386 298 385 319 385 c 0
 413 385 523 426 523 530 c 0
 523 633 424 670 333 670 c 0
 229 670 166 612 159 509 c 1
 78 509 l 1
 86 640 213 702 333 702 c 0
 444 702 604 668 604 530 c 0
 604 436 518 389 435 373 c 1xec
EndSplineSet
EndChar
StartChar: four
Encoding: 52 52 21
Width: 677
VWidth: 1533
Flags: W
HStem: 0 21G<389 469> 170 51<80 389 469 607> 687 20G<442.252 469>
VStem: 389 80<0 170 221 572>
Fore
607 170 m 1
 469 170 l 1
 469 0 l 1
 389 0 l 1
 389 170 l 1
 20 170 l 1
 3 192 l 1
 460 707 l 1
 469 707 l 1
 469 221 l 1
 627 221 l 1
 607 170 l 1
389 572 m 1
 80 221 l 1
 389 221 l 1
 389 572 l 1
EndSplineSet
EndChar
StartChar: five
Encoding: 53 53 22
Width: 677
VWidth: 1533
Flags: W
HStem: -11 32<231.382 431.971> 399 38<236.525 436.356> 621 74<161 578>
VStem: 41 82<134.302 205> 558 86<129.216 294.927>
Fore
336 437 m 0
 458 437 644 391 644 205 c 0
 644 44 462 -11 336 -11 c 0
 206 -11 63 53 41 205 c 1
 123 205 l 1
 123 83 231 21 334 21 c 0
 430 21 558 85 558 209 c 0
 558 341 436 399 322 399 c 0
 240 399 178 380 124 343 c 1
 94 351 l 1
 129 695 l 1
 601 695 l 1
 578 621 l 1
 161 621 l 1
 136 388 l 1
 200 431 296 437 336 437 c 0
EndSplineSet
EndChar
StartChar: six
Encoding: 54 54 23
Width: 677
VWidth: 1533
Flags: W
HStem: -11 39<258.795 441.88> 440 43<255.747 439.866> 664 38<264.056 455.989>
VStem: 34 86<246.281 472.906> 34 107<201.433 397.754> 544 82<530 590.805> 553 88<142.677 326.424>
Fore
363 483 m 0xf4
 501 483 641 405 641 245 c 0xf2
 641 72 490 -11 347 -11 c 0
 147 -11 34 155 34 327 c 0
 34 526 139 702 359 702 c 0
 473 702 626 651 626 530 c 1
 544 530 l 1
 544 612 451 664 357 664 c 0
 197 664 120 509 120 374 c 0
 120 360 121 349 123 337 c 1
 172 462 304 483 363 483 c 0xf4
348 28 m 0
 466 28 553 111 553 235 c 0
 553 344 468 440 348 440 c 256
 236 440 141 353 141 235 c 256xea
 141 111 243 28 348 28 c 0
EndSplineSet
EndChar
StartChar: seven
Encoding: 55 55 24
Width: 677
VWidth: 1533
Flags: W
HStem: 0 21G<195 284> 621 74<71 557>
VStem: 195 89<0 65.8594>
Fore
644 695 m 1
 644 655 630 616 550 523 c 2
 464 426 l 2
 288 232 284 63 284 0 c 1
 195 0 l 1
 195 190 313 330 376 392 c 2
 463 480 l 2
 546 563 557 593 557 621 c 1
 48 621 l 1
 71 695 l 1
 644 695 l 1
EndSplineSet
EndChar
StartChar: eight
Encoding: 56 56 25
Width: 677
VWidth: 1533
Flags: W
HStem: -11 39<230.138 448.932> 676 34<228.509 455.027>
VStem: 25 90<129.613 269.938> 74 76<505.379 611.656> 527 80<510.649 615.954> 572 81<125.151 242.554>
Fore
415 400 m 1xd8
 528 373 653 322 653 205 c 0
 653 42 458 -11 336 -11 c 0
 216 -11 25 30 25 192 c 0xe4
 25 309 144 363 225 377 c 1
 166 397 74 443 74 541 c 0
 74 676 257 710 347 710 c 0
 480 710 607 654 607 558 c 0
 607 480 516 418 415 400 c 1xd8
345 676 m 0
 269 676 150 647 150 560 c 0
 150 486 244 452 308 437 c 2
 371 422 l 1
 526 462 527 533 527 553 c 0xd8
 527 645 423 676 345 676 c 0
336 28 m 0
 431 28 572 79 572 199 c 0
 572 281 353 357 290 357 c 0
 208 357 115 283 115 205 c 0xe4
 115 99 223 28 336 28 c 0
EndSplineSet
EndChar
StartChar: nine
Encoding: 57 57 26
Width: 677
VWidth: 1533
Flags: W
HStem: -11 39<217.272 414.473> 209 42<240.142 419.792> 664 38<236.369 420.633>
VStem: 37 87<365.87 546.864> 52 81<100.154 163> 537 107<295.361 491.331> 558 86<219.438 445.242>
Fore
331 702 m 0xf2
 532 702 644 537 644 365 c 0
 644 164 540 -11 319 -11 c 0
 215 -11 52 37 52 163 c 1
 133 163 l 1xec
 133 75 231 28 320 28 c 0
 484 28 558 186 558 319 c 0
 558 332 558 343 555 354 c 1
 505 229 371 209 314 209 c 0
 173 209 37 287 37 446 c 0
 37 617 184 702 331 702 c 0xf2
330 251 m 256
 445 251 537 346 537 458 c 0
 537 564 451 664 330 664 c 0
 207 664 124 573 124 458 c 0xf4
 124 340 220 251 330 251 c 256
EndSplineSet
EndChar
StartChar: colon
Encoding: 58 58 27
Width: 367
VWidth: 1533
Flags: W
HStem: -14 108<144.106 226.372> 405 107<142.695 226.442>
VStem: 132 106<-2.37506 83.2295 416.197 500.846>
Fore
184 512 m 256
 211 512 238 489 238 458 c 256
 238 431 214 405 184 405 c 256
 154 405 132 431 132 458 c 256
 132 489 156 512 184 512 c 256
184 94 m 256
 211 94 238 72 238 41 c 256
 238 13 216 -14 184 -14 c 0
 157 -14 132 12 132 41 c 256
 132 72 156 94 184 94 c 256
EndSplineSet
EndChar
StartChar: semicolon
Encoding: 59 59 28
Width: 367
VWidth: 1533
Flags: W
HStem: -8 103<138.66 197.307> 405 107<142.695 226.442>
VStem: 129 109<0.0759277 46.762 416.197 500.846> 202 36<-66.0489 -3>
Fore
184 512 m 256xe0
 211 512 238 489 238 458 c 256
 238 431 214 405 184 405 c 256
 154 405 132 431 132 458 c 256
 132 489 156 512 184 512 c 256xe0
129 43 m 256
 129 71 150 95 181 95 c 0
 232 95 238 39 238 18 c 0xe0
 238 -39 206 -105 155 -135 c 1
 149 -129 l 1
 170 -109 202 -68 202 -26 c 2
 202 -3 l 1xd0
 193 -6 188 -8 179 -8 c 0
 149 -8 129 15 129 43 c 256
EndSplineSet
EndChar
StartChar: less
Encoding: 60 60 29
Width: 677
VWidth: 1533
Flags: W
Fore
60 262 m 1
 60 320 l 1
 618 581 l 1
 618 520 l 1
 124 291 l 1
 618 63 l 1
 618 2 l 1
 60 262 l 1
EndSplineSet
EndChar
StartChar: equal
Encoding: 61 61 30
Width: 677
VWidth: 1533
Flags: W
HStem: 153 57<54 624> 380 57<54 624>
Fore
54 380 m 1
 54 437 l 1
 624 437 l 1
 624 380 l 1
 54 380 l 1
54 153 m 1
 54 210 l 1
 624 210 l 1
 624 153 l 1
 54 153 l 1
EndSplineSet
EndChar
StartChar: greater
Encoding: 62 62 31
Width: 677
VWidth: 1533
Flags: W
Fore
60 2 m 1
 60 63 l 1
 553 291 l 1
 60 520 l 1
 60 581 l 1
 618 320 l 1
 618 262 l 1
 60 2 l 1
EndSplineSet
EndChar
StartChar: question
Encoding: 63 63 32
Width: 565
VWidth: 1533
Flags: W
HStem: -14 104<214.735 298.34> 707 30<190.993 350.462>
VStem: 41 82<509 614.715> 205 103<-4.20576 81.0426> 247 18<129 149.672 149.672 237.075> 408 103<468.698 627.058>
Fore
242 192 m 0xec
 242 400 408 412 408 540 c 0
 408 664 353 707 271 707 c 0
 153 707 123 607 123 509 c 1
 41 509 l 1
 41 655 138 737 274 737 c 0
 414 737 511 657 511 537 c 0
 511 364 265 380 265 129 c 1
 247 129 l 1
 244 150 242 171 242 192 c 0xec
256 90 m 256
 287 90 308 67 308 38 c 256
 308 10 287 -14 256 -14 c 256
 229 -14 205 8 205 38 c 256xf4
 205 69 228 90 256 90 c 256
EndSplineSet
EndChar
StartChar: at
Encoding: 64 64 33
Width: 898
VWidth: 1533
Flags: W
HStem: -21 39<357.343 621.317> 152 36<617.231 703.364> 153 45<386.606 470.493> 511 39<446.167 551.438> 711 26<359.274 589.738>
VStem: 66 86<221.329 467.812> 293 73<218.072 398.646> 794 39<308.276 517.866>
Fore
471 737 m 0xdf
 671 737 833 608 833 414 c 0
 833 310 757 152 626 152 c 0xdf
 573 152 541 179 530 232 c 1
 481 171 447 153 391 153 c 0xbf
 318 153 293 220 293 287 c 0
 293 403 370 550 498 550 c 0
 539 550 573 525 589 497 c 1
 621 538 l 1
 676 538 l 1
 632 387 l 2
 606 301 603 254 603 239 c 0
 603 188 633 188 647 188 c 0
 725 188 794 309 794 411 c 0
 794 591 639 711 471 711 c 0
 260 711 152 523 152 346 c 0
 152 158 283 18 480 18 c 0
 611 18 680 57 698 67 c 1
 714 41 l 1
 654 7 576 -21 484 -21 c 0
 283 -21 66 103 66 342 c 0
 66 553 228 737 471 737 c 0xdf
435 198 m 0xbf
 523 198 572 364 572 428 c 0
 572 459 552 511 515 511 c 0
 396 511 366 366 366 290 c 0
 366 251 378 198 435 198 c 0xbf
EndSplineSet
EndChar
StartChar: A
Encoding: 65 65 34
Width: 803
VWidth: 1533
Flags: W
HStem: 0 21G<0 59.6557 696.454 803> 366 37<265 497> 719 20G<394.039 432.311>
Fore
707 0 m 1
 514 366 l 1
 244 366 l 1
 49 0 l 1
 0 0 l 1
 405 739 l 1
 422 739 l 1
 803 0 l 1
 707 0 l 1
385 627 m 1
 265 403 l 1
 497 403 l 1
 385 627 l 1
EndSplineSet
EndChar
StartChar: B
Encoding: 66 66 35
Width: 820
VWidth: 1533
Flags: W
HStem: 0 37<159 585.756> 365 38<159 524.796> 678 38<159 541.871>
VStem: 77 82<37 365 403 678> 624 89<484.635 613.662> 685 97<118.147 271.924>
Fore
478 386 m 1xf8
 674 372 782 310 782 196 c 0xf4
 782 62 641 0 419 0 c 2
 77 0 l 1
 77 716 l 1
 434 716 l 2
 547 716 713 687 713 552 c 0
 713 452 591 393 478 386 c 1xf8
385 403 m 2
 478 403 624 429 624 544 c 0xf8
 624 662 498 678 380 678 c 2
 159 678 l 1
 159 403 l 1
 385 403 l 2
466 37 m 2
 564 37 685 76 685 190 c 0xf4
 685 330 558 365 385 365 c 2
 159 365 l 1
 159 37 l 1
 466 37 l 2
EndSplineSet
EndChar
StartChar: C
Encoding: 67 67 36
Width: 861
VWidth: 1533
Flags: W
HStem: -23 34<349.51 569.933> 704 35<342.688 570.723>
VStem: 38 98<233.528 478.447>
Fore
463 11 m 0
 616 11 691 118 718 205 c 1
 823 205 l 1
 744 12 568 -23 463 -23 c 0
 242 -23 38 127 38 351 c 0
 38 603 249 739 465 739 c 0
 638 739 772 646 823 509 c 1
 718 509 l 1
 691 600 616 704 463 704 c 0
 256 704 136 542 136 363 c 0
 136 187 255 11 463 11 c 0
EndSplineSet
EndChar
StartChar: D
Encoding: 68 68 37
Width: 853
VWidth: 1533
Flags: W
HStem: 0 37<159 508.251> 678 38<159 516.044>
VStem: 77 82<37 678> 714 102<233.585 501.782>
Fore
816 380 m 0
 816 173 715 0 337 0 c 2
 77 0 l 1
 77 716 l 1
 331 716 l 2
 565 716 816 649 816 380 c 0
714 380 m 0
 714 559 617 678 353 678 c 2
 159 678 l 1
 159 37 l 1
 353 37 l 2
 642 37 714 179 714 380 c 0
EndSplineSet
EndChar
StartChar: E
Encoding: 69 69 38
Width: 691
VWidth: 1533
Flags: W
HStem: 0 37<159 676> 366 37<159 566> 678 38<159 676>
VStem: 77 82<37 366 403 678>
Fore
77 0 m 1
 77 716 l 1
 676 716 l 1
 676 678 l 1
 159 678 l 1
 159 403 l 1
 566 403 l 1
 566 366 l 1
 159 366 l 1
 159 37 l 1
 676 37 l 1
 676 0 l 1
 77 0 l 1
EndSplineSet
EndChar
StartChar: F
Encoding: 70 70 39
Width: 691
VWidth: 1533
Flags: W
HStem: 0 21G<77 159> 366 37<159 566> 678 38<159 676>
VStem: 77 82<0 366 403 678>
Fore
159 678 m 1
 159 403 l 1
 566 403 l 1
 566 366 l 1
 159 366 l 1
 159 0 l 1
 77 0 l 1
 77 716 l 1
 676 716 l 1
 676 678 l 1
 159 678 l 1
EndSplineSet
EndChar
StartChar: G
Encoding: 71 71 40
Width: 861
VWidth: 1533
Flags: W
HStem: -23 35<340.088 578.149> 328 38<465 721> 704 35<342.048 564.704>
VStem: 38 102<236.878 474.124> 721 81<118 328>
Fore
38 351 m 0
 38 584 232 739 455 739 c 0
 686 739 779 619 823 509 c 1
 718 509 l 1
 690 629 583 704 455 704 c 0
 266 704 140 554 140 366 c 256
 140 170 264 12 451 12 c 0
 529 12 647 41 721 118 c 1
 721 328 l 1
 465 328 l 1
 465 366 l 1
 802 366 l 1
 802 101 l 1
 708 6 570 -23 451 -23 c 0
 235 -23 38 139 38 351 c 0
EndSplineSet
EndChar
StartChar: H
Encoding: 72 72 41
Width: 838
VWidth: 1533
Flags: W
HStem: 0 21G<77 159 681 762> 366 37<159 681> 696 20G<77 159 681 762>
VStem: 77 82<0 366 403 716> 681 81<0 366 403 716>
Fore
681 0 m 1
 681 366 l 1
 159 366 l 1
 159 0 l 1
 77 0 l 1
 77 716 l 1
 159 716 l 1
 159 403 l 1
 681 403 l 1
 681 716 l 1
 762 716 l 1
 762 0 l 1
 681 0 l 1
EndSplineSet
EndChar
StartChar: I
Encoding: 73 73 42
Width: 236
VWidth: 1533
Flags: MW
HStem: 0 21G<77 77 77 159> 696 20G<77 159 159 159>
VStem: 77 82<0 716>
Fore
77 0 m 1
 77 716 l 1
 159 716 l 1
 159 0 l 1
 77 0 l 1
EndSplineSet
EndChar
StartChar: J
Encoding: 74 74 43
Width: 532
VWidth: 1533
Flags: W
HStem: -31 34<144.04 296.62> 696 20G<371 455>
VStem: -6 89<69.0595 136> 371 84<107.326 716>
Fore
224 3 m 0
 331 3 371 104 371 199 c 2
 371 716 l 1
 455 716 l 1
 455 218 l 2
 455 74 365 -31 228 -31 c 0
 127 -31 2 20 -6 136 c 1
 83 136 l 1
 87 52 145 3 224 3 c 0
EndSplineSet
EndChar
StartChar: K
Encoding: 75 75 44
Width: 751
VWidth: 1533
Flags: W
HStem: 0 21G<77 159 622.563 736> 696 20G<77 159 559.714 656>
VStem: 77 82<0 310 366 716>
Fore
636 0 m 1
 333 451 l 1
 159 310 l 1
 159 0 l 1
 77 0 l 1
 77 716 l 1
 159 716 l 1
 159 366 l 1
 584 716 l 1
 656 716 l 1
 394 501 l 1
 736 0 l 1
 636 0 l 1
EndSplineSet
EndChar
StartChar: L
Encoding: 76 76 45
Width: 611
VWidth: 1533
Flags: W
HStem: 0 37<159 604> 696 20G<77 159>
VStem: 77 82<37 716>
Fore
77 0 m 1
 77 716 l 1
 159 716 l 1
 159 37 l 1
 604 37 l 1
 604 0 l 1
 77 0 l 1
EndSplineSet
EndChar
StartChar: M
Encoding: 77 77 46
Width: 944
VWidth: 1533
Flags: W
HStem: 0 21G<77 124 430.262 461.955 785 868> 696 20G<77 191.683 761.017 868>
VStem: 77 47<0 635> 785 83<0 655>
Fore
785 0 m 1
 785 655 l 1
 452 -14 l 1
 440 -14 l 1
 124 635 l 1
 124 0 l 1
 77 0 l 1
 77 716 l 1
 182 716 l 1
 472 117 l 1
 771 716 l 1
 868 716 l 1
 868 0 l 1
 785 0 l 1
EndSplineSet
EndChar
StartChar: N
Encoding: 78 78 47
Width: 818
VWidth: 1533
Flags: W
HStem: -21 21<77 124 712.689 742> 696 20G<77 187.264 695 742>
VStem: 77 47<0 642> 695 47<140 716>
Fore
731 -21 m 1
 124 642 l 1
 124 0 l 1
 77 0 l 1
 77 716 l 1
 169 716 l 1
 695 140 l 1
 695 716 l 1
 742 716 l 1
 742 -21 l 1
 731 -21 l 1
EndSplineSet
EndChar
StartChar: O
Encoding: 79 79 48
Width: 912
VWidth: 1533
Flags: W
HStem: -26 29<338.676 570.131> 710 29<342.568 570.398>
VStem: 38 102<236.916 475.687> 771 103<241.004 473.476>
Fore
457 739 m 256
 684 739 874 573 874 357 c 0
 874 141 685 -26 455 -26 c 256
 240 -26 38 127 38 356 c 256
 38 589 255 739 457 739 c 256
455 3 m 0
 648 3 771 154 771 357 c 0
 771 563 645 710 457 710 c 0
 247 710 140 541 140 356 c 256
 140 149 266 3 455 3 c 0
EndSplineSet
EndChar
StartChar: P
Encoding: 80 80 49
Width: 758
VWidth: 1533
Flags: W
HStem: 0 21G<77 159> 327 39<159 233.708 233.708 504.66> 678 38<159 494.722>
VStem: 77 82<0 327 366 678> 626 95<452.706 594.868>
Fore
308 716 m 2
 455 716 721 712 721 527 c 0
 721 377 556 325 308 325 c 0
 278 325 198 327 159 327 c 1
 159 0 l 1
 77 0 l 1
 77 716 l 1
 308 716 l 2
626 529 m 0
 626 648 464 678 310 678 c 2
 159 678 l 1
 159 366 l 1
 307 366 l 2
 499 366 626 399 626 529 c 0
EndSplineSet
EndChar
StartChar: Q
Encoding: 81 81 50
Width: 912
VWidth: 1533
Flags: W
HStem: -237 41<644.779 753.709> -25 28<342.145 411> 710 29<339.226 570.398>
VStem: 38 102<236.643 473.088> 771 103<239.606 473.476>
Fore
457 739 m 0
 684 739 874 573 874 357 c 0
 874 168 717 12 526 -21 c 1
 544 -137 642 -196 745 -196 c 0
 760 -196 775 -194 790 -192 c 1
 779 -225 l 1
 754 -233 727 -237 700 -237 c 0
 572 -237 438 -150 411 -25 c 1
 227 -5 38 144 38 356 c 0
 38 575 237 739 457 739 c 0
455 3 m 0
 648 3 771 154 771 357 c 0
 771 563 645 710 457 710 c 0
 247 710 140 541 140 356 c 256
 140 149 266 3 455 3 c 0
EndSplineSet
EndChar
StartChar: R
Encoding: 82 82 51
Width: 817
VWidth: 1533
Flags: W
HStem: 0 21G<77 159 636 787> 327 39<159 451 515 518.518> 327 20<522.383 609> 678 38<159 425.046>
VStem: 77 82<0 327 366 678> 622 105<454.308 599.775>
Fore
727 527 m 0xdc
 727 409 592 361 515 347 c 1xbc
 724 339 667 112 787 0 c 1
 678 0 l 1
 594 95 609 327 451 327 c 2
 159 327 l 1
 159 0 l 1
 77 0 l 1
 77 716 l 1
 317 716 l 2
 474 716 727 713 727 527 c 0xdc
622 529 m 0
 622 678 424 678 324 678 c 2
 159 678 l 1
 159 366 l 1
 342 366 l 2xdc
 487 366 622 379 622 529 c 0
EndSplineSet
EndChar
StartChar: S
Encoding: 83 83 52
Width: 742
VWidth: 1533
Flags: W
HStem: -25 36<264.676 496.204> 702 34<240.001 492.222>
VStem: 38 102<118.392 200.485> 60 92<493.902 619.566> 598 89<557 621.607> 613 91<108.478 245.293>
Fore
368 702 m 0xd8
 274 702 152 674 152 560 c 0xd8
 152 524 166 496 192 476 c 0
 314 386 534 417 663 304 c 0
 690 280 704 247 704 204 c 0
 704 21 515 -25 368 -25 c 0
 222 -25 51 46 38 207 c 1
 140 207 l 1
 148 82 253 11 368 11 c 0
 459 11 613 44 613 178 c 0xe4
 613 215 600 243 572 264 c 0
 450 356 220 329 100 436 c 0
 74 460 60 494 60 537 c 0
 60 696 251 736 370 736 c 0
 503 736 664 690 687 557 c 1
 598 557 l 1
 577 667 470 702 368 702 c 0xd8
EndSplineSet
EndChar
StartChar: T
Encoding: 84 84 53
Width: 703
VWidth: 1533
Flags: W
HStem: 0 21G<308 394> 678 38<15 308 394 688>
VStem: 308 86<0 678>
Fore
394 678 m 1
 394 0 l 1
 308 0 l 1
 308 678 l 1
 15 678 l 1
 15 716 l 1
 688 716 l 1
 688 678 l 1
 394 678 l 1
EndSplineSet
EndChar
StartChar: U
Encoding: 85 85 54
Width: 878
VWidth: 1533
Flags: W
HStem: -25 34<322.876 556.405> 696 20G<77 159 721 802>
VStem: 77 82<167.498 716> 721 81<165.516 274 274 716>
Fore
438 9 m 256
 600 9 721 115 721 274 c 2
 721 716 l 1
 802 716 l 1
 802 291 l 2
 802 73 642 -25 438 -25 c 256
 235 -25 77 74 77 291 c 2
 77 716 l 1
 159 716 l 1
 159 274 l 2
 159 105 288 9 438 9 c 256
EndSplineSet
EndChar
StartChar: V
Encoding: 86 86 55
Width: 788
VWidth: 1533
Flags: W
HStem: -20 21G<366 401.571> 696 20G<8 111 720.545 780>
Fore
391 -20 m 1
 376 -20 l 1
 8 716 l 1
 101 716 l 1
 409 100 l 1
 731 716 l 1
 780 716 l 1
 391 -20 l 1
EndSplineSet
EndChar
StartChar: W
Encoding: 87 87 56
Width: 1048
VWidth: 1533
Flags: W
HStem: -20 21G<280.391 310.952 736.849 766.663> 696 20G<8 105.657 513.867 548.096 990.384 1041>
Fore
759 -20 m 1
 745 -20 l 1
 507 564 l 1
 304 -20 l 1
 288 -20 l 1
 8 716 l 1
 98 716 l 1
 317 144 l 1
 521 716 l 1
 540 716 l 1
 776 133 l 1
 998 716 l 1
 1041 716 l 1
 759 -20 l 1
EndSplineSet
EndChar
StartChar: X
Encoding: 88 88 57
Width: 668
VWidth: 1533
Flags: W
HStem: -2 21G<8 68.8712 554.153 661> 696 20G<41 149.605 598.026 659>
Fore
569 -2 m 1
 327 324 l 1
 52 -2 l 1
 8 -2 l 1
 307 351 l 1
 41 716 l 1
 135 716 l 1
 357 412 l 1
 615 716 l 1
 659 716 l 1
 379 385 l 1
 661 -2 l 1
 569 -2 l 1
EndSplineSet
EndChar
StartChar: Y
Encoding: 89 89 58
Width: 737
VWidth: 1533
Flags: W
HStem: 0 21G<316 402> 696 20G<8 113.355 664.497 730>
VStem: 316 86<0 307>
Fore
402 322 m 1
 402 0 l 1
 316 0 l 1
 316 307 l 1
 8 716 l 1
 98 716 l 1
 379 350 l 1
 681 716 l 1
 730 716 l 1
 402 322 l 1
EndSplineSet
EndChar
StartChar: Z
Encoding: 90 90 59
Width: 657
VWidth: 1533
Flags: W
HStem: 0 37<140 616> 678 38<63 521>
Fore
140 37 m 1
 629 37 l 1
 616 0 l 1
 15 0 l 1
 521 678 l 1
 51 678 l 1
 63 716 l 1
 642 716 l 1
 140 37 l 1
EndSplineSet
EndChar
StartChar: bracketleft
Encoding: 91 91 60
Width: 305
VWidth: 1533
Flags: W
HStem: -202 16<172.729 227> 721 16<169.622 227>
VStem: 67 68<-119.07 654.711> 67 160
Fore
227 -202 m 1xd0
 131 -202 67 -147 67 5 c 2
 67 532 l 2xe0
 67 641 99 737 227 737 c 1
 227 721 l 1xd0
 141 709 135 658 135 564 c 2
 135 -29 l 2xe0
 135 -112 137 -173 227 -186 c 1
 227 -202 l 1xd0
EndSplineSet
EndChar
StartChar: backslash
Encoding: 92 92 61
Width: 326
VWidth: 1533
Flags: W
HStem: -23 21G<274.263 343> 717 20G<-12 56.7368>
VStem: -12 355<-23 737 737 737>
Fore
282 -23 m 1
 -12 737 l 1
 49 737 l 1
 343 -23 l 1
 282 -23 l 1
EndSplineSet
EndChar
StartChar: bracketright
Encoding: 93 93 62
Width: 305
VWidth: 1533
Flags: W
HStem: -202 16<78 133.482> 717 20G<78 125.5>
VStem: 78 158 172 64<-119.502 655.08>
Fore
78 737 m 1xe0
 173 737 236 683 236 532 c 2
 236 5 l 2xd0
 236 -149 173 -202 78 -202 c 1
 78 -186 l 1xe0
 169 -173 172 -110 172 -29 c 2
 172 564 l 2xd0
 172 642 170 707 78 721 c 1
 78 737 l 1xe0
EndSplineSet
EndChar
StartChar: asciicircum
Encoding: 94 94 63
Width: 686
VWidth: 1533
Flags: W
HStem: 281 406<313 509 313 313>
VStem: 109 471<281 281 281 281>
Fore
509 281 m 1
 345 610 l 1
 179 281 l 1
 109 281 l 1
 313 687 l 1
 377 687 l 1
 580 281 l 1
 509 281 l 1
EndSplineSet
EndChar
StartChar: underscore
Encoding: 95 95 64
Width: 574
VWidth: 1533
Flags: W
HStem: -140 56<8 567>
Fore
8 -140 m 1
 8 -84 l 1
 567 -84 l 1
 567 -140 l 1
 8 -140 l 1
EndSplineSet
EndChar
StartChar: grave
Encoding: 96 96 65
Width: 305
VWidth: 1533
Flags: W
HStem: 650 193
VStem: -6 236<650 810 810 810>
Fore
-6 810 m 0
 -6 826 5 843 25 843 c 0
 78 843 199 681 230 650 c 1
 196 650 l 1
 94 714 -6 771 -6 810 c 0
EndSplineSet
EndChar
StartChar: a
Encoding: 97 97 66
Width: 616
VWidth: 1533
Flags: W
HStem: -15 35<194.71 369.685> 293 38<222.88 475> 512 38<216.608 399.124>
VStem: 31 89<84.4508 216.707> 475 70<132.669 254.547 254.547 293 331 439.398>
Fore
540 172 m 0
 540 69 555 30 570 0 c 1
 500 0 l 1
 492 26 484 53 481 89 c 1
 435 22 372 -15 255 -15 c 0
 150 -15 31 32 31 152 c 0
 31 295 213 331 397 331 c 2
 475 331 l 1
 475 353 l 2
 475 480 381 512 304 512 c 0
 233 512 143 466 143 386 c 1
 58 386 l 1
 84 496 170 550 304 550 c 0
 492 550 545 472 545 316 c 0
 545 259 540 259 540 172 c 0
282 20 m 0
 398 20 475 110 475 244 c 2
 475 293 l 1
 371 293 l 2
 276 293 120 273 120 150 c 0
 120 66 206 20 282 20 c 0
EndSplineSet
Substitution2: "Single Substitution lookup 22 subtable" uni0E38
Substitution2: "Single Substitution lookup 22 subtable" uni0E38
EndChar
StartChar: b
Encoding: 98 98 67
Width: 668
VWidth: 1533
Flags: W
HStem: -17 38<287.835 431.451> 515 37<261.414 430.683>
VStem: 69 71<0 97 157.775 374.378 425 742> 553 85<161.577 376.318>
Fore
362 552 m 0
 536 552 638 421 638 268 c 0
 638 123 529 -17 362 -17 c 0
 326 -17 205 -12 140 97 c 1
 140 0 l 1
 69 0 l 1
 69 742 l 1
 140 742 l 1
 140 425 l 1
 192 538 305 552 362 552 c 0
343 21 m 0
 481 21 553 146 553 265 c 256
 553 384 484 515 343 515 c 0
 226 515 140 393 140 265 c 0
 140 139 224 21 343 21 c 0
EndSplineSet
Substitution2: "Single Substitution lookup 22 subtable" uni0E39
Substitution2: "Single Substitution lookup 22 subtable" uni0E39
EndChar
StartChar: c
Encoding: 99 99 68
Width: 630
VWidth: 1533
Flags: W
HStem: -17 40<240.359 425.853> 512 38<239.838 424.44>
VStem: 31 89<163.275 374.709>
Fore
31 267 m 256
 31 437 173 550 336 550 c 0
 425 550 564 517 599 386 c 1
 511 386 l 1
 475 487 393 512 330 512 c 0
 193 512 120 385 120 273 c 0
 120 130 204 23 330 23 c 0
 392 23 478 47 512 147 c 1
 599 147 l 1
 563 15 419 -17 336 -17 c 0
 176 -17 31 97 31 267 c 256
EndSplineSet
Substitution2: "Single Substitution lookup 22 subtable" uni0E3A
Substitution2: "Single Substitution lookup 22 subtable" uni0E3A
EndChar
StartChar: d
Encoding: 100 100 69
Width: 668
VWidth: 1533
Flags: W
HStem: -17 38<234.556 381.502> 515 37<238.162 407.854>
VStem: 31 86<157.954 376.54> 529 70<0 97 159.666 372.617 425 742>
Fore
307 552 m 0
 362 552 476 539 529 425 c 1
 529 742 l 1
 599 742 l 1
 599 0 l 1
 529 0 l 1
 529 97 l 1
 464 -12 343 -17 307 -17 c 0
 145 -17 31 116 31 268 c 0
 31 421 133 552 307 552 c 0
325 21 m 0
 459 21 529 155 529 265 c 0
 529 389 448 515 325 515 c 0
 185 515 117 385 117 265 c 256
 117 148 187 21 325 21 c 0
EndSplineSet
EndChar
StartChar: e
Encoding: 101 101 70
Width: 657
VWidth: 1533
Flags: W
HStem: -17 38<253.904 434.339> 333 38<149 527> 514 36<246.609 423.226>
VStem: 38 92<155.28 328.758> 540 75<115.868 190>
Fore
38 261 m 0
 38 434 172 550 337 550 c 0
 472 550 608 480 619 333 c 1
 135 333 l 1
 130 319 130 290 130 262 c 0
 130 123 218 21 351 21 c 0
 439 21 532 94 540 190 c 1
 615 190 l 1
 608 72 492 -17 350 -17 c 0
 202 -17 38 83 38 261 c 0
527 371 m 1
 501 451 429 514 331 514 c 0
 238 514 171 452 149 371 c 1
 527 371 l 1
EndSplineSet
EndChar
StartChar: f
Encoding: 102 102 71
Width: 318
VWidth: 1533
Flags: W
HStem: 0 21G<112 184> 468 39<40 112 184 270> 682 60<217.796 314.516>
VStem: 112 72<0 468 507 619.148>
Fore
112 507 m 1
 112 593 152 742 310 742 c 0
 321 742 332 741 342 741 c 1
 342 668 l 1
 321 677 301 682 284 682 c 0
 228 682 184 648 184 590 c 2
 184 507 l 1
 287 507 l 1
 270 468 l 1
 184 468 l 1
 184 0 l 1
 112 0 l 1
 112 468 l 1
 23 468 l 1
 40 507 l 1
 112 507 l 1
EndSplineSet
EndChar
StartChar: g
Encoding: 103 103 72
Width: 659
VWidth: 1533
Flags: W
HStem: -204 34<177.533 453.403> 175 35<212.924 416.109> 509 38<212.327 392.14> 553 68<481.461 570.69>
VStem: 14 81<-113.204 -2.23848> 54 86<289.98 432.83> 113 85<120.453 164.807> 491 84<276.491 434.089> 547 74<-103.586 -7.07159>
Fore
575 360 m 0xf5
 575 286 541 181 287 175 c 0
 215 175 198 162 198 147 c 0
 198 80 621 159 621 -32 c 0
 621 -170 430 -204 297 -204 c 0
 219 -204 14 -174 14 -55 c 0
 14 -8 52 36 176 63 c 1
 114 85 113 113 113 126 c 0xfa80
 113 170 174 186 199 189 c 1
 127 214 54 289 54 360 c 0
 54 484 206 547 314 547 c 0
 350 547 380 543 409 534 c 1
 459 603 511 621 595 621 c 2
 609 621 l 1
 609 540 l 1
 593 545 563 553 537 553 c 0
 510 553 474 545 446 523 c 1
 478 509 575 458 575 360 c 0xf5
140 359 m 0xf5
 140 240 232 210 316 210 c 0
 399 210 491 240 491 359 c 0
 491 479 400 509 316 509 c 0
 233 509 140 479 140 359 c 0xf5
322 -170 m 0
 378 -170 547 -148 547 -61 c 0
 547 26 431 48 322 48 c 0
 144 48 95 4 95 -61 c 0xf880
 95 -145 224 -170 322 -170 c 0
EndSplineSet
EndChar
StartChar: h
Encoding: 104 104 73
Width: 642
VWidth: 1533
Flags: W
HStem: 0 21G<69 140 500 573> 512 38<241.946 424.042> 682 20G<69 140>
VStem: 69 71<0 400.778 435 702> 500 73<0 444.053>
Fore
328 550 m 0
 429 550 573 512 573 362 c 2
 573 0 l 1
 500 0 l 1
 500 371 l 2
 500 469 414 512 328 512 c 0
 215 512 140 415 140 302 c 2
 140 0 l 1
 69 0 l 1
 69 702 l 1
 140 702 l 1
 140 435 l 1
 168 488 234 550 328 550 c 0
EndSplineSet
EndChar
StartChar: i
Encoding: 105 105 74
Width: 272
VWidth: 1533
Flags: W
HStem: 0 21G<100 170> 515 20G<100 170> 604 103<94.0732 178.979>
VStem: 84 105<614.073 697.701> 100 70<0 535>
Fore
136 707 m 256xf0
 167 707 189 685 189 656 c 256
 189 628 167 604 136 604 c 256
 106 604 84 629 84 656 c 256
 84 687 109 707 136 707 c 256xf0
100 0 m 1xe8
 100 535 l 1
 170 535 l 1
 170 0 l 1
 100 0 l 1xe8
EndSplineSet
EndChar
StartChar: j
Encoding: 106 106 75
Width: 288
VWidth: 1533
Flags: W
HStem: -189 49<-32.8811 72.6652> 515 20G<118 195> 599 108<114.229 200.442>
VStem: 103 109<610.558 695.228> 118 77<-69.0695 535>
Fore
158 707 m 0xf0
 185 707 212 684 212 653 c 256
 212 626 188 599 158 599 c 0
 126 599 103 625 103 653 c 256
 103 682 126 707 158 707 c 0xf0
14 -140 m 0
 97 -140 118 -54 118 49 c 2
 118 535 l 1
 195 535 l 1
 195 66 l 2xe8
 195 -46 158 -189 12 -189 c 0
 -12 -189 -54 -183 -86 -161 c 1
 -54 -106 l 1
 -38 -126 -20 -140 14 -140 c 0
EndSplineSet
EndChar
StartChar: k
Encoding: 107 107 76
Width: 601
VWidth: 1533
Flags: W
HStem: 0 21G<84 155 489.766 586> 515 20G<429.289 520>
VStem: 84 71<0 244 293 742>
Fore
504 0 m 1
 267 333 l 1
 155 244 l 1
 155 0 l 1
 84 0 l 1
 84 742 l 1
 155 742 l 1
 155 293 l 1
 454 535 l 1
 520 535 l 1
 320 376 l 1
 586 0 l 1
 504 0 l 1
EndSplineSet
EndChar
StartChar: l
Encoding: 108 108 77
Width: 239
VWidth: 1533
Flags: W
HStem: 0 742<84 155 84 155 84 84>
VStem: 84 71<0 742>
Fore
84 0 m 1
 84 742 l 1
 155 742 l 1
 155 0 l 1
 84 0 l 1
EndSplineSet
EndChar
StartChar: m
Encoding: 109 109 78
Width: 1008
VWidth: 1533
Flags: W
HStem: 0 21G<69 140 474 547 866 940> 511 38<238.706 395.971 624.857 793.088>
VStem: 69 71<0 76.125 78.6508 366.363 434 534> 474 73<0 294 414 417.977> 866 74<0 438.565>
Fore
713 549 m 0
 806 549 940 509 940 351 c 2
 940 0 l 1
 866 0 l 1
 866 360 l 2
 866 455 797 511 707 511 c 0
 571 511 547 389 547 273 c 2
 547 0 l 1
 474 0 l 1
 474 294 l 2
 474 393 443 511 320 511 c 0
 152 511 133 311 133 165 c 0
 133 99 140 49 140 0 c 1
 69 0 l 1
 69 534 l 1
 140 534 l 1
 140 434 l 1
 193 537 289 549 338 549 c 0
 452 549 506 480 529 414 c 1
 567 521 637 549 713 549 c 0
EndSplineSet
EndChar
StartChar: n
Encoding: 110 110 79
Width: 642
VWidth: 1533
Flags: W
HStem: 0 21G<69 140 500 573> 511 38<244.685 425.171>
VStem: 69 71<0 397.933 434 534> 500 73<0 442.745>
Fore
328 549 m 0
 451 549 573 497 573 360 c 2
 573 0 l 1
 500 0 l 1
 500 370 l 2
 500 456 429 511 328 511 c 0
 223 511 140 420 140 301 c 2
 140 0 l 1
 69 0 l 1
 69 534 l 1
 140 534 l 1
 140 434 l 1
 172 495 244 549 328 549 c 0
EndSplineSet
EndChar
StartChar: o
Encoding: 111 111 80
Width: 682
VWidth: 1533
Flags: W
HStem: -15 38<240.411 445.732> 509 38<240.875 444.93>
VStem: 38 88<158.296 374.252> 558 86<157.289 374.521>
Fore
342 547 m 0
 521 547 644 435 644 265 c 0
 644 85 497 -15 340 -15 c 256
 183 -15 38 86 38 265 c 256
 38 446 185 547 342 547 c 0
343 23 m 0
 492 23 558 122 558 265 c 256
 558 449 454 509 342 509 c 0
 192 509 126 411 126 267 c 256
 126 124 193 23 343 23 c 0
EndSplineSet
EndChar
StartChar: p
Encoding: 112 112 81
Width: 668
VWidth: 1533
Flags: W
HStem: -198 21G<69 140> -20 37<260.781 429.23> 509 38<286.502 432.129>
VStem: 69 57<502.833 532> 69 71<-198 107 156.741 371.159> 553 85<156.823 375.519>
Fore
362 547 m 0xf4
 532 547 638 408 638 264 c 0
 638 100 528 -20 362 -20 c 0
 305 -20 192 -6 140 107 c 1
 140 -198 l 1
 69 -198 l 1xec
 69 532 l 1
 126 532 l 1
 138 432 l 1
 202 542 326 547 362 547 c 0xf4
343 17 m 0
 483 17 553 149 553 267 c 256
 553 386 482 509 343 509 c 0
 219 509 140 387 140 267 c 0
 140 137 223 17 343 17 c 0
EndSplineSet
EndChar
StartChar: q
Encoding: 113 113 82
Width: 668
VWidth: 1533
Flags: W
HStem: -198 21G<529 599> -20 37<238.997 410.147> 509 38<233.888 383.042>
VStem: 31 86<154.865 373.447> 529 70<-198 107 155.479 374.529>
Fore
307 547 m 0
 344 547 466 542 530 432 c 1
 543 532 l 1
 599 532 l 1
 599 -198 l 1
 529 -198 l 1
 529 107 l 1
 476 -7 362 -20 307 -20 c 0
 141 -20 31 100 31 264 c 0
 31 415 141 547 307 547 c 0
325 17 m 0
 461 17 529 158 529 267 c 256
 529 383 453 509 325 509 c 0
 187 509 117 384 117 267 c 256
 117 152 183 17 325 17 c 0
EndSplineSet
EndChar
StartChar: r
Encoding: 114 114 83
Width: 366
VWidth: 1533
Flags: W
HStem: 0 21G<69 140> 481 65<239.659 331.721>
VStem: 69 71<0 394.012 415 534>
Fore
140 415 m 1
 159 473 231 546 322 546 c 0
 337 546 347 544 351 544 c 1
 340 472 l 1
 323 478 308 481 296 481 c 0
 171 481 140 369 140 276 c 2
 140 0 l 1
 69 0 l 1
 69 534 l 1
 140 534 l 1
 140 415 l 1
EndSplineSet
EndChar
StartChar: s
Encoding: 115 115 84
Width: 591
VWidth: 1533
Flags: W
HStem: -18 38<201.787 416.262> 509 38<188.951 390.641>
VStem: 38 75<74.9194 140.517> 67 74<360.772 466.323> 478 75<73.2682 181.262 379 423.239>
Fore
299 509 m 0xd8
 233 509 141 492 141 414 c 0xd8
 141 238 553 357 553 153 c 0
 553 16 407 -18 296 -18 c 0
 205 -18 67 22 38 152 c 1
 113 152 l 1xe8
 124 81 199 20 296 20 c 0
 376 20 478 41 478 133 c 0
 478 299 67 175 67 399 c 256
 67 488 158 547 301 547 c 0
 419 547 529 492 549 379 c 1
 474 379 l 1
 455 474 368 509 299 509 c 0xd8
EndSplineSet
EndChar
StartChar: t
Encoding: 116 116 85
Width: 335
VWidth: 1533
Flags: W
HStem: -9 43<202.673 284.41> 468 36<31 104 182 287>
VStem: 112 70<55.3096 468>
Fore
256 34 m 0
 271 34 291 36 333 57 c 1
 333 9 l 1
 305 -3 277 -9 248 -9 c 0
 139 -9 112 73 112 161 c 2
 112 468 l 1
 31 468 l 1
 31 504 l 1
 104 504 l 1
 163 656 l 1
 182 656 l 1
 182 504 l 1
 287 504 l 1
 287 468 l 1
 182 468 l 1
 182 138 l 2
 182 79 197 34 256 34 c 0
EndSplineSet
EndChar
StartChar: u
Encoding: 117 117 86
Width: 642
VWidth: 1533
Flags: W
HStem: -17 38<218.471 399.405> 514 20G<69 143 503 573>
VStem: 69 74<88.9522 534> 503 70<0 100 134.644 534>
Fore
314 21 m 0
 427 21 503 122 503 233 c 2
 503 534 l 1
 573 534 l 1
 573 0 l 1
 503 0 l 1
 503 100 l 1
 469 36 392 -17 314 -17 c 0
 214 -17 69 21 69 172 c 2
 69 534 l 1
 143 534 l 1
 143 163 l 2
 143 77 213 21 314 21 c 0
EndSplineSet
EndChar
StartChar: v
Encoding: 118 118 87
Width: 579
VWidth: 1533
Flags: W
HStem: -17 21G<276.764 307.091> 514 20G<5 94.3417 523.841 575>
Fore
297 -17 m 1
 287 -17 l 1
 5 534 l 1
 84 534 l 1
 311 95 l 1
 534 534 l 1
 575 534 l 1
 297 -17 l 1
EndSplineSet
EndChar
StartChar: w
Encoding: 119 119 88
Width: 898
VWidth: 1533
Flags: W
HStem: -17 21G<248.817 276.458 624.402 653.074> 514 20G<5 90.0909 450.063 477.578 843.167 894>
Fore
644 -17 m 1
 633 -17 l 1
 449 411 l 1
 268 -17 l 1
 258 -17 l 1
 5 534 l 1
 81 534 l 1
 281 94 l 1
 458 540 l 1
 469 540 l 1
 659 97 l 1
 852 534 l 1
 894 534 l 1
 644 -17 l 1
EndSplineSet
EndChar
StartChar: x
Encoding: 120 120 89
Width: 544
VWidth: 1533
Flags: W
HStem: 0 21G<5 67.9038 439.929 540> 514 20G<5 103.727 440.091 503>
Fore
457 0 m 1
 253 239 l 1
 51 0 l 1
 5 0 l 1
 230 267 l 1
 5 534 l 1
 87 534 l 1
 271 314 l 1
 457 534 l 1
 503 534 l 1
 294 288 l 1
 540 0 l 1
 457 0 l 1
EndSplineSet
EndChar
StartChar: y
Encoding: 121 121 90
Width: 584
VWidth: 1533
Flags: W
HStem: -202 49<53.2445 173.65> 514 20G<5 94.3604 526.955 580>
Fore
110 -153 m 0
 180 -153 262 -63 262 6 c 0
 262 19 262 27 244 71 c 2
 5 534 l 1
 84 534 l 1
 314 90 l 1
 537 534 l 1
 580 534 l 1
 304 -15 l 2
 296 -30 218 -202 106 -202 c 0
 58 -202 26 -186 11 -175 c 1
 43 -120 l 1
 58 -140 76 -153 110 -153 c 0
EndSplineSet
EndChar
StartChar: z
Encoding: 122 122 91
Width: 544
VWidth: 1533
Flags: W
HStem: 0 40<130 495> 495 39<77 415>
Fore
130 40 m 1
 512 40 l 1
 495 0 l 1
 15 0 l 1
 415 495 l 1
 64 495 l 1
 77 534 l 1
 529 534 l 1
 130 40 l 1
EndSplineSet
EndChar
StartChar: braceleft
Encoding: 123 123 92
Width: 387
VWidth: 1533
Flags: W
HStem: -209 19<256.921 314> 721 20<257.979 314>
VStem: 147 82<-141.644 23.2731 502.336 674.978> 156 78<21.3858 204.891 329.355 500.128>
Fore
229 -45 m 0xe0
 229 -168 263 -190 314 -190 c 1
 314 -209 l 1
 312 -209 l 2
 225 -209 147 -182 147 -37 c 0xe0
 147 -0 156 49 156 117 c 0
 156 242 97 257 74 265 c 1
 102 275 156 297 156 415 c 0
 156 461 148 507 148 568 c 0
 148 670 178 741 314 741 c 1
 314 721 l 1
 247 721 230 671 230 583 c 0
 230 521 236 509 236 459 c 0
 236 381 220 342 208 318 c 0
 194 292 169 275 133 267 c 1
 215 248 234 175 234 77 c 0xd0
 234 28 229 4 229 -45 c 0xe0
EndSplineSet
EndChar
StartChar: bar
Encoding: 124 124 93
Width: 263
VWidth: 1533
Flags: W
HStem: -279 1118<100 164 100 164 100 100>
VStem: 100 64<-279 839>
Fore
100 -279 m 1
 100 839 l 1
 164 839 l 1
 164 -279 l 1
 100 -279 l 1
EndSplineSet
EndChar
StartChar: braceright
Encoding: 125 125 94
Width: 387
VWidth: 1533
Flags: W
HStem: -209 19<74 129.202> 721 20<74 130.404>
VStem: 152 79<13.3664 205.492 328.731 516.525> 156 84<-143.721 29.2942 501.551 674.542>
Fore
152 73 m 0xe0
 152 174 169 246 253 267 c 1
 171 285 152 356 152 459 c 0xe0
 152 507 156 531 156 578 c 0
 156 673 140 721 74 721 c 1
 74 741 l 1
 164 741 240 714 240 570 c 0xd0
 240 533 231 477 231 411 c 0
 231 286 295 271 314 265 c 1
 290 257 231 240 231 119 c 0xe0
 231 52 240 -3 240 -40 c 0
 240 -184 161 -209 74 -209 c 1
 74 -190 l 1
 140 -190 156 -142 156 -46 c 0xd0
 156 1 152 25 152 73 c 0xe0
EndSplineSet
EndChar
StartChar: asciitilde
Encoding: 126 126 95
Width: 686
VWidth: 1533
Flags: W
HStem: 222 62<388.952 515.053> 297 63<166.349 308.471>
Fore
463 284 m 0
 496 284 518 298 561 363 c 1
 603 317 l 1
 548 243 514 222 461 222 c 0
 372 222 317 297 221 297 c 0
 175 297 162 277 124 218 c 1
 84 265 l 1
 127 320 147 360 227 360 c 0
 307 360 400 284 463 284 c 0
EndSplineSet
EndChar
StartChar: uni0E33.alt1
Encoding: 65537 -1 96
Width: 604
VWidth: 1533
Flags: W
HStem: 0 21<435 512> 593 31<177.95 363.263> 690 37<-401.513 -288.976> 895 40<-400.703 -288.013>
VStem: -467 38<755.31 866.545> -260 38<755.583 866.583> 14 78<448.117 530.125> 435 77<0 517.248>
Back
-222 813 m 256
 -222 779 -234 750 -258 726 c 128
 -282 702 -311 690 -345 690 c 256
 -379 690 -408 702 -432 726 c 128
 -456 750 -468 779 -468 813 c 256
 -468 846.333 -456 875 -432 899 c 128
 -408 923 -379 935 -345 935 c 256
 -311 935 -282 923 -258 899 c 128
 -234 875 -222 846.333 -222 813 c 256
420 0 m 1
 420 422 l 2
 420 470.667 406.5 511.333 379.5 544 c 128
 352.5 576.667 311 593 255 593 c 0
 224.333 593 198.5 588.5 177.5 579.5 c 128
 156.5 570.5 139 558.333 125 543 c 128
 111 527.667 100.167 510.833 92.5 492.5 c 128
 84.8333 474.167 79.6667 455.667 77 437 c 1
 -2 437 l 1
 7.33333 491 33.8333 535.667 77.5 571 c 128
 121.167 606.333 180.333 624 255 624 c 0
 328.333 624 387 607.167 431 573.5 c 128
 475 539.833 497 486 497 412 c 2
 497 0 l 1
 420 0 l 1
-261 811 m 256
 -261 834.333 -269.167 854.167 -285.5 870.5 c 128
 -301.833 886.833 -321.667 895 -345 895 c 256
 -368.333 895 -388.167 886.833 -404.5 870.5 c 128
 -420.833 854.167 -429 834.333 -429 811 c 256
 -429 787.667 -420.833 767.833 -404.5 751.5 c 128
 -388.167 735.167 -368.333 727 -345 727 c 256
 -321.667 727 -301.833 735.167 -285.5 751.5 c 128
 -269.167 767.833 -261 787.667 -261 811 c 256
EndSplineSet
Refer: 261 3634 N 1 0 0 1 0 0 2
Refer: 284 3661 N 1 0 0 1 -216 0 2
EndChar
StartChar: quotedbl
Encoding: 34 34 97
Width: 377
VWidth: 1533
Flags: W
HStem: 386 351<100 115 262 278>
VStem: 69 239<584 704 688 690 690 690> 69 77<466.985 710.246> 232 76<459.517 709.516>
Fore
270 737 m 256x90
 302 737 308 704 308 688 c 0xc0
 308 567 294 552 278 386 c 1
 262 386 l 1
 246 552 232 567 232 688 c 0
 232 710 239 737 270 737 c 256x90
109 737 m 256
 142 737 146 701 146 688 c 0xa0
 146 582 133 552 115 386 c 1
 100 386 l 1
 82 553 69 584 69 690 c 0
 69 710 77 737 109 737 c 256
EndSplineSet
EndChar
StartChar: exclam
Encoding: 33 33 98
Width: 315
VWidth: 1533
Flags: W
HStem: -15 102<118.236 202.544> 719 20G<135.5 185.5>
VStem: 109 103<-0.625 72.875 387.768 690.749>
Fore
103 642 m 0
 103 689 112 739 159 739 c 256
 212 739 213 677 213 645 c 0
 213 519 189 401 164 129 c 1
 152 129 l 1
 126 399 103 450 103 642 c 0
161 87 m 0
 187 87 212 66 212 37 c 256
 212 6 189 -15 161 -15 c 256
 133 -15 109 6 109 37 c 256
 109 64 131 87 161 87 c 0
EndSplineSet
EndChar
StartChar: exclamdown
Encoding: 161 161 100
Width: 286
VWidth: 1533
Flags: W
HStem: 498 103<99.7346 183.34>
VStem: 89 110<-105.361 -13.5415 512.62 587.125> 136 14<424.407 460>
Fore
143 -153 m 256xc0
 93 -153 89 -100 89 -61 c 0xc0
 89 -19 136 448 136 460 c 1
 150 460 l 1xa0
 196 -7 199 -33 199 -59 c 0
 199 -103 190 -153 143 -153 c 256xc0
141 498 m 256
 114 498 90 520 90 550 c 256
 90 581 113 601 141 601 c 256
 170 601 193 581 193 550 c 256
 193 522 172 498 141 498 c 256
EndSplineSet
EndChar
StartChar: cent
Encoding: 162 162 101
Width: 601
VWidth: 1533
Flags: W
HStem: -18 21G<320 359> 95 32<252.769 320 359 419.169> 560 29<258.263 320 359 418.595> 687 20G<320 359>
VStem: 74 496<192 238 238 342 342 342> 74 79<241.453 441.702> 320 39<-18 95 589 707>
Fore
336 127 m 0xf4
 385 127 462 148 495 238 c 1
 570 238 l 1xf8
 547 149 462 101 359 95 c 1
 359 -18 l 1
 320 -18 l 1
 320 95 l 1xf2
 199 102 74 192 74 342 c 256xf8
 74 492 200 582 320 589 c 1
 320 707 l 1
 359 707 l 1
 359 589 l 1xf2
 423 585 540 559 570 448 c 1xf8
 495 448 l 1
 458 539 382 560 336 560 c 0
 226 560 153 456 153 348 c 0
 153 224 226 127 336 127 c 0xf4
EndSplineSet
EndChar
StartChar: sterling
Encoding: 163 163 102
Width: 716
VWidth: 1533
Flags: W
HStem: -18 84<508.786 605.01> -15 41<68.5727 177.663> 166 26<90.5981 219.043> 348 34<156 238 343 503> 547 21G<547 603.613> 664 29<326.599 485.678>
VStem: -14 71<38.7456 126.7> 221 57<482.702 590.693> 271 86<221.441 266.506>
Fore
57 78 m 0x7e
 57 36 98 26 136 26 c 0
 201 26 249 89 264 149 c 1
 236 160 204 166 166 166 c 0
 111 166 57 138 57 78 c 0x7e
271 218 m 2x7e80
 271 244 271 273 247 348 c 1
 141 348 l 1
 156 382 l 1
 238 382 l 1
 225 421 221 453 221 484 c 0
 221 613 295 693 419 693 c 0
 530 693 594 649 632 578 c 1
 552 547 l 1
 542 649 431 664 392 664 c 0
 330 664 278 611 278 557 c 0x7f
 278 521 284 490 296 462 c 2
 330 382 l 1
 518 382 l 1
 503 348 l 1
 343 348 l 1
 352 322 357 293 357 256 c 0
 357 225 349 195 334 164 c 1
 359 155 381 144 402 132 c 2
 459 100 l 2
 516 70 542 66 563 66 c 0
 610 66 661 82 702 175 c 1
 719 169 l 1
 700 93 640 -18 523 -18 c 0xbe80
 502 -18 468 -16 416 30 c 2
 366 76 l 2
 348 93 330 108 311 123 c 1
 270 65 187 -15 92 -15 c 0
 38 -15 -14 22 -14 67 c 0
 -14 142 72 192 166 192 c 0
 204 192 239 188 270 181 c 1
 271 187 271 192 271 194 c 2
 271 218 l 2x7e80
EndSplineSet
EndChar
StartChar: currency
Encoding: 164 164 103
Width: 716
VWidth: 1533
Flags: W
HStem: 69 52<261.804 450.329> 566 50<262.126 448.137>
VStem: 83 50<248.845 437.505> 578 52<247.79 438.557>
Fore
578 343 m 256
 578 464 478 566 356 566 c 256
 230 566 133 460 133 343 c 256
 133 225 229 121 356 121 c 256
 481 121 578 222 578 343 c 256
630 343 m 256
 630 275 605 215 570 172 c 1
 633 109 l 1
 593 69 l 1
 530 132 l 1
 488 95 430 69 356 69 c 0
 300 69 238 86 184 129 c 1
 124 69 l 1
 84 109 l 1
 144 169 l 1
 100 222 83 286 83 343 c 0
 83 400 100 466 146 518 c 1
 84 578 l 1
 124 618 l 1
 186 558 l 1
 216 582 271 616 356 616 c 256
 412 616 476 599 529 555 c 1
 592 618 l 1
 632 578 l 1
 569 515 l 1
 613 462 630 399 630 343 c 256
EndSplineSet
EndChar
StartChar: yen
Encoding: 165 165 104
Width: 702
VWidth: 1533
Flags: W
HStem: 181 29<135 302 383 553> 302 29<135 284 386 553>
VStem: 302 81<2 181 210 302>
Fore
386 331 m 1
 553 331 l 1
 553 302 l 1
 383 302 l 1
 383 210 l 1
 553 210 l 1
 553 181 l 1
 383 181 l 1
 383 2 l 1
 302 2 l 1
 302 181 l 1
 135 181 l 1
 135 210 l 1
 302 210 l 1
 302 302 l 1
 135 302 l 1
 135 331 l 1
 284 331 l 1
 8 698 l 1
 97 698 l 1
 359 350 l 1
 647 698 l 1
 695 698 l 1
 386 331 l 1
EndSplineSet
EndChar
StartChar: brokenbar
Encoding: 166 166 105
Width: 246
VWidth: 1533
Flags: W
HStem: -196 21G<95 152>
VStem: 95 57<-196 190 370 754>
Fore
95 754 m 1
 152 754 l 1
 152 370 l 1
 95 370 l 1
 95 754 l 1
95 190 m 1
 152 190 l 1
 152 -196 l 1
 95 -196 l 1
 95 190 l 1
EndSplineSet
EndChar
StartChar: section
Encoding: 167 167 106
Width: 613
VWidth: 1533
Flags: W
HStem: -175 34<198.106 395.491> 710 29<240.035 405.992>
VStem: 40 83<-53.8223 14> 69 83<262.871 382.617> 124 72<531.827 656.161> 465 84<-63.9219 46.9672 202.07 324.297>
Fore
69 304 m 0xd4
 69 384 121 427 179 452 c 1
 125 494 124 552 124 573 c 0
 124 706 247 739 327 739 c 0
 405 739 500 711 535 595 c 1
 463 595 l 1
 456 623 436 710 327 710 c 0
 263 710 196 687 196 595 c 0
 196 415 546 496 546 285 c 256
 546 205 501 168 471 152 c 1
 498 137 549 99 549 20 c 0
 549 -97 435 -175 285 -175 c 0
 175 -175 51 -109 40 14 c 1
 123 14 l 1xec
 125 -81 191 -141 285 -141 c 0
 383 -141 465 -106 465 -3 c 0
 465 176 69 66 69 304 c 0xd4
435 167 m 1
 453 179 472 195 472 264 c 0
 472 386 304 377 202 434 c 1
 167 412 152 377 152 322 c 0xd4
 152 200 323 210 435 167 c 1
EndSplineSet
EndChar
StartChar: dieresis
Encoding: 168 168 107
Width: 392
VWidth: 1533
Flags: W
HStem: 673 112<56.6142 143.845 248.202 335.845>
VStem: 44 112<684.847 772.152> 236 112<684.037 773.003>
Fore
101 673 m 256
 69 673 44 698 44 728 c 256
 44 761 71 785 101 785 c 256
 131 785 156 760 156 728 c 256
 156 695 130 673 101 673 c 256
293 673 m 0
 259 673 236 698 236 728 c 256
 236 758 259 785 293 785 c 0
 323 785 348 760 348 728 c 256
 348 695 322 673 293 673 c 0
EndSplineSet
EndChar
StartChar: copyright
Encoding: 169 169 108
Width: 896
VWidth: 1533
Flags: W
HStem: -23 48<334.303 562.62> 146 30<377.039 527.308> 546 30<377.524 528.46> 693 46<335.304 562.42>
VStem: 58 55<250.861 471.686> 216 80<270.33 450.029> 783 54<246.107 471.143>
Fore
449 739 m 256
 659 739 837 567 837 357 c 256
 837 150 659 -23 449 -23 c 256
 240 -23 58 146 58 357 c 256
 58 571 240 739 449 739 c 256
449 25 m 0
 630 25 783 182 783 359 c 256
 783 539 629 693 449 693 c 256
 268 693 113 538 113 359 c 256
 113 187 263 25 449 25 c 0
451 176 m 0
 536 176 579 241 593 276 c 1
 664 276 l 1
 630 169 525 146 455 146 c 0
 324 146 216 239 216 360 c 256
 216 481 322 576 455 576 c 0
 525 576 630 553 664 446 c 1
 592 446 l 1
 578 484 536 546 451 546 c 0
 350 546 296 446 296 365 c 0
 296 276 346 176 451 176 c 0
EndSplineSet
EndChar
StartChar: ordfeminine
Encoding: 170 170 109
Width: 401
VWidth: 1533
Flags: W
HStem: 337 25<119.055 253.833> 541 26<138.302 286 286 305> 681 26<137.215 268.782>
VStem: 15 69<395.347 496.723> 305 58<415.788 438 438 541 569 645.476>
Fore
199 707 m 0
 284 707 363 680 363 573 c 2
 363 438 l 2
 363 403 370 373 383 347 c 1
 324 347 l 1
 317 364 313 380 313 394 c 1
 290 367 255 337 167 337 c 0
 88 337 15 376 15 448 c 0
 15 543 142 567 245 567 c 2
 267 567 l 2
 282 567 290 569 305 569 c 1
 305 575 l 2
 305 622 284 681 199 681 c 0
 134 681 100 628 100 593 c 1
 32 593 l 1
 40 625 65 707 199 707 c 0
186 362 m 0
 240 362 305 398 305 506 c 2
 305 541 l 1
 245 541 l 2
 160 541 84 509 84 446 c 0
 84 399 131 362 186 362 c 0
EndSplineSet
EndChar
StartChar: guillemotleft
Encoding: 171 171 110
Width: 561
VWidth: 1533
Flags: W
HStem: 75 432<218 218 218 218>
VStem: 74 384<291 472 291 291>
Fore
276 472 m 1
 129 291 l 1
 276 110 l 1
 218 75 l 1
 74 291 l 1
 218 507 l 1
 276 472 l 1
458 472 m 1
 311 291 l 1
 458 110 l 1
 400 75 l 1
 258 291 l 1
 400 507 l 1
 458 472 l 1
EndSplineSet
EndChar
StartChar: logicalnot
Encoding: 172 172 111
Width: 643
VWidth: 1533
Flags: W
HStem: 376 56<21 537>
VStem: 537 56<129 376>
Fore
537 376 m 1
 21 376 l 1
 21 432 l 1
 593 432 l 1
 593 129 l 1
 537 129 l 1
 537 376 l 1
EndSplineSet
EndChar
StartChar: registered
Encoding: 174 174 112
Width: 896
VWidth: 1533
Flags: W
HStem: -23 48<334.303 562.62> 342 29<356 499.821> 534 29<356 521.712> 693 46<335.304 561.863>
VStem: 58 55<250.861 471.686> 294 62<155 342 371 534> 552 74<402.281 507.211> 783 54<246.107 471.7>
Fore
449 739 m 256
 656 739 837 570 837 357 c 256
 837 150 659 -23 449 -23 c 256
 240 -23 58 146 58 357 c 256
 58 571 240 739 449 739 c 256
449 25 m 0
 630 25 783 182 783 359 c 256
 783 539 629 693 449 693 c 256
 268 693 113 538 113 359 c 256
 113 187 263 25 449 25 c 0
626 457 m 0
 626 391 549 358 517 353 c 1
 546 349 573 339 598 270 c 2
 622 207 l 2
 629 186 641 168 656 155 c 1
 584 155 l 1
 546 200 533 342 455 342 c 2
 356 342 l 1
 356 155 l 1
 294 155 l 1
 294 563 l 1
 422 563 l 2
 521 563 626 542 626 457 c 0
402 371 m 2
 484 371 552 378 552 457 c 0
 552 531 467 534 396 534 c 2
 356 534 l 1
 356 371 l 1
 402 371 l 2
EndSplineSet
EndChar
StartChar: macron
Encoding: 175 175 113
Width: 340
VWidth: 1533
Flags: W
HStem: 698 59<0 340>
VStem: 0 340<698 757 698 757 698 698>
Fore
0 757 m 1
 340 757 l 1
 340 698 l 1
 0 698 l 1
 0 757 l 1
EndSplineSet
EndChar
StartChar: degree
Encoding: 176 176 114
Width: 383
VWidth: 1533
Flags: W
HStem: 382 43<123.633 259.803> 662 45<124.105 259.097>
VStem: 29 45<473.983 611.264> 310 43<475.708 610.834>
Fore
29 543 m 256
 29 624 94 707 192 707 c 256
 288 707 353 624 353 543 c 256
 353 462 290 382 192 382 c 256
 90 382 29 464 29 543 c 256
310 543 m 0
 310 603 263 662 192 662 c 256
 120 662 74 605 74 543 c 0
 74 476 127 425 192 425 c 256
 259 425 310 478 310 543 c 0
EndSplineSet
EndChar
StartChar: plusminus
Encoding: 177 177 115
Width: 662
VWidth: 1533
Flags: W
HStem: 0 49<46 616> 331 48<46 304 359 616>
VStem: 304 55<127 331 379 581>
Fore
359 331 m 1
 359 127 l 1
 304 127 l 1
 304 331 l 1
 46 331 l 1
 46 379 l 1
 304 379 l 1
 304 581 l 1
 359 581 l 1
 359 379 l 1
 616 379 l 1
 616 331 l 1
 359 331 l 1
46 0 m 1
 46 49 l 1
 616 49 l 1
 616 0 l 1
 46 0 l 1
EndSplineSet
EndChar
StartChar: twosuperior
Encoding: 178 178 116
Width: 424
VWidth: 1533
Flags: W
HStem: 282 49<92 383> 675 29<137.147 272.23>
VStem: 15 59<566 626.638> 313 60<511.897 635.08>
Fore
196 704 m 0
 301 704 373 651 373 572 c 0
 373 421 116 421 92 331 c 1
 383 331 l 1
 383 282 l 1
 23 282 l 1
 48 455 313 432 313 572 c 0
 313 609 291 675 196 675 c 0
 135 675 75 642 74 566 c 1
 15 566 l 1
 34 695 160 704 196 704 c 0
EndSplineSet
EndChar
StartChar: threesuperior
Encoding: 179 179 117
Width: 424
VWidth: 1533
Flags: W
HStem: 273 26<155.033 296.081> 485 29<176.217 284.88> 682 25<151.462 293.749>
VStem: 57 60<587.888 653.328> 325 60<550.341 651.144> 348 58<344.983 451.572>
Fore
406 400 m 0xf4
 406 304 297 273 213 273 c 0
 178 273 53 280 32 409 c 1
 92 409 l 1
 92 332 154 299 214 299 c 0
 264 299 348 325 348 402 c 0xf4
 348 463 282 485 221 485 c 0
 203 485 184 483 166 480 c 1
 166 517 l 1
 179 515 191 514 203 514 c 0
 270 514 325 549 325 601 c 0
 325 633 301 682 216 682 c 0
 157 682 121 644 117 584 c 1
 57 584 l 1
 62 661 130 707 216 707 c 0
 287 707 385 686 385 600 c 0xf8
 385 542 332 513 305 503 c 1
 357 493 406 462 406 400 c 0xf4
EndSplineSet
EndChar
StartChar: acute
Encoding: 180 180 118
Width: 280
VWidth: 1533
Flags: W
HStem: 650 193<98 273 273 273>
VStem: 66 238<652 810 652 652>
Fore
273 843 m 0
 291 843 304 829 304 810 c 256
 304 791 289 781 262 760 c 2
 98 650 l 1
 66 652 l 1
 235 826 l 2
 244 837 256 843 273 843 c 0
EndSplineSet
EndChar
StartChar: mu
Encoding: 181 181 119
Width: 679
VWidth: 1533
Flags: W
HStem: -18 36<234.656 410.583>
VStem: 74 79<-210 44 115.977 581> 530 76<145.322 581>
Fore
320 18 m 0
 458 18 530 133 530 253 c 2
 530 581 l 1
 606 581 l 1
 606 0 l 1
 544 0 l 1
 530 121 l 1
 478 1 360 -18 302 -18 c 0
 242 -18 192 3 153 44 c 1
 153 -210 l 1
 74 -210 l 1
 74 581 l 1
 155 581 l 1
 155 235 l 2
 155 46 254 18 320 18 c 0
EndSplineSet
EndChar
StartChar: paragraph
Encoding: 182 182 120
Width: 561
VWidth: 1533
Flags: W
HStem: 678 40<307 385 440 532>
VStem: 29 278<382.01 595.628> 250 57<-150 262> 385 55<-150 678>
Fore
29 498 m 0xd0
 29 636 132 718 253 718 c 2
 532 718 l 1
 532 678 l 1
 440 678 l 1
 440 -150 l 1
 385 -150 l 1
 385 678 l 1
 307 678 l 1
 307 -150 l 1
 250 -150 l 1
 250 262 l 1xb0
 73 262 29 393 29 498 c 0xd0
EndSplineSet
EndChar
StartChar: periodcentered
Encoding: 183 183 121
Width: 259
VWidth: 1533
Flags: W
HStem: 236 112<85.8467 173.798>
VStem: 74 112<247.712 336.003>
Fore
129 236 m 0
 96 236 74 262 74 291 c 256
 74 323 99 348 129 348 c 0
 163 348 186 321 186 291 c 256
 186 258 159 236 129 236 c 0
EndSplineSet
EndChar
StartChar: cedilla
Encoding: 184 184 122
Width: 225
VWidth: 1533
Flags: W
HStem: -241 32<40.7886 120.849> -104 32<99.4272 138.504> -20 20G<88.6364 126>
VStem: 150 75<-195.579 -116.699>
Fore
150 -155 m 0
 150 -124 117 -104 97 -104 c 0
 79 -104 60 -108 51 -110 c 1
 97 0 l 1
 126 0 l 1
 94 -77 l 1
 104 -74 112 -72 120 -72 c 2
 144 -72 l 2
 184 -72 225 -102 225 -149 c 0
 225 -215 151 -241 95 -241 c 0
 57 -241 26 -240 2 -225 c 1
 12 -195 l 1
 31 -204 53 -209 80 -209 c 0
 101 -209 150 -200 150 -155 c 0
EndSplineSet
EndChar
StartChar: onesuperior
Encoding: 185 185 123
Width: 323
VWidth: 1533
Flags: W
HStem: 281 433<204 242 204 242 204 204> 622 27<77 176.804>
VStem: 77 165<622 649> 179 63<281 622>
Fore
77 649 m 1x60
 157 649 179 656 204 714 c 1
 242 714 l 1
 242 281 l 1
 179 281 l 1x90
 179 622 l 1x50
 77 622 l 1
 77 649 l 1x60
EndSplineSet
EndChar
StartChar: ordmasculine
Encoding: 186 186 124
Width: 469
VWidth: 1533
Flags: W
HStem: 334 29<160.772 308.775> 675 29<161.245 305.935>
VStem: 29 72<436.22 600.719> 366 74<436.319 600.039>
Fore
440 520 m 256
 440 421 357 334 235 334 c 256
 116 334 29 417 29 520 c 256
 29 617 116 704 235 704 c 0
 344 704 440 623 440 520 c 256
366 518 m 0
 366 636 295 675 235 675 c 256
 174 675 101 636 101 518 c 0
 101 453 128 363 235 363 c 0
 320 363 366 428 366 518 c 0
EndSplineSet
EndChar
StartChar: guillemotright
Encoding: 187 187 125
Width: 561
VWidth: 1533
Flags: W
HStem: 75 432<343 343 343 343>
VStem: 103 385<110 291 110 110>
Fore
343 507 m 1
 488 291 l 1
 343 75 l 1
 287 110 l 1
 432 291 l 1
 287 472 l 1
 343 507 l 1
161 507 m 1
 305 291 l 1
 161 75 l 1
 103 110 l 1
 250 291 l 1
 103 472 l 1
 161 507 l 1
EndSplineSet
EndChar
StartChar: onequarter
Encoding: 188 188 126
Width: 1079
VWidth: 1533
Flags: W
HStem: -17 21<193 252.684 702 760> 100 33<527 702 760 842> 622 27<104 192.828> 685 20G<673.316 733>
VStem: 193 57<285 622> 702 58<0 100 133 327>
Fore
193 -17 m 1
 687 705 l 1
 733 705 l 1
 239 -17 l 1
 193 -17 l 1
760 100 m 1
 760 0 l 1
 702 0 l 1
 702 100 l 1
 483 100 l 1
 469 118 l 1
 748 423 l 1
 760 423 l 1
 760 133 l 1
 859 133 l 1
 842 100 l 1
 760 100 l 1
527 133 m 1
 702 133 l 1
 702 327 l 1
 527 133 l 1
104 649 m 1
 187 649 193 657 218 714 c 1
 250 714 l 1
 250 285 l 1
 193 285 l 1
 193 622 l 1
 104 622 l 1
 104 649 l 1
EndSplineSet
LCarets2: 2 0 0 
Ligature2: "'frac' Diagonal Fractions in Latin lookup 0 subtable" one fraction four
Ligature2: "'frac' Diagonal Fractions in Latin lookup 0 subtable" one slash four
EndChar
StartChar: onehalf
Encoding: 189 189 127
Width: 1079
VWidth: 1533
Flags: W
HStem: 0 49<632 923> 391 31<676.586 814.89> 622 27<101 189.203> 685 20G<661.177 719>
VStem: 190 57<285 622> 856 58<232.061 351.374>
Fore
221 -17 m 1
 176 -17 l 1
 675 705 l 1
 719 705 l 1
 221 -17 l 1
736 422 m 0
 819 422 914 385 914 290 c 0
 914 135 655 136 632 49 c 1
 923 49 l 1
 923 0 l 1
 566 0 l 1
 592 175 856 151 856 290 c 0
 856 331 831 391 736 391 c 0
 690 391 615 369 615 282 c 1
 555 282 l 1
 575 413 699 422 736 422 c 0
101 649 m 1
 189 649 188 658 215 714 c 1
 247 714 l 1
 247 285 l 1
 190 285 l 1
 190 622 l 1
 101 622 l 1
 101 649 l 1
EndSplineSet
LCarets2: 2 0 0 
Ligature2: "'frac' Diagonal Fractions in Latin lookup 0 subtable" one fraction two
Ligature2: "'frac' Diagonal Fractions in Latin lookup 0 subtable" one slash two
EndChar
StartChar: threequarters
Encoding: 190 190 128
Width: 1079
VWidth: 1533
Flags: W
HStem: -17 21<311 369.795 791 849> 100 33<615 791 849 931> 279 28<209.033 350.176> 493 27<229.217 345.875> 682 25<203.382 346.522>
VStem: 86 60<357.105 417> 110 59<587.925 650.296> 379 58<551.743 652.517> 402 58<352.571 459.85> 791 58<0 100 133 327>
Fore
311 -17 m 1xf840
 810 705 l 1
 854 705 l 1
 356 -17 l 1
 311 -17 l 1xf840
849 100 m 1
 849 0 l 1
 791 0 l 1
 791 100 l 1
 570 100 l 1
 558 118 l 1
 836 423 l 1
 849 423 l 1
 849 133 l 1
 946 133 l 1
 931 100 l 1
 849 100 l 1
615 133 m 1
 791 133 l 1
 791 327 l 1
 615 133 l 1
460 408 m 0xf8c0
 460 331 381 279 267 279 c 0
 229 279 103 290 86 417 c 1
 146 417 l 1
 146 329 222 307 268 307 c 0
 336 307 402 345 402 409 c 0xfcc0
 402 473 334 493 274 493 c 0
 256 493 237 491 219 488 c 1
 219 524 l 1
 235 521 250 520 264 520 c 0
 329 520 379 552 379 600 c 0
 379 646 341 682 270 682 c 0
 209 682 173 644 169 584 c 1
 110 584 l 1
 119 661 185 707 270 707 c 0
 345 707 437 685 437 600 c 0xfb40
 437 550 396 523 357 511 c 1
 400 502 460 474 460 408 c 0xf8c0
EndSplineSet
LCarets2: 2 0 0 
Ligature2: "'frac' Diagonal Fractions in Latin lookup 0 subtable" three fraction four
Ligature2: "'frac' Diagonal Fractions in Latin lookup 0 subtable" three slash four
EndChar
StartChar: questiondown
Encoding: 191 191 129
Width: 550
VWidth: 1533
Flags: W
HStem: -152 31<208.662 367.811> 497 102<262.236 347.246>
VStem: 51 101<-44.1649 117.444> 253 103<506.396 589.34> 296 22<347.157 434.946 434.946 457> 438 82<-28.642 77>
Fore
287 -152 m 0xec
 199 -152 51 -112 51 49 c 0
 51 222 296 201 296 457 c 1
 314 457 l 1
 317 434 318 413 318 394 c 0
 318 177 152 178 152 46 c 0
 152 -44 180 -121 290 -121 c 0
 349 -121 438 -95 438 77 c 1
 520 77 l 1
 520 -76 415 -152 287 -152 c 0xec
305 497 m 256
 275 497 253 520 253 547 c 256
 253 578 277 599 305 599 c 256
 336 599 356 576 356 547 c 256xf4
 356 517 333 497 305 497 c 256
EndSplineSet
EndChar
StartChar: Aring
Encoding: 197 197 134
Width: 818
VWidth: 1533
Flags: W
HStem: 0 21G<8 67.6011 703.454 811> 366 37<273 504> 869 37<371.277 473.954>
VStem: 313 37<744.062 848.195> 495 37<743.487 848.195>
Fore
392 627 m 1
 273 403 l 1
 504 403 l 1
 392 627 l 1
495 796 m 256
 495 834 466 869 423 869 c 256
 379 869 350 834 350 796 c 256
 350 753 383 724 423 724 c 256
 466 724 495 756 495 796 c 256
313 796 m 0
 313 862 364 906 423 906 c 0
 481 906 532 862 532 796 c 0
 532 743 498 705 452 691 c 1
 811 0 l 1
 714 0 l 1
 521 366 l 1
 251 366 l 1
 57 0 l 1
 8 0 l 1
 388 693 l 1
 347 707 313 744 313 796 c 0
EndSplineSet
EndChar
StartChar: AE
Encoding: 198 198 135
Width: 1096
VWidth: 1533
Flags: W
HStem: 0 37<639 1081> 366 37<328 555 639 972> 678 38<515 555 639 1081>
VStem: 555 84<37 366 403 678>
Fore
555 0 m 1
 555 366 l 1
 302 366 l 1
 54 0 l 1
 0 0 l 1
 489 716 l 1
 1081 716 l 1
 1081 678 l 1
 639 678 l 1
 639 403 l 1
 972 403 l 1
 972 366 l 1
 639 366 l 1
 639 37 l 1
 1081 37 l 1
 1081 0 l 1
 555 0 l 1
555 678 m 1
 515 678 l 1
 328 403 l 1
 555 403 l 1
 555 678 l 1
EndSplineSet
EndChar
StartChar: Eth
Encoding: 208 208 145
Width: 880
VWidth: 1533
Flags: W
HStem: 0 37<186 541.875> 366 37<17 103 186 392> 678 38<186 543.927>
VStem: 103 83<37 366 403 678> 741 101<242.448 502.635>
Fore
357 716 m 2
 778 716 842 514 842 380 c 0
 842 76 614 0 363 0 c 2
 103 0 l 1
 103 366 l 1
 17 366 l 1
 17 403 l 1
 103 403 l 1
 103 716 l 1
 357 716 l 2
379 37 m 2
 631 37 741 141 741 380 c 0
 741 559 642 678 379 678 c 2
 186 678 l 1
 186 403 l 1
 392 403 l 1
 392 366 l 1
 186 366 l 1
 186 37 l 1
 379 37 l 2
EndSplineSet
EndChar
StartChar: multiply
Encoding: 215 215 152
Width: 662
VWidth: 1533
Flags: W
Fore
331 250 m 1
 87 3 l 1
 48 43 l 1
 291 291 l 1
 48 538 l 1
 87 578 l 1
 331 331 l 1
 575 578 l 1
 615 538 l 1
 371 291 l 1
 615 43 l 1
 575 3 l 1
 331 250 l 1
EndSplineSet
EndChar
StartChar: Oslash
Encoding: 216 216 153
Width: 949
VWidth: 1533
Flags: W
HStem: -25 36<370.024 583.419> 702 37<371.671 586.527>
VStem: 61 102<236.746 477.281> 797 103<239.856 476.545>
Fore
480 739 m 0
 581 739 666 707 730 664 c 1
 848 791 l 1
 911 791 l 1
 767 638 l 1
 847 567 900 469 900 357 c 0
 900 160 726 -25 480 -25 c 0
 396 -25 306 -4 222 55 c 1
 101 -75 l 1
 38 -75 l 1
 187 84 l 1
 121 144 61 236 61 357 c 0
 61 567 248 739 480 739 c 0
478 11 m 0
 654 11 797 168 797 359 c 0
 797 454 762 531 718 586 c 1
 265 101 l 1
 313 55 386 11 478 11 c 0
478 702 m 0
 318 702 163 565 163 359 c 0
 163 286 182 206 236 135 c 1
 687 618 l 1
 631 667 562 702 478 702 c 0
EndSplineSet
EndChar
StartChar: Thorn
Encoding: 222 222 159
Width: 700
VWidth: 1533
Flags: W
HStem: 0 21G<95 178> 167 38<178 451.117> 489 37<178 239.493 239.493 451.551>
VStem: 95 83<0 167 205 489 526 656> 552 106<279.865 417.409>
Fore
302 527 m 0
 421 527 658 512 658 353 c 0
 658 188 432 167 307 167 c 2
 178 167 l 1
 178 0 l 1
 95 0 l 1
 95 656 l 1
 176 656 l 1
 176 526 l 1
 214 526 247 527 302 527 c 0
552 353 m 0
 552 472 391 489 273 489 c 2
 178 489 l 1
 178 205 l 1
 268 205 l 2
 442 205 552 234 552 353 c 0
EndSplineSet
EndChar
StartChar: uni00DF
Encoding: 223 223 160
Width: 696
VWidth: 1533
Flags: W
HStem: -18 35<347.914 481.698> 417 30<324.005 363.746 363.746 437.954> 776 35<241.18 420.077>
VStem: 77 81<0 659.408> 486 101<528.622 703.968> 547 109<116.805 299.304>
Fore
330 776 m 0xf8
 227 776 158 716 158 535 c 2
 158 0 l 1
 77 0 l 1
 77 532 l 2
 77 747 214 811 330 811 c 0
 435 811 587 772 587 615 c 0xf8
 587 575 579 473 419 435 c 1
 534 435 656 343 656 204 c 0
 656 92 554 -18 414 -18 c 0
 312 -18 269 6 244 26 c 1
 282 101 l 1
 300 66 363 17 417 17 c 0
 513 17 547 127 547 210 c 0xf4
 547 285 515 417 385 417 c 2
 352 417 l 2
 344 417 334 416 322 414 c 1
 322 451 l 1
 333 448 339 447 346 447 c 0
 354 447 363 448 382 448 c 0
 444 448 486 508 486 607 c 0
 486 742 409 776 330 776 c 0xf8
EndSplineSet
EndChar
StartChar: ae
Encoding: 230 230 167
Width: 1036
VWidth: 1533
Flags: W
HStem: -15 38<177.989 347.208 665.823 818.23> 294 37<206.987 448> 333 38<550 894> 509 41<212.786 386.041 627.451 806.209>
VStem: 31 90<73.9544 204.676> 448 84<147.045 293.876> 915 83<118.787 216>
Fore
742 21 m 0
 857 21 901 134 915 216 c 1
 998 216 l 1
 969 83 887 -17 731 -17 c 0
 686 -17 540 -4 475 126 c 1
 422 19 363 -15 228 -15 c 0
 120 -15 31 34 31 150 c 0
 31 198 46 234 78 259 c 0
 164 328 292 331 415 331 c 0
 448 331 l 1
 448 353 l 2
 448 457 396 509 291 509 c 0
 226 509 146 466 146 386 c 1
 60 386 l 1
 72 439 106 550 291 550 c 0
 388 550 474 517 503 440 c 1
 545 501 623 550 718 550 c 0
 883 550 957 474 987 333 c 1
 540 333 l 1
 532 284 532 276 532 262 c 0
 532 117 616 21 742 21 c 0
894 371 m 1
 872 440 824 511 718 511 c 0
 671 511 589 506 550 371 c 1
 894 371 l 1
258 23 m 0
 410 23 448 150 448 244 c 2
 448 294 l 1
 350 294 l 2
 229 294 175 268 142 224 c 0
 128 206 121 181 121 150 c 0
 121 48 197 23 258 23 c 0
EndSplineSet
EndChar
StartChar: eth
Encoding: 240 240 177
Width: 650
VWidth: 1533
Flags: W
HStem: -14 32<226.273 428.401> 507 33<222.086 400.56>
VStem: 29 81<154.939 374.759> 541 78<152.302 373.803>
Fore
359 701 m 1
 473 617 619 412 619 264 c 0
 619 86 478 -14 324 -14 c 256
 157 -14 29 96 29 262 c 0
 29 441 170 540 325 540 c 0
 374 540 419 531 458 512 c 1
 418 577 369 632 311 678 c 1
 124 589 l 1
 106 629 l 1
 270 707 l 1
 240 728 199 752 104 788 c 1
 118 829 l 1
 189 805 256 772 319 730 c 1
 454 796 l 1
 474 756 l 1
 359 701 l 1
327 18 m 256
 476 18 541 119 541 262 c 256
 541 407 475 507 325 507 c 256
 153 507 110 376 110 264 c 256
 110 122 177 18 327 18 c 256
EndSplineSet
EndChar
StartChar: divide
Encoding: 247 247 184
Width: 657
VWidth: 1533
Flags: W
HStem: 0 127<280.63 375.37> 262 57<44 613> 455 125<280.594 375.37>
VStem: 265 126<15.6302 110.953 470.63 564.859>
Fore
613 319 m 1
 613 262 l 1
 44 262 l 1
 44 319 l 1
 613 319 l 1
328 455 m 256
 291 455 265 484 265 518 c 256
 265 555 295 580 328 580 c 256
 361 580 391 555 391 518 c 256
 391 481 362 455 328 455 c 256
328 0 m 256
 291 0 265 29 265 63 c 256
 265 100 294 127 328 127 c 256
 362 127 391 100 391 63 c 256
 391 26 362 0 328 0 c 256
EndSplineSet
EndChar
StartChar: oslash
Encoding: 248 248 185
Width: 746
VWidth: 1533
Flags: W
HStem: -12 37<285.127 468.631> 566 35<288.588 446.135>
VStem: 37 95<188.222 401.403> 626 96<189.317 402.265>
Fore
379 25 m 256
 505 25 626 140 626 296 c 0
 626 359 608 414 573 460 c 1
 209 101 l 1
 247 63 304 25 379 25 c 256
379 566 m 256
 255 566 132 454 132 296 c 0
 132 230 153 174 184 130 c 1
 549 492 l 1
 476 565 400 566 379 566 c 256
380 -12 m 0
 293 -12 220 18 166 55 c 1
 55 -52 l 1
 0 -52 l 1
 133 81 l 1
 76 135 37 209 37 294 c 0
 37 475 199 601 380 601 c 0
 466 601 539 571 593 534 c 1
 690 630 l 1
 747 630 l 1
 624 509 l 1
 675 463 722 389 722 294 c 0
 722 130 572 -12 380 -12 c 0
EndSplineSet
EndChar
StartChar: thorn
Encoding: 254 254 191
Width: 714
VWidth: 1533
Flags: W
HStem: 0 21G<69 152> 184 35<152 447.043> 538 34<152 440.08> 696 20G<69 150>
VStem: 69 83<0 184 219 538 572 716> 567 109<304.81 453.708>
Fore
256 572 m 2
 587 572 676 497 676 385 c 0
 676 224 495 184 253 184 c 2
 152 184 l 1
 152 0 l 1
 69 0 l 1
 69 716 l 1
 150 716 l 1
 150 572 l 1
 256 572 l 2
255 219 m 2
 510 219 567 286 567 386 c 0
 567 447 527 538 259 538 c 2
 152 538 l 1
 152 219 l 1
 255 219 l 2
EndSplineSet
EndChar
StartChar: Lslash
Encoding: 321 321 193
Width: 657
VWidth: 1533
Flags: W
HStem: 0 37<199 644> 696 20G<115 199>
VStem: 115 84<37 351 373 388 410 716>
Back
399 497 m 1
 399 475 l 1
 29 314 l 1
 29 336 l 1
 399 497 l 1
115 0 m 1
 115 716 l 1
 199 716 l 1
 199 37 l 1
 644 37 l 1
 644 0 l 1
 115 0 l 1
EndSplineSet
Fore
399 497 m 1
 399 475 l 1
 199 388 l 1
 199 37 l 1
 644 37 l 1
 644 0 l 1
 115 0 l 1
 115 351 l 1
 29 314 l 1
 29 336 l 1
 115 373 l 1
 115 716 l 1
 199 716 l 1
 199 410 l 1
 399 497 l 1
EndSplineSet
EndChar
StartChar: lslash
Encoding: 322 322 194
Width: 280
VWidth: 1533
Flags: W
HStem: 0 21G<103 186> 696 20G<103 186>
VStem: 38 218<397 512 843 857> 103 83<0 425 446 460 483 716>
Fore
103 0 m 1xd0
 103 425 l 1xd0
 38 397 l 1
 38 420 l 1xe0
 103 446 l 1
 103 716 l 1
 186 716 l 1
 186 483 l 1xd0
 256 512 l 1
 256 492 l 1xe0
 186 460 l 1
 186 0 l 1
 103 0 l 1xd0
EndSplineSet
EndChar
StartChar: OE
Encoding: 338 338 195
Width: 1278
VWidth: 1533
Flags: W
HStem: -26 29<308.12 536.147> 0 37<806 1265> 366 37<806 1154> 678 38<806 1265> 710 29<312.467 538.897>
VStem: 29 101<226.274 483.549> 724 82<37 103 232.353 366 403 479.514 612 678>
Fore
425 739 m 0xae
 555 739 659 685 724 612 c 1
 724 716 l 1
 1265 716 l 1
 1265 678 l 1
 806 678 l 1
 806 403 l 1
 1154 403 l 1
 1154 366 l 1
 806 366 l 1
 806 37 l 1
 1265 37 l 1
 1265 0 l 1
 724 0 l 1x76
 724 103 l 1
 658 28 555 -26 423 -26 c 0
 209 -26 29 127 29 356 c 256
 29 584 217 739 425 739 c 0xae
423 3 m 256xae
 629 3 718 174 718 357 c 0
 718 499 659 710 425 710 c 0
 219 710 130 542 130 356 c 256
 130 214 189 3 423 3 c 256xae
EndSplineSet
EndChar
StartChar: oe
Encoding: 339 339 196
Width: 1042
VWidth: 1533
Flags: W
HStem: -15 38<204.466 362.127 697.602 841.097> 333 38<583 923> 509 38<213.17 375.718 667.048 830.991>
VStem: 20 80<152.062 380.771> 489 77<149.575 329.85> 934 69<119.864 190>
Fore
526 425 m 1
 568 495 648 550 751 550 c 0
 921 550 999 434 1007 333 c 1
 570 333 l 1
 566 323 566 298 566 262 c 0
 566 144 629 21 764 21 c 0
 846 21 925 91 934 190 c 1
 1003 190 l 1
 998 66 884 -17 764 -17 c 0
 720 -17 603 -8 527 112 c 1
 461 -6 337 -15 293 -15 c 0
 122 -15 20 115 20 265 c 256
 20 430 129 547 293 547 c 0
 392 547 476 502 526 425 c 1
923 371 m 1
 906 432 853 514 747 514 c 0
 649 514 597 435 583 371 c 1
 923 371 l 1
294 23 m 0
 450 23 489 154 489 265 c 256
 489 379 450 509 293 509 c 256
 139 509 100 379 100 267 c 256
 100 136 154 23 294 23 c 0
EndSplineSet
EndChar
StartChar: florin
Encoding: 402 402 202
Width: 716
VWidth: 1533
Flags: W
HStem: -222 33<89.7526 205.154> 468 27<253 347 428 527> 751 39<507.528 611.947>
Fore
94 -146 m 1
 124 -179 140 -189 172 -189 c 0
 234 -189 275 -108 285 -20 c 2
 347 468 l 1
 245 468 l 1
 253 495 l 1
 350 495 l 1
 351 521 l 2
 364 642 443 790 604 790 c 0
 631 790 681 753 696 730 c 1
 618 695 l 1
 611 716 576 751 555 751 c 0
 487 751 451 685 442 599 c 2
 428 495 l 1
 534 495 l 1
 527 468 l 1
 423 468 l 1
 370 28 l 2
 346 -136 231 -222 95 -222 c 0
 64 -222 31 -194 18 -163 c 1
 94 -146 l 1
EndSplineSet
EndChar
StartChar: circumflex
Encoding: 710 710 203
Width: 364
VWidth: 1533
Flags: W
HStem: 679 186<150 319 150 150>
VStem: 15 335<679 679 679 679>
Fore
319 679 m 1
 182 800 l 1
 48 679 l 1
 15 679 l 1
 150 865 l 1
 216 865 l 1
 350 679 l 1
 319 679 l 1
EndSplineSet
EndChar
StartChar: caron
Encoding: 711 711 204
Width: 343
VWidth: 1533
Flags: W
HStem: 642 186<2 202 2 2>
VStem: 2 335<828 828 828 828>
Fore
202 642 m 1
 136 642 l 1
 2 828 l 1
 34 828 l 1
 169 707 l 1
 307 828 l 1
 337 828 l 1
 202 642 l 1
EndSplineSet
EndChar
StartChar: breve
Encoding: 728 728 205
Width: 309
VWidth: 1533
Flags: W
HStem: 641 63<73.7032 231.766>
VStem: -3 313<733 817 817 817 817 817>
Fore
153 704 m 256
 196 704 263 711 282 817 c 1
 310 817 l 1
 306 722 252 641 153 641 c 0
 45 641 0 733 -3 817 c 1
 21 817 l 1
 38 738 80 704 153 704 c 256
EndSplineSet
EndChar
StartChar: dotaccent
Encoding: 729 729 206
Width: 280
VWidth: 1533
Flags: W
HStem: 642 111<97.5279 183.559>
VStem: 85 111<654.347 741.241>
Fore
85 699 m 0
 85 726 108 753 140 753 c 256
 173 753 196 726 196 696 c 0
 196 668 172 642 140 642 c 256
 107 642 85 671 85 699 c 0
EndSplineSet
EndChar
StartChar: ring
Encoding: 730 730 207
Width: 280
VWidth: 1533
Flags: W
HStem: 644 37<88.8308 192.397> 828 37<89.2607 192.368>
VStem: 31 36<702.683 806.304> 213 37<702.245 806.507>
Fore
31 754 m 256
 31 818 83 865 141 865 c 0
 206 865 250 813 250 754 c 256
 250 690 201 644 141 644 c 0
 83 644 31 690 31 754 c 256
213 754 m 256
 213 797 181 828 141 828 c 256
 97 828 67 793 67 754 c 256
 67 715 98 681 141 681 c 256
 184 681 213 716 213 754 c 256
EndSplineSet
EndChar
StartChar: ogonek
Encoding: 731 731 208
Width: 280
VWidth: 1533
Flags: W
HStem: -239 38<90.6688 194.391> 11 4<143.354 242>
VStem: 3 75<-189.192 -88.8285>
Fore
100 -239 m 0
 38 -239 3 -199 3 -147 c 0
 3 -53 140 -9 242 15 c 1
 245 11 l 1
 210 -2 78 -49 78 -138 c 0
 78 -168 91 -201 141 -201 c 0
 186 -201 251 -153 251 -153 c 1
 264 -176 l 1
 232 -201 169 -239 100 -239 c 0
EndSplineSet
EndChar
StartChar: tilde
Encoding: 732 732 209
Width: 360
VWidth: 1533
Flags: W
HStem: 681 118<336 337 0 360 336 336> 681 56<208.727 309.621> 736 55<49.5508 151.194>
Fore
92 736 m 0x20
 52 736 33 701 26 681 c 1
 0 681 l 1x80
 9 724 40 791 112 791 c 0x20
 171 791 231 737 270 737 c 0x40
 310 737 329 780 336 799 c 1
 360 799 l 1
 356 776 337 681 245 681 c 0x80
 173 681 147 736 92 736 c 0x20
EndSplineSet
EndChar
StartChar: hungarumlaut
Encoding: 733 733 210
Width: 280
VWidth: 1533
Flags: W
HStem: 650 193<121 153 2 133 285 285>
VStem: -31 353<652 808 369 500>
Fore
133 843 m 0
 153 843 170 829 170 808 c 0
 170 790 151 776 132 759 c 2
 2 650 l 1
 -31 652 l 1
 100 826 l 2
 109 837 120 843 133 843 c 0
285 843 m 0
 305 843 322 829 322 808 c 0
 322 790 303 776 284 759 c 2
 153 650 l 1
 121 650 l 1
 251 826 l 2
 260 837 272 843 285 843 c 0
EndSplineSet
EndChar
StartChar: uni0E01
Encoding: 3585 3585 212
Width: 717
VWidth: 1533
Flags: W
HStem: 0 21G<92 169 549 626> 593 31<247.964 452.637>
VStem: 92 77<0 297.809> 549 77<0 505.21>
Fore
350 624 m 0
 461 624 626 581 626 411 c 2
 626 0 l 1
 549 0 l 1
 549 422 l 2
 549 529 461 593 350 593 c 0
 215 593 144 501 138 417 c 1
 238 417 l 1
 238 386 l 1
 175 355 169 292 169 262 c 2
 169 0 l 1
 92 0 l 1
 92 247 l 2
 92 305 115 370 193 391 c 1
 58 391 l 1
 71 547 200 624 350 624 c 0
EndSplineSet
EndChar
StartChar: uni0E02
Encoding: 3586 3586 213
Width: 714
VWidth: 1533
Flags: W
HStem: 0 38<235 546> 293 38<99.8779 213.631> 506 38<113.186 213.136> 590 34<150.402 279.446>
VStem: 15 54<362.457 474.626> 158 77<38 210> 244 38<362.256 475.276> 351 68<344.131 513.789> 546 76<38 613>
Fore
419 435 m 0
 419 309 313 235 235 210 c 1
 235 38 l 1
 546 38 l 1
 546 613 l 1
 622 613 l 1
 622 0 l 1
 158 0 l 1
 158 221 l 1
 343 281 351 380 351 425 c 0
 351 507 300 590 205 590 c 0
 180 590 111 582 87 523 c 1
 108 537 131 544 156 544 c 0
 229 544 282 487 282 419 c 256
 282 345 225 293 156 293 c 0
 59 293 15 373 15 448 c 0
 15 558 119 624 219 624 c 0
 328 624 419 543 419 435 c 0
156 331 m 256
 206 331 244 372 244 419 c 256
 244 465 206 506 156 506 c 256
 106 506 69 464 69 419 c 256
 69 368 110 331 156 331 c 256
EndSplineSet
EndChar
StartChar: uni0E03
Encoding: 3587 3587 214
Width: 745
VWidth: 1533
Flags: W
HStem: 0 38<265 576> 287 38<99.2856 213.339> 500 38<113.21 212.744> 590 34<121.308 241.866 270.358 366.336>
VStem: 15 54<356.368 468.261> 189 76<38 210> 244 38<355.724 469.631> 402 69<367.393 549.316> 576 77<38 613>
Fore
471 457 m 0xfb80
 471 358 392 255 265 210 c 1
 265 38 l 1
 576 38 l 1
 576 613 l 1
 653 613 l 1
 653 0 l 1
 189 0 l 1
 189 221 l 1xfd80
 388 297 402 400 402 455 c 0
 402 500 386 590 320 590 c 0
 295 590 277 579 258 555 c 1
 240 576 219 590 179 590 c 0
 138 590 96 557 87 517 c 1
 108 531 131 538 156 538 c 0
 230 538 282 481 282 412 c 256
 282 344 229 287 156 287 c 0
 59 287 15 367 15 442 c 0
 15 528 71 624 175 624 c 0
 212 624 238 611 256 587 c 1
 273 611 306 624 333 624 c 0
 443 624 471 523 471 457 c 0xfb80
156 325 m 256
 207 325 244 366 244 412 c 256xfb80
 244 462 203 500 156 500 c 256
 110 500 69 462 69 412 c 256
 69 362 111 325 156 325 c 256
EndSplineSet
EndChar
StartChar: uni0E04
Encoding: 3588 3588 215
Width: 758
VWidth: 1533
Flags: W
HStem: 0 21G<95 178.063 590 667> 212 38<317.164 430.186> 425 38<318.419 430.326> 593 31<275.937 477.525>
VStem: 77 78<140.365 482.796> 98 69<98.3278 391.521> 461 39<280.396 395.274> 590 77<0 494.279>
Fore
379 624 m 0xfb
 508 624 667 566 667 412 c 2
 667 0 l 1
 590 0 l 1
 590 422 l 2
 590 536 469 593 379 593 c 0
 271 593 155 526 155 399 c 0xfb
 155 278 168 254 168 158 c 0
 168 144 168 131 167 117 c 1
 241 353 l 2
 257 402 294 463 374 463 c 0
 448 463 500 408 500 337 c 0
 500 264 441 212 374 212 c 0
 323 212 276 245 259 287 c 1
 172 0 l 1
 95 0 l 1
 97 55 l 2
 97 67 98 79 98 91 c 0xf7
 98 213 77 259 77 396 c 0
 77 557 250 624 379 624 c 0xfb
374 250 m 256
 424 250 461 292 461 337 c 256
 461 388 420 425 374 425 c 256
 328 425 287 387 287 337 c 256
 287 287 329 250 374 250 c 256
EndSplineSet
EndChar
StartChar: uni0E05
Encoding: 3589 3589 216
Width: 758
VWidth: 1533
Flags: W
HStem: 0 21G<95 178.063 590 667> 212 38<317.164 430.406> 425 38<318.332 430.326> 587 39<216.266 344.887 422.349 546.955>
VStem: 72 78<160.903 505.485> 98 74<214.633 308.606> 461 39<280.614 395.274> 590 77<0 537.915>
Fore
172 130 m 1xf7
 200 223 227 463 374 463 c 0
 448 463 500 408 500 337 c 0
 500 265 442 212 374 212 c 0
 323 212 276 245 259 287 c 1
 172 0 l 1
 95 0 l 1
 98 22 98 45 98 69 c 0xf7
 98 206 72 263 72 400 c 0
 72 508 134 626 262 626 c 0
 320 626 363 607 383 566 c 1
 409 602 445 626 506 626 c 0
 609 626 667 557 667 460 c 2
 667 0 l 1
 590 0 l 1
 590 448 l 2
 590 519 561 587 484 587 c 0
 439 587 407 560 391 527 c 1
 374 527 l 1
 361 560 326 587 284 587 c 0
 186 587 150 488 150 403 c 0xfb
 150 294 167 253 172 130 c 1xf7
374 250 m 256
 424 250 461 292 461 337 c 256
 461 388 420 425 374 425 c 256
 328 425 287 387 287 337 c 256
 287 287 329 250 374 250 c 256
EndSplineSet
EndChar
StartChar: uni0E06
Encoding: 3590 3590 217
Width: 821
VWidth: 1533
Flags: W
HStem: -8 42<156.113 268.676> 218 43<162.567 273.195> 287 38<99.2856 213.339> 500 38<113.21 212.744> 590 34<121.308 241.866 270.602 372.88>
VStem: 15 54<356.368 468.261> 83 43<63.6264 183.542> 244 38<355.724 469.631> 293 77<59.2578 184 248 321.321> 402 69<415.249 559.102> 653 77<46 613>
Fore
471 488 m 0
 471 373 370 403 370 227 c 1
 653 46 l 1
 653 613 l 1
 730 613 l 1
 730 0 l 1
 653 0 l 1
 370 184 l 1
 370 55 341 -8 224 -8 c 0
 153 -8 83 36 83 126 c 0
 83 210 170 261 239 261 c 0
 258 261 276 257 293 248 c 1
 293 361 402 370 402 486 c 0
 402 521 387 590 320 590 c 0
 295 590 277 579 258 555 c 1
 240 576 219 590 179 590 c 0
 138 590 96 557 87 517 c 1
 108 531 131 538 156 538 c 0
 230 538 282 481 282 412 c 256
 282 344 229 287 156 287 c 0
 59 287 15 367 15 442 c 0
 15 528 71 624 175 624 c 0
 212 624 238 611 256 587 c 1
 274 613 306 624 339 624 c 0
 422 624 471 571 471 488 c 0
156 325 m 256
 207 325 244 366 244 412 c 256
 244 462 203 500 156 500 c 256
 110 500 69 462 69 412 c 256
 69 362 111 325 156 325 c 256
216 34 m 256
 278 34 293 92 293 127 c 2
 293 210 l 1
 276 217 261 218 233 218 c 0
 188 218 126 193 126 126 c 0
 126 73 162 34 216 34 c 256
EndSplineSet
EndChar
StartChar: uni0E07
Encoding: 3591 3591 218
Width: 625
VWidth: 1533
Flags: W
HStem: 0 38<297 455> 371 38<318.3 430.414> 583 41<316.699 430.209>
VStem: 250 38<439.81 553.023> 455 77<38 399 438.842 552.744>
Fore
382 624 m 0
 482 624 532 557 532 468 c 2
 532 0 l 1
 270 0 l 1
 229 112 95 320 0 366 c 1
 67 414 l 1
 159 358 271 154 297 38 c 1
 455 38 l 1
 455 399 l 1
 435 380 408 371 374 371 c 0
 301 371 250 430 250 497 c 0
 250 574 310 624 382 624 c 0
374 409 m 256
 420 409 461 447 461 497 c 256
 461 547 419 583 374 583 c 256
 324 583 288 542 288 497 c 256
 288 447 328 409 374 409 c 256
EndSplineSet
EndChar
StartChar: uni0E08
Encoding: 3592 3592 219
Width: 650
VWidth: 1533
Flags: W
HStem: 0 21G<472.548 558> 156 39<206.518 319.851> 370 38<207.547 319.901> 593 29<208.286 411.552>
VStem: 0 84<394 464.579> 136 40<225.674 338.977> 489 69<104 242.148> 512 77<160.168 493.137>
Fore
310 622 m 0xfd
 432 622 589 576 589 391 c 0xfd
 589 226 558 165 558 0 c 1
 481 0 l 1
 380 239 l 1
 365 192 317 156 262 156 c 0
 192 156 136 208 136 282 c 256
 136 358 194 408 262 408 c 0
 309 408 360 391 391 317 c 2
 491 83 l 1
 489 104 l 2xfe
 489 260 512 275 512 415 c 0
 512 524 425 593 310 593 c 0
 191 593 84 513 84 394 c 1
 0 394 l 1
 21 543 158 622 310 622 c 0xfd
264 195 m 256
 314 195 351 237 351 282 c 256
 351 327 314 370 264 370 c 256
 213 370 176 328 176 282 c 256
 176 236 214 195 264 195 c 256
EndSplineSet
EndChar
StartChar: uni0E09
Encoding: 3593 3593 220
Width: 788
VWidth: 1533
Flags: W
HStem: -12 32<543.844 660.92> 156 39<82.9692 196.314> 368 41<82.6435 197.293> 593 31<261.796 508.807>
VStem: 15 39<224.827 338.867> 58 78<449.645 519.357> 221 81<66 145.695 145.695 184 185.204 329.718> 471 35<56.6327 156.483> 618 77<285 502.243> 699 37<56.9848 175.745>
Fore
622 250 m 1
 687 240 736 188 736 120 c 0
 736 47 677 -12 604 -12 c 0
 524 -12 471 51 471 121 c 0
 471 135 474 150 478 164 c 1
 413 118 349 61 299 0 c 1
 221 0 l 1
 221 184 l 1
 201 167 173 156 140 156 c 0
 66 156 15 214 15 282 c 0
 15 362 77 409 147 409 c 0
 195 409 230 397 252 373 c 0
 273 350 302 306 302 205 c 0
 302 178 297 122 297 66 c 1
 400 177 521 247 618 285 c 1
 618 422 l 2
 618 559 481 593 383 593 c 0
 287 593 158 554 136 437 c 1
 58 437 l 1
 81 577 246 624 383 624 c 0
 531 624 695 581 695 409 c 2
 695 278 l 1
 667 272 644 262 622 250 c 1
603 20 m 0
 652 20 699 63 699 117 c 256
 699 169 654 213 603 213 c 0
 549 213 506 166 506 117 c 256
 506 63 552 20 603 20 c 0
140 195 m 256
 190 195 227 237 227 282 c 256
 227 332 185 368 140 368 c 256
 90 368 54 328 54 282 c 0
 54 236 89 195 140 195 c 256
EndSplineSet
EndChar
StartChar: uni0E0A
Encoding: 3594 3594 221
Width: 714
VWidth: 1533
Flags: W
HStem: 0 38<235 546> 293 38<99.8779 213.631> 506 38<113.186 213.136> 590 34<150.402 279.446>
VStem: 15 54<362.457 474.626> 158 77<38 210> 244 38<362.256 475.276> 351 68<344.131 513.789> 546 76<38 438.889>
Fore
466 488 m 1
 515 513 548 562 557 613 c 1
 650 613 l 1
 647 567 574 509 529 488 c 1
 558 476 622 444 622 379 c 2
 622 0 l 1
 158 0 l 1
 158 221 l 1
 343 281 351 380 351 425 c 0
 351 507 300 590 205 590 c 0
 180 590 111 582 87 523 c 1
 108 537 131 544 156 544 c 0
 229 544 282 487 282 419 c 256
 282 345 225 293 156 293 c 0
 59 293 15 373 15 448 c 0
 15 558 119 624 219 624 c 0
 328 624 419 543 419 435 c 0
 419 309 313 235 235 210 c 1
 235 38 l 1
 546 38 l 1
 546 377 l 2
 546 420 533 458 466 488 c 1
156 331 m 256
 206 331 244 372 244 419 c 256
 244 465 206 506 156 506 c 256
 106 506 69 464 69 419 c 256
 69 368 110 331 156 331 c 256
EndSplineSet
EndChar
StartChar: uni0E0B
Encoding: 3595 3595 222
Width: 745
VWidth: 1533
Flags: W
HStem: 0 38<265 576> 287 38<99.2856 213.339> 500 38<113.21 212.744> 590 34<121.308 241.866 270.358 366.336>
VStem: 15 54<356.368 468.261> 189 76<38 210> 244 38<355.724 469.631> 402 69<367.393 549.316> 576 77<38 437.532>
Fore
497 488 m 1xfd80
 543 512 579 559 587 613 c 1
 681 613 l 1
 675 558 589 502 560 488 c 1
 589 476 653 444 653 379 c 2
 653 0 l 1
 189 0 l 1
 189 221 l 1xfd80
 388 297 402 400 402 455 c 0
 402 500 386 590 320 590 c 0
 295 590 277 579 258 555 c 1
 240 576 219 590 179 590 c 0
 138 590 96 557 87 517 c 1
 108 531 131 538 156 538 c 0
 230 538 282 481 282 412 c 256xfb80
 282 344 229 287 156 287 c 0
 59 287 15 367 15 442 c 0
 15 528 71 624 175 624 c 0
 212 624 238 611 256 587 c 1
 273 611 306 624 333 624 c 0
 443 624 471 523 471 457 c 0
 471 358 392 255 265 210 c 1
 265 38 l 1
 576 38 l 1
 576 377 l 2
 576 424 561 459 497 488 c 1xfd80
156 325 m 256
 207 325 244 366 244 412 c 256xfb80
 244 462 203 500 156 500 c 256
 110 500 69 462 69 412 c 256
 69 362 111 325 156 325 c 256
EndSplineSet
EndChar
StartChar: uni0E0C
Encoding: 3596 3596 223
Width: 1068
VWidth: 1533
Flags: W
HStem: -8 42<201.654 298.766 553.736 667.421> 207 38<193.573 305.279> 593 31<247.964 458.795>
VStem: 92 77<62.295 177.287 218 332.309> 336 38<62.8092 176.886> 484 39<58.3734 171.586> 549 77<270 328.546 328.546 385.875> 698 38<59.3039 151.053> 900 77<66 613>
Fore
58 391 m 1
 71 547 200 624 350 624 c 0
 523 624 605 568 620 420 c 0
 624 376 626 326 626 270 c 1
 729 219 822 144 900 66 c 1
 900 613 l 1
 977 613 l 1
 977 0 l 1
 898 0 l 1
 852 58 791 112 730 156 c 1
 734 144 736 130 736 115 c 0
 736 44 679 -11 610 -11 c 256
 539 -11 484 46 484 115 c 0
 484 191 547 232 596 241 c 1
 549 268 l 1
 549 309 549 350 548 389 c 0
 545 555 461 593 350 593 c 0
 215 593 144 501 138 417 c 1
 238 417 l 1
 238 386 l 1
 172 355 169 298 169 238 c 2
 169 218 l 1
 178 226 201 245 250 245 c 0
 322 245 374 188 374 120 c 0
 374 40 313 -8 242 -8 c 0
 142 -8 92 60 92 149 c 2
 92 247 l 2
 92 305 115 370 193 391 c 1
 58 391 l 1
610 28 m 256
 655 28 698 65 698 115 c 256
 698 165 655 202 610 202 c 256
 560 202 523 160 523 115 c 256
 523 65 565 28 610 28 c 256
250 34 m 256
 296 34 336 69 336 120 c 256
 336 169 295 207 250 207 c 256
 200 207 163 165 163 120 c 256
 163 69 204 34 250 34 c 256
EndSplineSet
EndChar
StartChar: uni0E0D
Encoding: 3597 3597 224
Width: 1068
VWidth: 1533
Flags: W
HStem: -279 49<609.683 765.305> -279 34<730 803.703> -71 40<605.461 715.717> -8 42<193.592 307.045> 0 38<626 900> 207 38<193.573 305.279> 593 31<247.964 453.564>
VStem: 92 77<62.295 177.287 218 331.818> 336 38<62.8092 176.886> 543 38<-204.032 -96.3913> 549 77<38 504.914> 741 38<-205.582 -95.5466> 900 77<-122.584 -49 38 613>
Fore
350 624 m 0x37b8
 493 624 626 567 626 411 c 2
 626 38 l 1
 900 38 l 1
 900 613 l 1
 977 613 l 1
 977 0 l 1
 549 0 l 1x2fb8
 549 422 l 2
 549 529 461 593 350 593 c 0
 215 593 144 501 138 417 c 1
 238 417 l 1
 238 386 l 1
 172 355 169 297 169 236 c 2
 169 218 l 1
 178 226 201 245 250 245 c 0
 322 245 374 188 374 120 c 0
 374 40 313 -8 242 -8 c 0
 142 -8 92 60 92 149 c 2
 92 247 l 2
 92 305 115 370 193 391 c 1
 58 391 l 1
 71 547 200 624 350 624 c 0x37b8
730 -245 m 1x67d8
 837 -242 900 -140 900 -49 c 1
 974 -49 l 1
 966 -190 834 -279 713 -279 c 0xa7d8
 641 -279 543 -253 543 -149 c 0
 543 -82 596 -31 661 -31 c 256
 728 -31 779 -84 779 -149 c 0
 779 -189 754 -225 730 -245 c 1x67d8
661 -230 m 256
 708 -230 741 -194 741 -150 c 256
 741 -107 708 -71 661 -71 c 256
 614 -71 581 -107 581 -150 c 256
 581 -197 617 -230 661 -230 c 256
250 34 m 256x3798
 296 34 336 69 336 120 c 256
 336 169 295 207 250 207 c 256
 200 207 163 165 163 120 c 256
 163 69 204 34 250 34 c 256x3798
EndSplineSet
Substitution2: "Single Substitution lookup 22 subtable" uni0E0D.alt1
Substitution2: "Single Substitution lookup 22 subtable" uni0E0D.alt1
EndChar
StartChar: uni0E0E
Encoding: 3598 3598 225
Width: 846
VWidth: 1533
Flags: W
HStem: -250 40<202.579 369.967> -89 37<563.807 627.199> -83 39<234.667 421.875> -8 42<82.2568 198.037> 207 38<83.9602 196.995> 593 31<377.147 579.92>
VStem: 15 39<63.2273 176.869> 115 69<-189.73 -108.259> 227 67<62.6828 170.73 165.31 176.15 218 342.737> 678 76<-193 503.617>
Fore
478 624 m 0xdfc0
 601 624 754 581 754 411 c 2
 754 -245 l 1
 678 -245 l 1
 626 -207 574 -172 514 -143 c 1
 427 -199 384 -250 278 -250 c 0
 217 -250 115 -227 115 -152 c 0
 115 -87 187 -44 293 -44 c 0xbfc0
 381 -44 473 -79 514 -97 c 1
 553 -74 594 -59 636 -52 c 1
 636 -89 l 1
 587 -101 571 -108 557 -117 c 1
 579 -128 600 -140 620 -152 c 2
 678 -193 l 1
 678 422 l 2
 678 525 596 593 478 593 c 0
 343 593 273 500 267 417 c 1
 366 417 l 1
 366 386 l 1
 316 367 294 328 294 203 c 0
 294 178 295 163 295 153 c 0
 295 9 214 -8 147 -8 c 0
 76 -8 15 41 15 120 c 0
 15 188 67 245 140 245 c 0
 189 245 212 226 221 218 c 1
 221 316 225 368 328 391 c 1
 187 391 l 1
 204 595 400 624 478 624 c 0xdfc0
140 34 m 0
 186 34 227 69 227 120 c 256
 227 170 185 207 140 207 c 256
 89 207 54 165 54 120 c 0
 54 70 93 34 140 34 c 0
184 -152 m 0
 184 -198 245 -210 282 -210 c 0
 319 -210 352 -200 382 -182 c 2
 471 -123 l 1
 405 -94 345 -83 291 -83 c 0
 260 -83 184 -94 184 -152 c 0
EndSplineSet
Substitution2: "Single Substitution lookup 22 subtable" uni0E0E.alt1
Substitution2: "Single Substitution lookup 22 subtable" uni0E0E.alt1
EndChar
StartChar: uni0E0F
Encoding: 3599 3599 226
Width: 846
VWidth: 1533
Flags: W
HStem: -259 40<147.207 257.326> -92 38<138.264 270.096> -8 42<82.2568 198.037> 207 38<83.9602 196.995> 593 31<377.147 580.687>
VStem: 15 39<63.2273 176.869> 61 54<-203.103 -115.787> 227 67<62.6828 170.73 165.31 176.15 218 342.737> 678 76<-193 503.617>
Fore
478 624 m 0
 591 624 754 581 754 411 c 2
 754 -245 l 1
 678 -245 l 1
 573 -147 l 1
 466 -253 l 1
 438 -215 401 -180 363 -152 c 1
 286 -229 256 -259 184 -259 c 0
 126 -259 61 -230 61 -161 c 256
 61 -101 118 -54 203 -54 c 0
 264 -54 319 -78 363 -104 c 1
 397 -81 427 -68 457 -61 c 1
 457 -98 l 1
 434 -105 413 -115 396 -126 c 1
 436 -159 458 -182 471 -198 c 1
 573 -97 l 1
 678 -193 l 1
 678 422 l 2
 678 525 596 593 478 593 c 0
 343 593 273 500 267 417 c 1
 366 417 l 1
 366 386 l 1
 316 367 294 328 294 203 c 0
 294 178 295 163 295 153 c 0
 295 9 214 -8 147 -8 c 0
 76 -8 15 41 15 120 c 0
 15 188 67 245 140 245 c 0
 189 245 212 226 221 218 c 1
 221 316 225 368 328 391 c 1
 187 391 l 1
 204 595 400 624 478 624 c 0
140 34 m 0
 186 34 227 69 227 120 c 256
 227 170 185 207 140 207 c 256
 89 207 54 165 54 120 c 0
 54 70 93 34 140 34 c 0
115 -161 m 0
 115 -208 165 -219 190 -219 c 0
 256 -219 292 -165 330 -132 c 1
 279 -98 234 -92 210 -92 c 0
 177 -92 115 -106 115 -161 c 0
EndSplineSet
Substitution2: "Single Substitution lookup 22 subtable" uni0E0F.alt1
Substitution2: "Single Substitution lookup 22 subtable" uni0E0F.alt1
EndChar
StartChar: uni0E10
Encoding: 3600 3600 227
Width: 640
VWidth: 1533
Flags: W
HStem: -262 37<349.103 452.13> -251 41<30.2824 109.51> -215 39<436.257 460.951> -124 43<31.8724 108.523> -69 38<422.976 493.639> 0 21G<441.783 530> 113 39<137.21 250.849> 327 38<137.522 251.2> 399 38<110 484> 500 47<373.526 477.005> 569 52<169.082 307.665>
VStem: -44 53<-200.402 -134.588> 15 95<437 498.789> 69 38<182.618 295.541> 213 35<-91.1261 -54> 356 41<-163.74 -82.1763> 457 73<69 248.25> 484 80<185.81 399> 497 90<566.672 613> 520 46<-163.507 -81.334>
Fore
484 399 m 1x1ff340
 15 399 l 1
 15 508 85 621 215 621 c 0
 322 621 357 547 429 547 c 0
 466 547 497 580 497 613 c 1
 587 613 l 1x1ffb20
 578 551 523 500 458 500 c 0
 370 500 323 569 244 569 c 0
 170 569 110 516 110 437 c 1
 564 437 l 1
 564 415 l 2x1ffb40
 564 284 530 136 530 16 c 2
 530 0 l 1
 454 0 l 1
 319 221 l 1
 309 161 260 113 195 113 c 0
 119 113 69 171 69 239 c 256
 69 313 124 365 195 365 c 0
 248 365 293 341 330 279 c 2
 457 69 l 1
 457 87 l 2x1ff780
 457 219 484 281 484 399 c 1x1ff340
458 -31 m 0
 519 -31 566 -73 566 -135 c 0
 566 -204 503 -262 431 -262 c 0xbff310
 370 -262 325 -239 294 -202 c 1
 288 -214 284 -222 250 -256 c 1
 209 -256 l 1
 198 -233 186 -212 172 -195 c 1
 144 -229 103 -251 57 -251 c 0x5ff310
 23 -251 -44 -234 -44 -167 c 0
 -44 -102 24 -81 60 -81 c 0
 80 -81 125 -84 175 -136 c 1
 190 -112 205 -83 213 -54 c 1
 248 -54 l 1
 240 -95 224 -131 199 -164 c 1
 208 -174 217 -184 235 -219 c 1
 258 -190 275 -158 285 -124 c 1
 300 -158 340 -225 422 -225 c 0
 430 -225 451 -221 461 -215 c 1xbff310
 418 -215 356 -189 356 -123 c 0
 356 -62 411 -31 458 -31 c 0
195 152 m 256
 245 152 282 194 282 239 c 256
 282 284 245 327 195 327 c 256
 144 327 107 285 107 239 c 0x1ff7
 107 193 145 152 195 152 c 256
458 -176 m 256x3ff310
 478 -176 520 -165 520 -123 c 256
 520 -80 477 -69 458 -69 c 256
 439 -69 397 -80 397 -123 c 256
 397 -165 438 -176 458 -176 c 256x3ff310
9 -167 m 0
 9 -204 54 -210 67 -210 c 0x5ff3
 89 -210 114 -205 152 -167 c 1
 128 -144 99 -124 64 -124 c 0
 47 -124 9 -137 9 -167 c 0
EndSplineSet
Substitution2: "Single Substitution lookup 22 subtable" uni0E10.alt1
Substitution2: "Single Substitution lookup 22 subtable" uni0E10.alt1
EndChar
StartChar: uni0E11
Encoding: 3601 3601 228
Width: 852
VWidth: 1533
Flags: W
HStem: 0 21G<235 326.232 684 760> 287 38<99.2856 213.339> 500 38<113.21 212.744> 590 34<121.308 241.866 271.525 373.231>
VStem: 15 54<356.368 468.261> 235 76<67 271.083> 244 38<355.724 469.631> 402 69<424.573 559.449> 684 76<0 75.5927 75.5927 505.121>
Fore
675 621 m 1xfd80
 709 621 760 606 760 547 c 2
 760 0 l 1
 684 0 l 1
 684 31 685 62 685 154 c 2
 685 387 l 2
 685 439 684 509 679 517 c 1
 661 526 l 1
 313 0 l 1
 235 0 l 1
 235 219 l 2xfd80
 235 282 310 302 376 391 c 0
 393 414 402 443 402 478 c 0
 402 527 386 590 320 590 c 0
 295 590 277 579 258 555 c 1
 240 576 219 590 179 590 c 0
 138 590 96 557 87 517 c 1
 108 531 131 538 156 538 c 0
 230 538 282 481 282 412 c 256xfb80
 282 344 229 287 156 287 c 0
 59 287 15 367 15 442 c 0
 15 528 71 624 175 624 c 0
 212 624 238 611 256 587 c 1
 275 613 310 624 342 624 c 0
 445 624 471 542 471 480 c 0
 471 396 413 369 336 292 c 0
 319 275 311 257 311 238 c 2
 311 67 l 1
 675 621 l 1xfd80
156 325 m 256
 207 325 244 366 244 412 c 256xfb80
 244 462 203 500 156 500 c 256
 110 500 69 462 69 412 c 256
 69 362 111 325 156 325 c 256
EndSplineSet
EndChar
StartChar: uni0E12
Encoding: 3602 3602 229
Width: 1094
VWidth: 1533
Flags: W
HStem: -11 39<580.39 693.834> 230 38<301.962 400.74> 443 38<301.799 415.685> 587 39<221.286 340.262 416.355 533.118>
VStem: 77 78<92.8689 504.677> 98 72<39.1434 68.5 53.8217 390.939> 233 38<298.742 411.818> 446 45<298.293 411.86> 511 38<58.821 171.672> 575 77<270 320.579 320.579 350.536 335.557 531.208> 724 38<59.3281 151.101> 926 77<66 613>
Fore
656 409 m 0xfbf0
 656 381 652 339 652 270 c 1
 755 219 848 144 926 66 c 1
 926 613 l 1
 1003 613 l 1
 1003 0 l 1
 925 0 l 1
 877 58 817 112 756 156 c 1
 760 144 762 130 762 115 c 0
 762 44 705 -11 636 -11 c 256
 564 -11 511 47 511 115 c 0
 511 191 573 233 622 241 c 1
 575 268 l 1
 575 293 581 342 581 391 c 0
 581 464 574 587 477 587 c 0
 441 587 412 571 383 527 c 1
 366 527 l 1
 354 561 327 587 284 587 c 0
 181 587 155 460 155 399 c 0xfbf0
 155 249 172 219 172 99 c 0
 172 79 171 58 170 38 c 1
 251 69 378 142 419 245 c 1
 398 235 378 230 359 230 c 0
 289 230 233 286 233 356 c 0
 233 428 291 481 359 481 c 0
 436 481 491 422 491 356 c 0
 491 201 337 62 172 0 c 1
 95 0 l 1
 98 23 98 50 98 75 c 0xf7f0
 98 208 77 263 77 396 c 0
 77 521 151 626 262 626 c 0
 330 626 360 592 376 566 c 1
 402 602 437 626 498 626 c 0
 593 626 656 572 656 409 c 0xfbf0
636 28 m 0
 687 28 724 69 724 115 c 256
 724 161 686 202 636 202 c 256
 586 202 549 160 549 115 c 256
 549 70 587 28 636 28 c 0
359 268 m 256
 405 268 446 306 446 356 c 256
 446 406 404 443 359 443 c 256
 314 443 271 406 271 356 c 256
 271 305 313 268 359 268 c 256
EndSplineSet
EndChar
StartChar: uni0E13
Encoding: 3603 3603 230
Width: 1068
VWidth: 1533
Flags: W
HStem: -12 32<825.17 942.92> -8 42<193.791 307.045> 207 38<193.573 305.279> 593 31<247.964 452.636>
VStem: 92 77<63.8411 177.287 218 332.875> 336 38<62.8092 176.886> 549 83<90 210.177 210.177 484.534> 753 37<56.2489 156.609> 900 77<285 613> 981 37<56.9848 175.525>
Fore
906 250 m 1x7fc0
 969 240 1018 187 1018 120 c 0
 1018 47 959 -12 886 -12 c 0xbfc0
 806 -12 753 53 753 122 c 0
 753 136 756 150 760 164 c 1
 694 114 650 56 626 0 c 1
 549 0 l 1
 549 422 l 2
 549 529 461 593 350 593 c 0
 215 593 144 501 138 417 c 1
 238 417 l 1
 238 386 l 1
 172 353 169 297 169 238 c 2
 169 218 l 1
 178 226 201 245 250 245 c 0
 322 245 374 188 374 120 c 0
 374 40 313 -8 242 -8 c 0
 142 -8 92 60 92 149 c 2
 92 247 l 2
 92 305 115 370 193 391 c 1
 58 391 l 1
 71 547 200 624 350 624 c 0
 599 624 632 493 632 314 c 0
 632 224 626 202 626 90 c 1
 695 179 778 244 900 285 c 1
 900 613 l 1
 977 613 l 1
 977 278 l 1
 953 271 929 262 906 250 c 1x7fc0
885 20 m 0
 934 20 981 63 981 117 c 256
 981 169 936 213 885 213 c 0
 829 213 790 166 790 117 c 256
 790 67 829 20 885 20 c 0
250 34 m 0x7fc0
 296 34 336 69 336 120 c 256
 336 169 295 207 250 207 c 256
 200 207 163 165 163 120 c 256
 163 69 205 34 250 34 c 0x7fc0
EndSplineSet
EndChar
StartChar: uni0E14
Encoding: 3604 3604 231
Width: 743
VWidth: 1533
Flags: W
HStem: 0 21G<95 254.5 575 652> 230 40<302.991 401.304> 442 39<302.02 415.459> 593 31<268.706 472.434>
VStem: 77 78<92.8689 487.508> 98 72<39.1434 68.5 53.8217 390.939> 233 40<298.734 412.159> 445 46<298.52 412.434> 575 77<0 501.638>
Fore
77 396 m 0xfb80
 77 555 240 624 371 624 c 256
 586 624 652 508 652 412 c 2
 652 0 l 1
 575 0 l 1
 575 422 l 2
 575 538 472 593 371 593 c 0
 261 593 155 526 155 399 c 0xfb80
 155 249 172 219 172 99 c 0
 172 79 171 58 170 38 c 1
 251 69 378 142 419 245 c 1
 398 235 378 230 359 230 c 0
 289 230 233 286 233 356 c 0
 233 428 291 481 359 481 c 0
 436 481 491 422 491 356 c 0
 491 201 337 62 172 0 c 1
 95 0 l 1
 98 23 98 50 98 75 c 0xf780
 98 208 77 263 77 396 c 0xfb80
359 270 m 256
 405 270 445 305 445 356 c 256
 445 406 404 442 359 442 c 256
 309 442 273 401 273 356 c 256
 273 303 317 270 359 270 c 256
EndSplineSet
EndChar
StartChar: uni0E15
Encoding: 3605 3605 232
Width: 743
VWidth: 1533
Flags: W
HStem: 0 21G<95 254.5 575 652> 230 38<302.459 400.74> 443 38<301.855 415.685> 587 39<219.563 340.093 415.263 535.764>
VStem: 77 78<92.8689 506.567> 98 72<39.1434 68.5 53.8217 390.939> 233 38<299.183 412.3> 446 45<298.293 411.86> 575 77<0 542.406>
Fore
498 626 m 0xfb80
 621 626 652 528 652 460 c 2
 652 0 l 1
 575 0 l 1
 575 448 l 2
 575 509 555 587 477 587 c 0
 439 587 409 569 383 527 c 1
 366 527 l 1
 354 561 326 587 284 587 c 0
 181 587 155 462 155 399 c 0xfb80
 155 249 172 219 172 99 c 0
 172 79 171 58 170 38 c 1
 251 69 378 142 419 245 c 1
 398 235 378 230 359 230 c 0
 285 230 233 288 233 356 c 256
 233 424 285 481 359 481 c 0
 436 481 491 422 491 356 c 0
 491 201 337 62 172 0 c 1
 95 0 l 1
 98 23 98 50 98 75 c 0xf780
 98 208 77 263 77 396 c 0
 77 506 139 626 262 626 c 0
 330 626 360 592 376 566 c 1
 402 602 437 626 498 626 c 0xfb80
359 268 m 256
 405 268 446 306 446 356 c 256
 446 406 404 443 359 443 c 256
 314 443 271 406 271 356 c 256
 271 305 313 268 359 268 c 256
EndSplineSet
EndChar
StartChar: uni0E16
Encoding: 3606 3606 233
Width: 717
VWidth: 1533
Flags: W
HStem: -8 42<193.592 307.045> 207 38<193.573 305.279> 593 31<247.964 453.564>
VStem: 92 77<62.295 177.287 218 331.818> 336 38<62.8092 176.886> 549 77<0 504.914>
Fore
350 624 m 0
 493 624 626 567 626 411 c 2
 626 0 l 1
 549 0 l 1
 549 422 l 2
 549 529 461 593 350 593 c 0
 215 593 144 501 138 417 c 1
 238 417 l 1
 238 386 l 1
 172 355 169 297 169 236 c 2
 169 218 l 1
 178 226 201 245 250 245 c 0
 322 245 374 188 374 120 c 0
 374 40 313 -8 242 -8 c 0
 142 -8 92 60 92 149 c 2
 92 247 l 2
 92 305 115 370 193 391 c 1
 58 391 l 1
 71 547 200 624 350 624 c 0
250 34 m 256
 296 34 336 69 336 120 c 256
 336 169 295 207 250 207 c 256
 200 207 163 165 163 120 c 256
 163 69 204 34 250 34 c 256
EndSplineSet
EndChar
StartChar: uni0E17
Encoding: 3607 3607 234
Width: 801
VWidth: 1533
Flags: W
HStem: 0 21G<221 308.901 633 710> 371 38<83.7823 183.986> 583 41<83.7455 195.709>
VStem: 15 39<439.59 553.212> 221 76<71 399 438.842 552.744> 633 77<0 515.867>
Fore
621 621 m 1
 659 621 710 606 710 547 c 2
 710 0 l 1
 633 0 l 1
 633 476 l 2
 633 500 631 514 629 517 c 1
 610 526 l 1
 297 0 l 1
 221 0 l 1
 221 399 l 1
 198 378 168 371 140 371 c 0
 66 371 15 429 15 497 c 0
 15 574 75 624 147 624 c 0
 247 624 297 557 297 468 c 2
 297 71 l 1
 621 621 l 1
140 409 m 256
 186 409 227 447 227 497 c 256
 227 547 185 583 140 583 c 256
 87 583 54 539 54 497 c 256
 54 447 93 409 140 409 c 256
EndSplineSet
EndChar
StartChar: uni0E18
Encoding: 3608 3608 235
Width: 677
VWidth: 1533
Flags: W
HStem: 0 38<169 509> 388 38<129 509> 514 44<387.042 489.083> 570 51<190.863 334.183>
VStem: 92 77<38 342> 509 77<38 388>
Fore
49 388 m 1
 57 508 111 621 249 621 c 0
 337 621 376 558 438 558 c 0
 474 558 496 576 504 613 c 1
 603 613 l 1
 598 550 537 514 478 514 c 0
 404 514 337 570 264 570 c 0
 156 570 132 467 129 426 c 1
 586 426 l 1
 586 0 l 1
 92 0 l 1
 92 342 l 1
 169 342 l 1
 169 38 l 1
 509 38 l 1
 509 388 l 1
 49 388 l 1
EndSplineSet
EndChar
StartChar: uni0E19
Encoding: 3609 3609 236
Width: 786
VWidth: 1533
Flags: W
HStem: -12 32<543.844 660.92> 371 38<83.5346 183.986> 583 41<83.591 195.709>
VStem: 15 39<439.799 553.222> 221 76<66 399 438.842 552.744> 471 35<56.6327 156.483> 618 77<285 613> 699 37<56.9848 175.745>
Fore
622 250 m 1
 687 240 736 188 736 120 c 0
 736 47 677 -12 604 -12 c 0
 524 -12 471 51 471 121 c 0
 471 135 474 150 478 164 c 1
 413 118 349 61 299 0 c 1
 221 0 l 1
 221 399 l 1
 198 378 168 371 140 371 c 0
 66 371 15 429 15 497 c 0
 15 574 75 624 147 624 c 0
 247 624 297 557 297 468 c 2
 297 66 l 1
 400 177 521 247 618 285 c 1
 618 613 l 1
 695 613 l 1
 695 278 l 1
 669 271 645 262 622 250 c 1
603 20 m 0
 652 20 699 63 699 117 c 256
 699 169 654 213 603 213 c 0
 549 213 506 166 506 117 c 256
 506 63 552 20 603 20 c 0
140 409 m 256
 186 409 227 447 227 497 c 256
 227 547 185 583 140 583 c 256
 90 583 54 543 54 497 c 0
 54 452 88 409 140 409 c 256
EndSplineSet
EndChar
StartChar: uni0E1A
Encoding: 3610 3610 237
Width: 786
VWidth: 1533
Flags: W
HStem: 0 38<297 618> 371 38<83.7823 183.986> 583 41<83.7455 195.709>
VStem: 15 39<439.59 553.212> 221 76<38 399 438.842 552.744> 618 77<38 613>
Fore
147 624 m 0
 247 624 297 557 297 468 c 2
 297 38 l 1
 618 38 l 1
 618 613 l 1
 695 613 l 1
 695 0 l 1
 221 0 l 1
 221 399 l 1
 198 378 168 371 140 371 c 0
 66 371 15 429 15 497 c 0
 15 574 75 624 147 624 c 0
140 409 m 256
 186 409 227 447 227 497 c 256
 227 547 185 583 140 583 c 256
 87 583 54 539 54 497 c 256
 54 447 93 409 140 409 c 256
EndSplineSet
EndChar
StartChar: uni0E1B
Encoding: 3611 3611 238
Width: 786
VWidth: 1533
Flags: W
HStem: 0 38<297 618> 371 38<83.7823 183.986> 583 41<83.7455 195.709>
VStem: 15 39<439.59 553.212> 221 76<38 399 438.842 552.744> 618 77<38 797>
Fore
147 624 m 0
 247 624 297 557 297 468 c 2
 297 38 l 1
 618 38 l 1
 618 797 l 1
 695 797 l 1
 695 0 l 1
 221 0 l 1
 221 399 l 1
 198 378 168 371 140 371 c 0
 66 371 15 429 15 497 c 0
 15 574 75 624 147 624 c 0
140 409 m 256
 186 409 227 447 227 497 c 256
 227 547 185 583 140 583 c 256
 87 583 54 539 54 497 c 256
 54 447 93 409 140 409 c 256
EndSplineSet
EndChar
StartChar: uni0E1C
Encoding: 3612 3612 239
Width: 763
VWidth: 1533
Flags: MW
HStem: 0 21G<100 198.638 574.29 672> 276 77<386 386> 371 38<187.243 299.046> 583 41<186.989 301.068>
VStem: 83 81<88.9045 443.228 347 396> 100 76<66 84.5 84.5 323.814> 330 38<439.149 553.256> 595 77<66 613>
Fore
163 328 m 0xbb
 163 238 177 193 177 103 c 0
 177 91 176 78 176 66 c 1
 386 353 l 1
 595 66 l 1
 595 613 l 1
 672 613 l 1
 672 0 l 1
 589 0 l 1
 386 276 l 1
 184 0 l 1
 100 0 l 1xb7
 100 162 83 243 83 405 c 0
 83 573 144 624 236 624 c 0
 308 624 368 574 368 497 c 0
 368 427 314 371 244 371 c 0
 196 371 173 389 164 396 c 1
 164 366 l 2
 164 353 163 341 163 328 c 0xbb
244 409 m 256
 290 409 330 447 330 497 c 256
 330 547 289 583 244 583 c 256
 199 583 156 547 156 497 c 0
 156 446 198 409 244 409 c 256
EndSplineSet
EndChar
StartChar: uni0E1D
Encoding: 3613 3613 240
Width: 763
VWidth: 1533
Flags: MW
HStem: 0 21G<100 198.638 574.29 672> 276 77<386 386> 371 38<187.243 299.046> 583 41<186.989 301.068>
VStem: 83 81<88.9045 443.228 347 396> 100 76<66 84.5 84.5 323.814> 330 38<439.149 553.256> 595 77<66 797>
Fore
163 328 m 0xbb
 163 238 177 193 177 103 c 0
 177 91 176 78 176 66 c 1
 386 353 l 1
 595 66 l 1
 595 797 l 1
 672 797 l 1
 672 0 l 1
 589 0 l 1
 386 276 l 1
 184 0 l 1
 100 0 l 1xb7
 100 162 83 243 83 405 c 0
 83 573 144 624 236 624 c 0
 308 624 368 574 368 497 c 0
 368 427 314 371 244 371 c 0
 196 371 173 389 164 396 c 1
 164 366 l 2
 164 353 163 341 163 328 c 0xbb
244 409 m 256
 290 409 330 447 330 497 c 256
 330 547 289 583 244 583 c 256
 199 583 156 547 156 497 c 0
 156 446 198 409 244 409 c 256
EndSplineSet
EndChar
StartChar: uni0E1E
Encoding: 3614 3614 241
Width: 869
VWidth: 1533
Flags: W
HStem: 0 21G<221 327.115 671.925 777> 371 38<83.7823 183.986> 583 41<83.7455 195.709>
VStem: 15 39<439.59 553.212> 221 76<66 399 438.842 552.744> 701 76<66 613>
Fore
147 624 m 0
 247 624 297 557 297 468 c 2
 297 66 l 1
 500 629 l 1
 701 66 l 1
 701 613 l 1
 777 613 l 1
 777 0 l 1
 679 0 l 1
 500 506 l 1
 320 0 l 1
 221 0 l 1
 221 399 l 1
 198 378 168 371 140 371 c 0
 66 371 15 429 15 497 c 0
 15 574 75 624 147 624 c 0
140 409 m 256
 186 409 227 447 227 497 c 256
 227 547 185 583 140 583 c 256
 87 583 54 539 54 497 c 256
 54 447 93 409 140 409 c 256
EndSplineSet
EndChar
StartChar: uni0E1F
Encoding: 3615 3615 242
Width: 869
VWidth: 1533
Flags: W
HStem: 0 21G<221 327.115 671.925 777> 371 38<83.7823 183.986> 583 41<83.7455 195.709>
VStem: 15 39<439.59 553.212> 221 76<66 399 438.842 552.744> 701 76<66 797>
Fore
147 624 m 0
 247 624 297 557 297 468 c 2
 297 66 l 1
 500 629 l 1
 701 66 l 1
 701 797 l 1
 777 797 l 1
 777 0 l 1
 679 0 l 1
 500 506 l 1
 320 0 l 1
 221 0 l 1
 221 399 l 1
 198 378 168 371 140 371 c 0
 66 371 15 429 15 497 c 0
 15 574 75 624 147 624 c 0
140 409 m 256
 186 409 227 447 227 497 c 256
 227 547 185 583 140 583 c 256
 87 583 54 539 54 497 c 256
 54 447 93 409 140 409 c 256
EndSplineSet
EndChar
StartChar: uni0E20
Encoding: 3616 3616 243
Width: 846
VWidth: 1533
Flags: W
HStem: -8 42<82.2568 198.037> 207 38<83.9602 196.995> 593 31<377.147 579.92>
VStem: 15 39<63.2273 176.869> 227 67<62.6828 170.73 165.31 176.15 218 342.737> 678 76<0 503.617>
Fore
478 624 m 0
 601 624 754 581 754 411 c 2
 754 0 l 1
 678 0 l 1
 678 422 l 2
 678 525 596 593 478 593 c 0
 343 593 273 500 267 417 c 1
 366 417 l 1
 366 386 l 1
 316 367 294 328 294 203 c 0
 294 178 295 163 295 153 c 0
 295 9 214 -8 147 -8 c 0
 76 -8 15 41 15 120 c 0
 15 188 67 245 140 245 c 0
 189 245 212 226 221 218 c 1
 221 316 225 368 328 391 c 1
 187 391 l 1
 204 595 400 624 478 624 c 0
140 34 m 0
 186 34 227 69 227 120 c 256
 227 170 185 207 140 207 c 256
 89 207 54 165 54 120 c 0
 54 70 93 34 140 34 c 0
EndSplineSet
EndChar
StartChar: uni0E21
Encoding: 3617 3617 244
Width: 795
VWidth: 1533
Flags: W
HStem: -8 42<130.113 242.96> 218 43<136.599 247.195> 371 38<129.782 229.986> 583 41<129.524 243.349>
VStem: 57 43<63.8413 182.663 439.59 552.997> 267 76<59.6875 184 248 295.772> 267 84<310.616 399 374.729 539.323> 627 77<46 613>
Fore
193 624 m 0xfb
 313 624 351 539 351 395 c 0xfb
 351 322 343 279 343 227 c 1
 627 46 l 1
 627 613 l 1
 704 613 l 1
 704 0 l 1
 627 0 l 1
 343 184 l 1
 343 56 317 -8 198 -8 c 0
 127 -8 57 37 57 126 c 0
 57 210 144 261 213 261 c 0
 232 261 250 257 267 248 c 1xfd
 267 399 l 1
 244 378 214 371 186 371 c 0
 112 371 61 429 61 497 c 0
 61 573 120 624 193 624 c 0xfb
186 409 m 256
 232 409 273 447 273 497 c 256
 273 547 231 583 186 583 c 256
 133 583 100 539 100 497 c 0
 100 447 139 409 186 409 c 256
190 34 m 256
 252 34 267 92 267 127 c 2xfd
 267 210 l 1
 250 217 235 218 207 218 c 0
 157 218 100 189 100 126 c 0
 100 73 136 34 190 34 c 256
EndSplineSet
EndChar
StartChar: uni0E22
Encoding: 3618 3618 245
Width: 735
VWidth: 1533
Flags: W
HStem: 0 38<218 567> 354 38<226.304 337.256> 567 54<193.234 333.988>
VStem: 46 66<359.189 522.03> 141 77<38 200.893> 156 39<422.579 536.47> 370 38<424.316 536.346> 567 77<38 613>
Fore
271 284 m 0xf7
 305 284 330 291 353 305 c 1
 366 284 l 1
 316 262 l 2
 297 254 218 215 218 143 c 2
 218 38 l 1
 567 38 l 1
 567 613 l 1
 644 613 l 1
 644 0 l 1
 141 0 l 1
 141 141 l 2xfb
 141 184 166 221 227 248 c 1
 182 254 46 286 46 440 c 256
 46 557 134 621 235 621 c 0
 326 621 408 578 408 480 c 0
 408 409 351 354 282 354 c 256
 211 354 156 411 156 480 c 0
 156 535 189 577 236 592 c 1
 160 586 112 512 112 445 c 0
 112 348 176 284 271 284 c 0xf7
282 392 m 256
 331 392 370 435 370 480 c 256
 370 530 327 567 282 567 c 256
 232 567 195 525 195 480 c 256xf7
 195 435 232 392 282 392 c 256
EndSplineSet
EndChar
StartChar: uni0E23
Encoding: 3619 3619 246
Width: 643
VWidth: 1533
Flags: W
HStem: -17 38<327.39 444.076> 209 38<327.643 445.36> 388 38<95 475> 514 44<366.186 482.189> 570 51<162.294 314.776>
VStem: 255 38<54.81 173.144> 475 77<63.2852 173.998 212 388>
Fore
423 558 m 0
 451 558 492 572 501 613 c 1
 599 613 l 1
 596 554 528 514 468 514 c 0
 386 514 309 570 230 570 c 0
 149 570 100 493 95 426 c 1
 552 426 l 1
 552 152 l 2
 552 54 488 -17 386 -17 c 0
 315 -17 255 42 255 115 c 256
 255 189 316 247 386 247 c 0
 443 247 466 224 475 212 c 1
 475 388 l 1
 15 388 l 1
 23 511 77 621 218 621 c 0
 315 621 370 558 423 558 c 0
386 21 m 256
 440 21 480 65 480 115 c 256
 480 165 440 209 386 209 c 256
 333 209 293 164 293 115 c 256
 293 62 337 21 386 21 c 256
EndSplineSet
EndChar
StartChar: uni0E24
Encoding: 3620 3620 247
Width: 717
VWidth: 1533
Flags: W
HStem: -8 42<193.592 307.045> 207 38<193.573 305.279> 593 31<247.964 453.564>
VStem: 92 77<62.295 177.287 218 332.309> 336 38<62.8092 176.886> 549 77<-184 504.914>
Fore
350 624 m 0
 493 624 626 567 626 411 c 2
 626 -184 l 1
 549 -184 l 1
 549 422 l 2
 549 529 461 593 350 593 c 0
 215 593 144 501 138 417 c 1
 238 417 l 1
 238 386 l 1
 172 355 169 298 169 238 c 2
 169 218 l 1
 178 226 201 245 250 245 c 0
 322 245 374 188 374 120 c 0
 374 40 313 -8 242 -8 c 0
 142 -8 92 60 92 149 c 2
 92 247 l 2
 92 305 115 370 193 391 c 1
 58 391 l 1
 71 547 200 624 350 624 c 0
250 34 m 256
 296 34 336 69 336 120 c 256
 336 169 295 207 250 207 c 256
 200 207 163 165 163 120 c 256
 163 69 204 34 250 34 c 256
EndSplineSet
EndChar
StartChar: uni0E25
Encoding: 3621 3621 248
Width: 760
VWidth: 1533
Flags: W
HStem: -11 39<181.659 300.546> 215 38<181.64 298.287> 399 35<258.083 430.097> 593 31<281.7 481.093>
VStem: 75 72<78.9033 235.913 218 289.495> 78 78<450.9 520.476> 334 39<63.0591 181.19> 592 76<0 252.312 308 494.666>
Fore
380 624 m 0xf7
 510 624 668 567 668 412 c 2
 668 0 l 1
 592 0 l 1
 592 34 l 2
 592 179 589 294 493 363 c 0
 460 387 411 399 348 399 c 0
 233 399 154 311 152 218 c 1
 161 230 184 253 241 253 c 0
 312 253 373 194 373 121 c 256
 373 47 312 -11 241 -11 c 0
 126 -11 75 80 75 184 c 0xfb
 75 347 200 434 345 434 c 0
 383 434 519 429 592 308 c 1
 592 422 l 2
 592 529 480 593 380 593 c 0
 283 593 173 528 156 437 c 1
 78 437 l 1
 101 564 256 624 380 624 c 0xf7
241 28 m 256
 294 28 334 72 334 121 c 256
 334 174 290 215 241 215 c 256
 187 215 147 171 147 121 c 256
 147 71 187 28 241 28 c 256
EndSplineSet
EndChar
StartChar: uni0E26
Encoding: 3622 3622 249
Width: 846
VWidth: 1533
Flags: W
HStem: -8 42<82.2568 198.037> 207 38<83.9602 196.995> 593 31<377.147 579.92>
VStem: 15 39<63.2273 176.869> 227 67<62.6828 170.73 165.31 176.15 218 342.737> 678 76<-184 503.617>
Fore
478 624 m 0
 601 624 754 581 754 411 c 2
 754 -184 l 1
 678 -184 l 1
 678 422 l 2
 678 525 596 593 478 593 c 0
 343 593 273 500 267 417 c 1
 366 417 l 1
 366 386 l 1
 316 367 294 328 294 203 c 0
 294 178 295 163 295 153 c 0
 295 9 214 -8 147 -8 c 0
 76 -8 15 41 15 120 c 0
 15 188 67 245 140 245 c 0
 189 245 212 226 221 218 c 1
 221 316 225 368 328 391 c 1
 187 391 l 1
 204 595 400 624 478 624 c 0
140 34 m 0
 186 34 227 69 227 120 c 256
 227 170 185 207 140 207 c 256
 89 207 54 165 54 120 c 0
 54 70 93 34 140 34 c 0
EndSplineSet
EndChar
StartChar: uni0E27
Encoding: 3623 3623 250
Width: 636
VWidth: 1533
Flags: W
HStem: -8 39<318.382 437.482> 218 38<318.602 438.313> 593 31<183.14 375.928>
VStem: 0 78<449.676 523.509> 247 38<65.0766 183.775> 468 76<71.296 184.659 221 504.538>
Fore
279 624 m 0
 425 624 544 565 544 412 c 2
 544 161 l 2
 544 63 481 -8 379 -8 c 0
 305 -8 247 53 247 124 c 256
 247 197 306 256 379 256 c 0
 434 256 458 233 468 221 c 1
 468 422 l 2
 468 541 372 593 279 593 c 0
 171 593 92 522 78 437 c 1
 0 437 l 1
 23 562 147 624 279 624 c 0
379 31 m 256
 432 31 472 75 472 124 c 256
 472 178 429 218 379 218 c 256
 325 218 285 175 285 124 c 256
 285 74 325 31 379 31 c 256
EndSplineSet
EndChar
StartChar: uni0E28
Encoding: 3624 3624 251
Width: 758
VWidth: 1533
Flags: W
HStem: 0 21G<95 178.063 590 667> 212 38<317.164 430.186> 593 31<275.937 482.887>
VStem: 77 78<140.856 482.796> 98 69<99.3278 391.522> 461 39<280.396 395.28> 590 77<0 498.822>
Fore
540 593 m 1xf6
 553 606 574 631 589 675 c 1
 672 675 l 1
 655 634 616 596 583 570 c 1
 629 538 667 485 667 412 c 2
 667 0 l 1
 590 0 l 1
 590 422 l 2
 590 470 567 511 538 535 c 1
 497 507 454 481 408 458 c 1
 449 446 500 410 500 337 c 0
 500 264 441 212 374 212 c 0
 323 212 276 245 259 287 c 1
 172 0 l 1
 95 0 l 1
 97 57 l 2
 97 69 98 81 98 92 c 0xee
 98 214 77 259 77 396 c 0
 77 557 250 624 379 624 c 0
 476 624 519 604 540 593 c 1xf6
374 250 m 256
 424 250 461 292 461 337 c 256
 461 388 420 425 374 425 c 256
 328 425 287 387 287 337 c 256
 287 287 329 250 374 250 c 256
155 399 m 0xf6
 155 278 168 254 168 158 c 0
 168 144 168 131 167 117 c 1xee
 241 353 l 2
 254 395 286 458 363 463 c 1
 446 506 481 536 504 560 c 1
 467 582 425 593 379 593 c 0
 271 593 155 526 155 399 c 0xf6
EndSplineSet
EndChar
StartChar: uni0E29
Encoding: 3625 3625 252
Width: 817
VWidth: 1533
Flags: W
HStem: 0 38<297 633> 178 34<546 573.881> 178 49<425.683 581.68> 196 42<549.401 621.746> 371 38<83.7823 183.986> 386 40<421.461 531.717> 583 41<83.7455 195.709>
VStem: 15 39<439.59 553.212> 221 76<38 399 438.842 552.744> 359 38<252.968 360.609> 557 38<251.974 361.453> 633 77<38 196 301 613>
Fore
710 301 m 1x93f0
 747 350 747 386 747 408 c 1
 820 408 l 1
 819 385 813 314 710 236 c 1
 710 0 l 1
 221 0 l 1
 221 399 l 1
 198 378 168 371 140 371 c 0
 66 371 15 429 15 497 c 0
 15 574 75 624 147 624 c 0
 247 624 297 557 297 468 c 2
 297 38 l 1
 633 38 l 1
 633 196 l 1x9bf0
 600 184 565 178 529 178 c 0xa3f0
 457 178 359 204 359 308 c 0
 359 375 412 426 477 426 c 256
 544 426 595 373 595 308 c 0
 595 270 573 233 546 212 c 1xc7f0
 555 212 586 213 633 238 c 1
 633 613 l 1
 710 613 l 1
 710 301 l 1x93f0
477 227 m 256xa7f0
 524 227 557 263 557 307 c 256
 557 350 524 386 477 386 c 256
 430 386 397 350 397 307 c 256
 397 260 433 227 477 227 c 256xa7f0
140 409 m 256x8bf0
 186 409 227 447 227 497 c 256
 227 547 185 583 140 583 c 256
 87 583 54 539 54 497 c 256
 54 447 93 409 140 409 c 256x8bf0
EndSplineSet
EndChar
StartChar: uni0E2A
Encoding: 3626 3626 253
Width: 760
VWidth: 1533
Flags: W
HStem: -11 39<181.659 300.546> 215 38<181.64 298.287> 399 35<256.169 347> 593 31<281.7 459.807>
VStem: 75 72<78.9033 236.124 218 289.495> 78 78<450.9 520.476> 334 39<63.0591 181.19> 592 76<0 252.312 308 496.861>
Fore
540 593 m 1xf7
 553 606 574 631 589 675 c 1
 672 675 l 1
 662 651 646 622 584 570 c 1
 607 555 668 507 668 412 c 2
 668 0 l 1
 592 0 l 1
 592 34 l 2
 592 179 589 294 493 363 c 0
 460 387 411 399 348 399 c 0
 233 399 154 311 152 218 c 1
 161 230 184 253 241 253 c 0
 312 253 373 194 373 121 c 256
 373 47 312 -11 241 -11 c 0
 126 -11 75 80 75 184 c 0xfb
 75 348 200 434 347 434 c 1
 403 469 461 512 507 558 c 1
 475 580 430 593 380 593 c 256
 283 593 173 528 156 437 c 1
 78 437 l 1
 101 564 256 624 380 624 c 0
 420 624 482 619 540 593 c 1xf7
592 422 m 2
 592 467 569 507 540 534 c 1
 474 476 427 448 396 431 c 1
 484 418 550 374 592 308 c 1
 592 422 l 2
241 28 m 256
 294 28 334 72 334 121 c 256
 334 174 290 215 241 215 c 256
 187 215 147 171 147 121 c 256
 147 71 187 28 241 28 c 256
EndSplineSet
EndChar
StartChar: uni0E2B
Encoding: 3627 3627 254
Width: 798
VWidth: 1533
Flags: W
HStem: 0 21G<221 297 630 707> 371 38<82.1667 183.986 546.713 610.904> 583 41<86.5747 191.833 547.965 660.332>
VStem: 15 39<439.799 553.222> 221 76<0 215.006 258 324.5 324.5 399 381.671 546.826> 478 39<441.375 555.79> 630 77<0 348.617> 691 42<441.547 555.775>
Fore
606 624 m 256xfe
 675 624 733 573 733 498 c 0xfd
 733 442 698 396 652 379 c 1
 683 360 707 326 707 281 c 2
 707 0 l 1
 630 0 l 1
 630 299 l 2
 630 346 599 373 550 373 c 0
 426 373 297 251 297 133 c 2
 297 0 l 1
 221 0 l 1
 221 399 l 1
 198 378 168 371 140 371 c 0
 66 371 15 429 15 497 c 0
 15 574 75 624 147 624 c 0
 272 624 303 534 303 391 c 0
 303 338 297 311 297 258 c 1
 321 302 380 387 523 402 c 1
 493 426 478 462 478 498 c 0
 478 574 536 624 606 624 c 256xfe
604 411 m 256
 654 411 691 453 691 498 c 256
 691 549 650 586 604 586 c 256
 558 586 517 548 517 498 c 256
 517 448 559 411 604 411 c 256
140 409 m 256
 186 409 227 447 227 497 c 256
 227 547 185 583 140 583 c 256
 90 583 54 543 54 497 c 0
 54 452 88 409 140 409 c 256
EndSplineSet
EndChar
StartChar: uni0E2C
Encoding: 3628 3628 255
Width: 876
VWidth: 1533
Flags: MW
HStem: 0 21G<221 316.573 683.427 777> 337 86<500 500> 371 38<83.7823 183.986> 432 37<544.295 671.677> 583 41<83.7455 195.709> 595 31<563.828 662.719>
VStem: 15 39<439.59 553.212> 221 76<74 399 438.842 552.744> 455 68<489.972 574.161> 701 76<74 438>
Fore
774 511 m 1xb7c0
 791 519 809 528 852 564 c 1
 885 524 l 1
 867 508 835 483 777 461 c 1
 777 0 l 1
 695 0 l 1
 500 337 l 1
 305 0 l 1
 221 0 l 1
 221 399 l 1
 198 378 168 371 140 371 c 0xbbc0
 66 371 15 429 15 497 c 0
 15 574 75 624 147 624 c 0xbbc0
 247 624 297 557 297 468 c 2
 297 74 l 1
 500 423 l 1xd7c0
 701 74 l 1
 701 438 l 1
 679 434 654 432 629 432 c 0
 486 432 455 489 455 527 c 0
 455 601 552 626 609 626 c 0
 648 626 683 618 714 600 c 0
 746 584 766 554 774 511 c 1xb7c0
523 530 m 0
 523 493 565 469 613 469 c 0
 642 469 671 473 701 481 c 1
 701 507 l 2
 701 577 647 595 609 595 c 0xb7c0
 583 595 523 582 523 530 c 0
140 409 m 256xbbc0
 186 409 227 447 227 497 c 256
 227 547 185 583 140 583 c 256xbbc0
 87 583 54 539 54 497 c 256
 54 447 93 409 140 409 c 256xbbc0
EndSplineSet
Substitution2: "Single Substitution lookup 22 subtable" uni0E2C.alt1
Substitution2: "Single Substitution lookup 22 subtable" uni0E2C.alt1
EndChar
StartChar: uni0E2D
Encoding: 3629 3629 256
Width: 745
VWidth: 1533
Flags: W
HStem: 0 38<176 576> 169 38<205.687 325.398> 394 38<206.518 325.618> 593 31<266.035 465.956>
VStem: 63 78<449.823 515.488> 100 76<38 204 240.341 351.959> 359 38<241.225 359.597> 576 77<38 494.279>
Fore
365 624 m 0xfb
 495 624 653 566 653 412 c 2
 653 0 l 1
 100 0 l 1
 100 264 l 2
 100 360 163 432 265 432 c 0
 339 432 397 371 397 301 c 256
 397 228 338 169 265 169 c 0
 210 169 186 192 176 204 c 1
 176 38 l 1xf7
 576 38 l 1
 576 422 l 2
 576 529 465 593 365 593 c 0
 267 593 156 527 141 437 c 1
 63 437 l 1
 86 565 240 624 365 624 c 0xfb
265 207 m 256
 319 207 359 250 359 301 c 256
 359 351 319 394 265 394 c 256
 212 394 172 350 172 301 c 256
 172 247 215 207 265 207 c 256
EndSplineSet
EndChar
StartChar: uni0E2E
Encoding: 3630 3630 257
Width: 760
VWidth: 1533
Flags: W
HStem: 0 38<176 576> 146 38<205.687 325.398> 371 38<206.518 325.618> 445 32<260.682 477.584> 593 31<202.102 456.658>
VStem: 74 82<501.939 558.344> 100 76<38 181 217.341 328.959> 359 38<218.225 336.597> 576 77<38 454.432>
Fore
319 445 m 0xfb80
 316 445 74 445 74 521 c 0xfd80
 74 603 236 624 333 624 c 0
 501 624 565 573 592 550 c 1
 619 570 642 591 661 613 c 1
 707 567 l 1
 692 555 658 534 624 515 c 1
 643 486 653 451 653 412 c 2
 653 0 l 1
 100 0 l 1
 100 241 l 2
 100 337 163 409 265 409 c 0
 339 409 397 348 397 278 c 256
 397 205 338 146 265 146 c 0
 210 146 186 169 176 181 c 1
 176 38 l 1
 576 38 l 1
 576 422 l 2
 576 446 571 468 561 488 c 1
 480 459 400 445 319 445 c 0xfb80
156 527 m 0
 156 487 279 477 330 477 c 0
 402 477 471 492 537 521 c 1
 482 576 401 593 333 593 c 0
 241 593 156 567 156 527 c 0
265 184 m 256
 319 184 359 227 359 278 c 256
 359 328 319 371 265 371 c 256
 212 371 172 327 172 278 c 256
 172 224 215 184 265 184 c 256
EndSplineSet
EndChar
StartChar: uni0E2F
Encoding: 3631 3631 258
Width: 647
VWidth: 1533
Flags: W
HStem: 0 21G<478 555> 356 36<193.258 327.549> 583 38<94.4972 197.854>
VStem: 31 40<455.565 559.419> 222 42<456.48 558.564> 478 77<0 517>
Fore
477 621 m 1
 523 621 555 604 555 555 c 2
 555 0 l 1
 478 0 l 1
 478 517 l 1
 455 431 333 356 238 356 c 0
 147 356 31 397 31 507 c 0
 31 575 81 621 146 621 c 256
 211 621 264 575 264 507 c 0
 264 460 231 408 182 399 c 1
 215 392 232 392 238 392 c 0
 341 392 448 474 477 621 c 1
146 432 m 256
 185 432 222 465 222 507 c 256
 222 550 185 583 146 583 c 256
 106 583 71 551 71 507 c 256
 71 468 103 432 146 432 c 256
EndSplineSet
EndChar
StartChar: uni0E30
Encoding: 3632 3632 259
Width: 616
VWidth: 1533
Flags: W
HStem: 0 41<222.868 360.553> 232 38<124.534 229.132> 342 41<221.928 360.359> 573 39<124.534 229.23>
VStem: 61 40<104.093 208.444 446.093 550.206> 253 41<105.75 207.763 447.505 550.06> 475 80<150.11 255.93 253.977 257.883 257.883 271 492.11 597.93 595.977 599.883 599.883 613>
Fore
555 579 m 0
 555 439 412 342 276 342 c 0
 181 342 61 386 61 498 c 0
 61 567 116 612 176 612 c 0
 239 612 294 566 294 498 c 0
 294 451 260 400 213 389 c 1
 232 385 253 383 276 383 c 0
 376 383 475 470 475 570 c 0
 475 584 473 598 469 613 c 1
 553 613 l 1
 554 601 555 590 555 579 c 0
555 237 m 0
 555 97 413 0 276 0 c 0
 181 0 61 44 61 156 c 0
 61 225 116 270 176 270 c 0
 239 270 294 224 294 156 c 0
 294 110 261 58 213 48 c 1
 232 43 253 41 276 41 c 0
 376 41 475 128 475 228 c 0
 475 242 473 256 469 271 c 1
 553 271 l 1
 554 259 555 248 555 237 c 0
253 498 m 0
 253 538 220 573 176 573 c 256
 137 573 101 541 101 498 c 256
 101 456 137 423 176 423 c 256
 219 423 253 459 253 498 c 0
253 156 m 0
 253 200 216 232 176 232 c 256
 137 232 101 199 101 156 c 256
 101 114 137 81 176 81 c 256
 219 81 253 117 253 156 c 0
EndSplineSet
EndChar
StartChar: uni0E31
Encoding: 3633 3633 260
Width: 0
VWidth: 1533
Flags: W
HStem: 690 35<-245.332 -107.319> 897 35<-344.508 -245.952>
VStem: -405 42<780.712 879.287> -227 43<780.918 877.907> 4 79<825.363 927.812>
Fore
83 899 m 0
 83 771 -71 690 -196 690 c 0
 -282 690 -405 725 -405 829 c 0
 -405 894 -352 932 -296 932 c 256
 -243 932 -184 899 -184 829 c 0
 -184 782 -216 743 -259 733 c 1
 -236 728 -214 725 -193 725 c 0
 -97 725 4 809 4 892 c 0
 4 906 2 920 -3 934 c 1
 81 934 l 1
 82 922 83 910 83 899 c 0
-296 762 m 256
 -257 762 -227 794 -227 829 c 0
 -227 865 -256 897 -296 897 c 256
 -332 897 -363 869 -363 829 c 256
 -363 794 -335 762 -296 762 c 256
EndSplineSet
Substitution2: "Single Substitution lookup 22 subtable" uni0E31.alt1
Substitution2: "Single Substitution lookup 22 subtable" uni0E31.alt1
EndChar
StartChar: uni0E32
Encoding: 3634 3634 261
Width: 604
VWidth: 1533
Flags: W
HStem: 0 21G<435 512> 593 31<177.95 363.263>
VStem: 14 78<448.117 530.125> 435 77<0 517.248>
Fore
270 624 m 0
 415 624 512 560 512 412 c 2
 512 0 l 1
 435 0 l 1
 435 422 l 2
 435 500 402 593 270 593 c 0
 128 593 99 482 92 437 c 1
 14 437 l 1
 32 562 138 624 270 624 c 0
EndSplineSet
EndChar
StartChar: uni0E33
Encoding: 3635 3635 262
Width: 604
VWidth: 1533
Flags: W
HStem: 0 21<435 512> 593 31<177.95 363.263> 690 37<-185.513 -72.976> 895 40<-184.703 -72.013>
VStem: -251 38<755.31 866.545> -44 38<755.583 866.583> 14 78<448.117 530.125> 435 77<0 517.248>
Back
2 813 m 256
 2 779 -10.1667 750 -34.5 726 c 128
 -58.8333 702 -87.6667 690 -121 690 c 256
 -155 690 -184 702 -208 726 c 128
 -232 750 -244 779 -244 813 c 256
 -244 846.333 -232 875 -208 899 c 128
 -184 923 -155 935 -121 935 c 256
 -87.6667 935 -58.8333 923 -34.5 899 c 128
 -10.1667 875 2 846.333 2 813 c 256
428 0 m 1
 428 422 l 2
 428 474.667 413.833 516.333 385.5 547 c 128
 357.167 577.667 316 593 262 593 c 0
 212 593 172 579.333 142 552 c 128
 112 524.667 92.6667 486.333 84 437 c 1
 6 437 l 1
 11.3333 469.667 21.8333 497.833 37.5 521.5 c 128
 53.1667 545.167 72.5 564.667 95.5 580 c 128
 118.5 595.333 144.333 606.5 173 613.5 c 128
 201.667 620.5 231.333 624 262 624 c 0
 296.667 624 328.833 620.167 358.5 612.5 c 128
 388.167 604.833 413.833 592.5 435.5 575.5 c 128
 457.167 558.5 474 536.5 486 509.5 c 128
 498 482.5 504 450 504 412 c 2
 504 0 l 1
 428 0 l 1
-37 811 m 256
 -37 834.333 -45.1667 854.167 -61.5 870.5 c 128
 -77.8333 886.833 -97.6667 895 -121 895 c 256
 -144.333 895 -164.167 886.833 -180.5 870.5 c 128
 -196.833 854.167 -205 834.333 -205 811 c 256
 -205 787.667 -196.833 767.833 -180.5 751.5 c 128
 -164.167 735.167 -144.333 727 -121 727 c 256
 -97.6667 727 -77.8333 735.167 -61.5 751.5 c 128
 -45.1667 767.833 -37 787.667 -37 811 c 256
EndSplineSet
Refer: 284 3661 N 1 0 0 1 0 0 2
Refer: 261 3634 N 1 0 0 1 0 0 2
Substitution2: "Single Substitution lookup 22 subtable" uni0E33.alt1
Substitution2: "Single Substitution lookup 22 subtable" uni0E33.alt1
EndChar
StartChar: uni0E34
Encoding: 3636 3636 263
Width: 0
VWidth: 1533
Flags: W
HStem: 690 26<-580 -172> 842 30<-488.917 -263.581>
Fore
-659 690 m 1
 -649 823 -497 872 -376 872 c 256
 -252 872 -105 824 -92 690 c 1
 -659 690 l 1
-172 716 m 1
 -182 804 -288 842 -376 842 c 256
 -461 842 -568 808 -580 716 c 1
 -172 716 l 1
EndSplineSet
Substitution2: "Single Substitution lookup 22 subtable" uni0E34.alt1
Substitution2: "Single Substitution lookup 22 subtable" uni0E34.alt1
EndChar
StartChar: uni0E35
Encoding: 3637 3637 264
Width: 0
VWidth: 1533
Flags: W
HStem: 690 26<-580 -172> 842 30<-488.917 -262.957>
VStem: -169 77<816 926>
Fore
-376 872 m 0
 -252 872 -193 833 -169 816 c 1
 -169 926 l 1
 -92 926 l 1
 -92 690 l 1
 -659 690 l 1
 -649 823 -497 872 -376 872 c 0
-172 716 m 1
 -182 804 -288 842 -376 842 c 256
 -461 842 -568 808 -580 716 c 1
 -172 716 l 1
EndSplineSet
Substitution2: "Single Substitution lookup 22 subtable" uni0E35.alt1
Substitution2: "Single Substitution lookup 22 subtable" uni0E35.alt1
EndChar
StartChar: uni0E36
Encoding: 3638 3638 265
Width: 0
VWidth: 1533
Flags: W
HStem: 690 26<-580 -205> 736 34<-134.759 -83.731> 842 30<-495.613 -290.801> 898 37<-178.037 -82.5852>
VStem: -205 10<797 806> -66 35<786.557 881.142>
Fore
-130 935 m 256
 -76 935 -31 889 -31 836 c 0
 -31 773 -78 736 -136 736 c 1
 -131 722 -127 707 -126 690 c 1
 -659 690 l 1
 -656 824 -495 872 -392 872 c 256
 -295 872 -244 844 -230 837 c 1
 -230 890 -185 935 -130 935 c 256
-130 770 m 256
 -93 770 -66 800 -66 834 c 256
 -66 871 -96 898 -130 898 c 256
 -164 898 -195 871 -195 834 c 256
 -195 797 -164 770 -130 770 c 256
-205 716 m 1
 -218 806 -314 842 -392 842 c 0
 -511 842 -571 778 -580 716 c 1
 -205 716 l 1
EndSplineSet
Substitution2: "Single Substitution lookup 22 subtable" uni0E36.alt1
Substitution2: "Single Substitution lookup 22 subtable" uni0E36.alt1
EndChar
StartChar: uni0E37
Encoding: 3639 3639 266
Width: 0
VWidth: 1533
Flags: W
HStem: 690 26<-580 -172> 842 28<-488.121 -299.043>
VStem: -291 76<865 926> -169 77<816 926>
Fore
-659 690 m 1
 -651 809 -529 870 -366 870 c 0
 -339 870 -314 868 -291 865 c 1
 -291 926 l 1
 -215 926 l 1
 -215 842 l 1
 -201 836 -178 822 -169 816 c 1
 -169 926 l 1
 -92 926 l 1
 -92 690 l 1
 -659 690 l 1
-172 716 m 1
 -182 804 -288 842 -376 842 c 256
 -461 842 -568 808 -580 716 c 1
 -172 716 l 1
EndSplineSet
Substitution2: "Single Substitution lookup 22 subtable" uni0E37.alt1
Substitution2: "Single Substitution lookup 22 subtable" uni0E37.alt1
EndChar
StartChar: uni0E38
Encoding: 3640 3640 267
Width: 0
VWidth: 1533
Flags: W
HStem: -274 36<-285.931 -194.533> -86 40<-286.472 -181.956>
VStem: -347 37<-214.495 -109.174> -169 77<-377 -255> -158 66<-214.5 -111.176>
Fore
-222 -46 m 0xf0
 -118 -46 -92 -129 -92 -187 c 2xe8
 -92 -377 l 1
 -169 -377 l 1
 -169 -255 l 1
 -190 -268 -212 -274 -235 -274 c 0
 -297 -274 -347 -223 -347 -161 c 0
 -347 -82 -283 -46 -222 -46 c 0xf0
-235 -238 m 256
 -191 -238 -158 -201 -158 -161 c 256
 -158 -121 -191 -86 -235 -86 c 256
 -274 -86 -310 -118 -310 -161 c 256
 -310 -204 -274 -238 -235 -238 c 256
EndSplineSet
Substitution2: "Single Substitution lookup 21 subtable" a
Substitution2: "Single Substitution lookup 22 subtable" uni0E38.alt1
Substitution2: "Single Substitution lookup 21 subtable" a
Substitution2: "Single Substitution lookup 22 subtable" uni0E38.alt1
EndChar
StartChar: uni0E39
Encoding: 3641 3641 268
Width: 0
VWidth: 1533
Flags: W
HStem: -362 38<-268 -169> -274 36<-462.776 -370.533> -86 40<-463.732 -357.162>
VStem: -523 37<-214.688 -108.891> -345 77<-324 -288.184 -288.184 -255> -334 68<-267.835 -109.678> -169 77<-324 -46>
Fore
-266 -222 m 0xf6
 -266 -243 -268 -263 -268 -324 c 1
 -169 -324 l 1
 -169 -46 l 1
 -92 -46 l 1
 -92 -362 l 1
 -345 -362 l 1
 -345 -255 l 1xfa
 -366 -268 -388 -274 -411 -274 c 0
 -473 -274 -523 -223 -523 -161 c 0
 -523 -81 -457 -46 -399 -46 c 0
 -319 -46 -266 -88 -266 -222 c 0xf6
-411 -238 m 0
 -367 -238 -334 -201 -334 -161 c 256xf6
 -334 -121 -367 -86 -411 -86 c 256
 -455 -86 -486 -121 -486 -161 c 256
 -486 -205 -451 -238 -411 -238 c 0
EndSplineSet
Substitution2: "Single Substitution lookup 21 subtable" b
Substitution2: "Single Substitution lookup 22 subtable" uni0E39.alt1
Substitution2: "Single Substitution lookup 21 subtable" b
Substitution2: "Single Substitution lookup 22 subtable" uni0E39.alt1
EndChar
StartChar: uni0E3A
Encoding: 3642 3642 269
Width: 0
VWidth: 1533
Flags: W
HStem: -169 123<-177.81 -82.8291>
VStem: -192 123<-154.441 -59.8291>
Fore
-130 -46 m 256
 -93 -46 -69 -73 -69 -107 c 256
 -69 -144 -96 -169 -130 -169 c 256
 -167 -169 -192 -140 -192 -107 c 256
 -192 -73 -167 -46 -130 -46 c 256
EndSplineSet
Substitution2: "Single Substitution lookup 21 subtable" c
Substitution2: "Single Substitution lookup 22 subtable" uni0E3A.alt1
Substitution2: "Single Substitution lookup 21 subtable" c
Substitution2: "Single Substitution lookup 22 subtable" uni0E3A.alt1
EndChar
StartChar: uni0E3F
Encoding: 3647 3647 270
Width: 807
VWidth: 1533
Flags: W
HStem: 0 37<156 250 305 386 440 581.022> 365 38<156 250 305 386> 678 38<156 250 305 386 440 538.649>
VStem: 74 82<37 365 403 678> 250 55<-106 0 37 365 403 678 716 800> 386 54<-106 0 37 363 406 676 716 800> 621 89<484.163 612.478> 682 97<114.824 272.445>
Fore
779 196 m 0xfd
 779 39 597 6 440 0 c 1
 440 -106 l 1
 386 -106 l 1
 386 0 l 1
 305 0 l 1
 305 -106 l 1
 250 -106 l 1
 250 0 l 1
 74 0 l 1
 74 716 l 1
 250 716 l 1
 250 800 l 1
 305 800 l 1
 305 716 l 1
 386 716 l 1
 386 800 l 1
 440 800 l 1
 440 716 l 1
 552 716 710 683 710 552 c 0xfe
 710 452 588 393 475 386 c 1
 671 372 779 310 779 196 c 0xfd
682 190 m 0xfd
 682 300 600 352 440 363 c 1
 440 37 l 1
 648 37 682 129 682 190 c 0xfd
440 406 m 1
 485 410 621 434 621 544 c 0xfe
 621 655 509 670 440 676 c 1
 440 406 l 1
156 37 m 1
 250 37 l 1
 250 365 l 1
 156 365 l 1
 156 37 l 1
305 365 m 1
 305 37 l 1
 386 37 l 1
 386 365 l 1
 305 365 l 1
156 403 m 1
 250 403 l 1
 250 678 l 1
 156 678 l 1
 156 403 l 1
305 403 m 1
 386 403 l 1
 386 678 l 1
 305 678 l 1
 305 403 l 1
EndSplineSet
EndChar
StartChar: uni0E40
Encoding: 3648 3648 271
Width: 450
VWidth: 1533
Flags: W
HStem: -11 42<222.642 337.99> 204 38<222.505 336.064> 593 20G<123 199>
VStem: 123 76<60.4258 173.102 215 613> 366 39<60.1669 173.886>
Fore
281 242 m 0
 353 242 405 185 405 117 c 0
 405 37 344 -11 273 -11 c 0
 173 -11 123 57 123 146 c 2
 123 613 l 1
 199 613 l 1
 199 215 l 1
 208 223 232 242 281 242 c 0
281 31 m 256
 324 31 366 64 366 117 c 256
 366 166 326 204 281 204 c 256
 230 204 193 163 193 117 c 256
 193 65 236 31 281 31 c 256
EndSplineSet
EndChar
StartChar: uni0E41
Encoding: 3649 3649 272
Width: 794
VWidth: 1533
Flags: W
HStem: -11 42<222.642 337.99 567.592 680.54> 204 38<222.505 336.064 567.573 679.279> 593 20G<123 199 466 543>
VStem: 123 76<60.4258 173.102 215 613> 366 39<60.1669 173.886> 466 77<60.3648 174.287 215 613> 710 38<59.0262 173.886>
Fore
624 242 m 0
 696 242 748 185 748 117 c 0
 748 40 691 -11 616 -11 c 0
 516 -11 466 57 466 146 c 2
 466 613 l 1
 543 613 l 1
 543 215 l 1
 552 223 575 242 624 242 c 0
281 242 m 0
 353 242 405 185 405 117 c 0
 405 37 344 -11 273 -11 c 0
 173 -11 123 57 123 146 c 2
 123 613 l 1
 199 613 l 1
 199 215 l 1
 208 223 232 242 281 242 c 0
624 31 m 256
 670 31 710 66 710 117 c 256
 710 166 669 204 624 204 c 256
 574 204 537 162 537 117 c 256
 537 66 578 31 624 31 c 256
281 31 m 256
 324 31 366 64 366 117 c 256
 366 166 326 204 281 204 c 256
 230 204 193 163 193 117 c 256
 193 65 236 31 281 31 c 256
EndSplineSet
EndChar
StartChar: uni0E42
Encoding: 3650 3650 273
Width: 466
VWidth: 1533
Flags: W
HStem: -11 42<239.592 353.045> 204 38<239.573 351.279> 854 38<-21 138> 949 45<197.5 292.37> 998 51<23.3413 159.023>
VStem: 138 77<60.3648 174.287 215 854> 382 38<59.8092 173.886>
Fore
296 242 m 0
 368 242 420 185 420 117 c 0
 420 37 359 -11 288 -11 c 0
 188 -11 138 57 138 146 c 2
 138 854 l 1
 -101 854 l 1
 -98 932 -65 1049 77 1049 c 0
 157 1049 193 994 244 994 c 0
 281 994 301 1017 308 1049 c 1
 406 1049 l 1
 397 981 334 949 285 949 c 0
 215 949 165 998 95 998 c 0
 25 998 -13 956 -21 892 c 1
 215 892 l 1
 215 215 l 1
 224 223 247 242 296 242 c 0
296 31 m 256
 342 31 382 66 382 117 c 256
 382 166 341 204 296 204 c 256
 246 204 209 162 209 117 c 256
 209 66 250 31 296 31 c 256
EndSplineSet
EndChar
StartChar: uni0E43
Encoding: 3651 3651 274
Width: 466
VWidth: 1533
Flags: W
HStem: -11 42<239.592 353.045> 204 38<239.573 351.279> 741 38<5.85869 119.406> 954 38<19.9947 118.672> 1038 34<56.1463 195.489>
VStem: -78 53<810.69 949.328> 138 77<60.3648 174.287 215 726.782> 150 39<809.614 923.834> 258 67<829.843 978.061> 382 38<59.8092 173.886>
Fore
296 242 m 0xfec0
 368 242 420 185 420 117 c 0
 420 37 359 -11 288 -11 c 0
 188 -11 138 57 138 146 c 2
 138 662 l 2xfec0
 138 766 258 768 258 903 c 0
 258 996 186 1038 112 1038 c 0
 87 1038 18 1030 -6 971 c 1
 15 985 38 992 63 992 c 0
 134 992 189 935 189 866 c 256xfdc0
 189 794 131 741 63 741 c 0
 -35 741 -78 823 -78 895 c 0
 -78 1011 30 1072 126 1072 c 256
 225 1072 325 1013 325 898 c 0
 325 795 215 782 215 688 c 2
 215 215 l 1
 224 223 247 242 296 242 c 0xfec0
63 779 m 256
 113 779 150 821 150 866 c 256xfdc0
 150 917 109 954 63 954 c 256
 17 954 -25 917 -25 866 c 256
 -25 816 18 779 63 779 c 256
296 31 m 256
 342 31 382 66 382 117 c 256
 382 166 341 204 296 204 c 256
 246 204 209 162 209 117 c 256
 209 66 250 31 296 31 c 256
EndSplineSet
EndChar
StartChar: uni0E44
Encoding: 3652 3652 275
Width: 466
VWidth: 1533
Flags: W
HStem: -11 42<239.592 353.045> 204 38<239.573 351.279>
VStem: 138 77<60.3648 174.287 215 949> 382 38<59.8092 173.886>
Fore
296 242 m 0
 368 242 420 185 420 117 c 0
 420 37 359 -11 288 -11 c 0
 188 -11 138 57 138 146 c 2
 138 949 l 1
 38 845 l 1
 4 907 -68 980 -158 1007 c 1
 -92 1053 l 1
 -26 1024 18 962 40 902 c 1
 135 1000 l 1
 215 1000 l 1
 215 215 l 1
 224 223 247 242 296 242 c 0
296 31 m 256
 342 31 382 66 382 117 c 256
 382 166 341 204 296 204 c 256
 246 204 209 162 209 117 c 256
 209 66 250 31 296 31 c 256
EndSplineSet
EndChar
StartChar: uni0E45
Encoding: 3653 3653 276
Width: 604
VWidth: 1533
Flags: W
HStem: 593 31<177.95 363.263>
VStem: 14 78<448.117 530.125> 435 77<-184 517.248>
Fore
270 624 m 0
 415 624 512 560 512 412 c 2
 512 -184 l 1
 435 -184 l 1
 435 422 l 2
 435 500 402 593 270 593 c 0
 128 593 99 482 92 437 c 1
 14 437 l 1
 32 562 138 624 270 624 c 0
EndSplineSet
EndChar
StartChar: uni0E46
Encoding: 3654 3654 277
Width: 674
VWidth: 1533
Flags: W
HStem: 262 35<163.761 275.421> 465 35<161.469 276.512> 586 38<169.906 274.322 368.396 477.872>
VStem: 61 68<348.241 485.133 454 538.538> 304 33<324.851 438.021> 506 77<-184 556.402>
Fore
445 624 m 0
 555 624 583 535 583 469 c 2
 583 -184 l 1
 506 -184 l 1
 506 460 l 2
 506 555 473 586 423 586 c 0
 380 586 352 558 337 526 c 1
 320 526 l 1
 308 559 278 586 236 586 c 0
 150 586 129 513 129 472 c 0
 129 454 l 1
 147 483 183 500 219 500 c 0
 286 500 337 447 337 382 c 0
 337 315 280 262 216 262 c 0
 92 262 61 380 61 451 c 0
 61 558 141 624 225 624 c 0
 246 624 308 617 330 564 c 1
 344 585 376 624 445 624 c 0
219 297 m 256
 269 297 304 336 304 382 c 256
 304 428 268 465 219 465 c 256
 170 465 135 428 135 382 c 256
 135 333 174 297 219 297 c 256
EndSplineSet
EndChar
StartChar: uni0E47
Encoding: 3655 3655 278
Width: 0
VWidth: 1533
Flags: W
HStem: 690 29<-310.988 -189.18> 690 38<-508.526 -412.6> 741 26<-259.343 -187.164> 862 26<-259.146 -175.004> 905 27<-404.323 -225.555>
VStem: -596 70<744.493 864.999> -301 34<775.753 853.655> -195 77<958.074 1010> -166 40<759.928 851.857>
Fore
-596 803 m 0x7e80
 -596 875 -563 932 -414 932 c 2
 -355 932 l 2
 -242 932 -195 948 -195 1010 c 1
 -118 1010 l 1
 -118 947 -152 905 -315 905 c 2
 -343 905 l 2
 -382 905 -451 902 -496 872 c 0
 -516 859 -526 836 -526 803 c 0
 -526 775 -513 728 -463 728 c 0x7f
 -440 728 -402 744 -397 779 c 1
 -359 779 l 1
 -350 732 -289 719 -262 719 c 0
 -225 719 -192 729 -178 754 c 1
 -188 747 -200 741 -216 741 c 0
 -250 741 -301 763 -301 814 c 0
 -301 868 -246 888 -215 888 c 0
 -162 888 -126 852 -126 802 c 0
 -126 723 -203 690 -259 690 c 0xbe80
 -324 690 -351 711 -379 747 c 1
 -414 703 -438 690 -477 690 c 0
 -530 690 -596 713 -596 803 c 0x7e80
-216 767 m 0
 -194 767 -166 786 -166 814 c 256x3e80
 -166 843 -194 862 -216 862 c 0
 -244 862 -267 843 -267 814 c 256
 -267 785 -242 767 -216 767 c 0
EndSplineSet
Substitution2: "Single Substitution lookup 22 subtable" uni0E47.alt1
Substitution2: "Single Substitution lookup 22 subtable" uni0E47.alt1
EndChar
StartChar: uni0E48
Encoding: 3656 3656 279
Width: 0
VWidth: 1533
Flags: W
HStem: 972 175<-169 -92 -169 -92 -169 -169>
VStem: -169 77<972 1147>
Fore
-169 972 m 1
 -169 1147 l 1
 -92 1147 l 1
 -92 972 l 1
 -169 972 l 1
EndSplineSet
Substitution2: "Single Substitution lookup 22 subtable" uni0E48.alt2
Substitution2: "Single Substitution lookup 22 subtable" uni0E48.alt2
EndChar
StartChar: uni0E49
Encoding: 3657 3657 280
Width: 0
VWidth: 1533
Flags: W
HStem: 1052 26<-320.639 -247.011> 1176 28<-320.074 -238.34>
VStem: -362 34<1085.77 1168.58> -230 37<1057.57 1167.95> -77 83<1115.76 1179>
Fore
-278 1204 m 0
 -226 1204 -193 1167 -193 1115 c 0
 -193 1087 -203 1039 -230 1004 c 1
 -151 1039 -100 1097 -77 1179 c 1
 6 1179 l 1
 -16 1059 -190 974 -297 966 c 1
 -257 1014 -241 1043 -235 1064 c 1
 -249 1056 -264 1052 -279 1052 c 0
 -317 1052 -362 1078 -362 1127 c 0
 -362 1177 -317 1204 -278 1204 c 0
-279 1078 m 0
 -251 1078 -230 1101 -230 1127 c 0
 -230 1156 -252 1176 -279 1176 c 256
 -308 1176 -328 1155 -328 1127 c 256
 -328 1098 -309 1078 -279 1078 c 0
EndSplineSet
Substitution2: "Single Substitution lookup 22 subtable" uni0E49.alt2
Substitution2: "Single Substitution lookup 22 subtable" uni0E49.alt2
EndChar
StartChar: uni0E4A
Encoding: 3658 3658 281
Width: 0
VWidth: 1533
Flags: W
HStem: 966 227<-300 -229 -271 -256 -256 -256> 966 31<-308.046 -223.113> 1095 26<-307.873 -224.863> 1164 29<-301.896 -213.876 -172.837 -83.7943>
VStem: -380 64<1009.94 1112.18 1095 1142.2> -216 27<1004.36 1086.07> -69 58<1037.94 1132.67> 35 56<1020.57 1160>
Fore
35 1098 m 2x1f
 35 1151 l 2
 35 1166 40 1179 51 1190 c 1
 112 1190 l 1
 93 1171 91 1153 91 1118 c 2
 91 1091 l 2
 91 1036 89 974 -83 974 c 1
 -92 984 l 1
 -72 1010 -69 1039 -69 1086 c 0
 -69 1105 -73 1123 -82 1140 c 0
 -91 1156 -106 1164 -129 1164 c 0
 -149 1164 -156 1159 -179 1136 c 1
 -195 1136 l 1
 -213 1157 -227 1164 -248 1164 c 0
 -287 1164 -322 1136 -322 1095 c 1
 -309 1112 -289 1121 -264 1121 c 0x3f
 -219 1121 -189 1082 -189 1041 c 0
 -189 994 -229 966 -271 966 c 0
 -342 966 -380 1019 -380 1082 c 0
 -380 1171 -300 1193 -256 1193 c 0x8f
 -219 1193 -205 1183 -187 1165 c 1
 -165 1183 -145 1193 -117 1193 c 0
 -48 1193 -11 1151 -11 1087 c 0
 -11 1058 -16 1028 -26 998 c 1
 21 1006 35 1048 35 1098 c 2x1f
-265 997 m 256x6f
 -237 997 -216 1015 -216 1046 c 0
 -216 1074 -239 1095 -265 1095 c 0
 -293 1095 -316 1075 -316 1046 c 256
 -316 1017 -296 997 -265 997 c 256x6f
EndSplineSet
Substitution2: "Single Substitution lookup 22 subtable" uni0E4A.alt2
Substitution2: "Single Substitution lookup 22 subtable" uni0E4A.alt2
EndChar
StartChar: uni0E4B
Encoding: 3659 3659 282
Width: 0
VWidth: 1533
Flags: W
HStem: 1070 34<-268 -161 -92 14>
VStem: -161 69<974 1070 1104 1200>
Fore
-92 1070 m 1
 -92 974 l 1
 -161 974 l 1
 -161 1070 l 1
 -268 1070 l 1
 -268 1104 l 1
 -161 1104 l 1
 -161 1200 l 1
 -92 1200 l 1
 -92 1104 l 1
 14 1104 l 1
 14 1070 l 1
 -92 1070 l 1
EndSplineSet
Substitution2: "Single Substitution lookup 22 subtable" uni0E4B.alt2
Substitution2: "Single Substitution lookup 22 subtable" uni0E4B.alt2
EndChar
StartChar: uni0E4C
Encoding: 3660 3660 283
Width: 0
VWidth: 1533
Flags: W
HStem: 908 30<-239.197 -144.747>
VStem: -296 43<952.054 1044.63> -130 38<952.945 1045.18>
Fore
-193 908 m 0
 -248 908 -296 944 -296 1003 c 0
 -296 1144 -86 1097 -86 1200 c 1
 -8 1184 l 1
 -8 1122 -102 1110 -159 1087 c 1
 -122 1077 -92 1042 -92 1000 c 0
 -92 937 -146 908 -193 908 c 0
-193 938 m 256
 -160 938 -130 963 -130 1000 c 256
 -130 1035 -158 1059 -193 1059 c 256
 -228 1059 -253 1035 -253 1000 c 256
 -253 966 -229 938 -193 938 c 256
EndSplineSet
Substitution2: "Single Substitution lookup 22 subtable" uni0E4C.alt2
Substitution2: "Single Substitution lookup 22 subtable" uni0E4C.alt2
EndChar
StartChar: uni0E4D
Encoding: 3661 3661 284
Width: 0
VWidth: 1533
Flags: W
HStem: 690 37<-185.513 -72.976> 895 40<-184.703 -72.013>
VStem: -251 38<755.31 866.545> -44 38<755.583 866.583>
Fore
-129 935 m 256
 -60 935 -6 880 -6 813 c 256
 -6 743 -62 690 -129 690 c 256
 -194 690 -251 742 -251 813 c 256
 -251 881 -196 935 -129 935 c 256
-129 727 m 256
 -80 727 -44 766 -44 811 c 256
 -44 861 -85 895 -129 895 c 256
 -178 895 -213 856 -213 811 c 256
 -213 762 -174 727 -129 727 c 256
EndSplineSet
Substitution2: "Single Substitution lookup 22 subtable" uni0E4D.alt1
Substitution2: "Single Substitution lookup 22 subtable" uni0E4D.alt1
EndChar
StartChar: uni0E4E
Encoding: 3662 3662 285
Width: 0
VWidth: 1533
Flags: W
HStem: 676 36<-280.149 -220.571 -224.344 -216.797 -216.797 -204> 978 39<-223.234 -147.285 -152.415 -142.154 -142.154 -124>
VStem: -363 62<720.632 801.691> -293 55<884.396 962.129>
Fore
-244 859 m 1
 -266 866 -293 885 -293 923 c 0
 -293 979 -262 1017 -178 1017 c 0
 -153 1017 -131 1015 -110 1010 c 1
 -124 975 l 1
 -131 977 -139 978 -161 978 c 0
 -199 978 -238 965 -238 912 c 0
 -238 899 -236 868 -173 863 c 1
 -184 839 l 1
 -232 834 -301 814 -301 750 c 0
 -301 718 -260 712 -231 712 c 0
 -219 712 -208 713 -192 713 c 1
 -204 681 l 1
 -225 678 -245 676 -265 676 c 0
 -312 676 -363 689 -363 744 c 0
 -363 777 -356 844 -244 859 c 1
EndSplineSet
Substitution2: "Single Substitution lookup 22 subtable" uni0E4E.alt1
Substitution2: "Single Substitution lookup 22 subtable" uni0E4E.alt1
EndChar
StartChar: uni0E4F
Encoding: 3663 3663 286
Width: 781
VWidth: 1533
Flags: W
HStem: -8 46<290.399 491.812> 115 54<316.277 463.604> 445 53<317.777 462.574> 575 46<288.411 492.832>
VStem: 77 46<202.434 408.832> 199 54<233.131 380.54> 529 54<233.413 379.937> 659 46<202.645 409.589>
Fore
391 621 m 256
 562 621 705 483 705 307 c 256
 705 128 560 -8 391 -8 c 256
 222 -8 77 128 77 307 c 256
 77 478 215 621 391 621 c 256
391 38 m 256
 535 38 659 156 659 307 c 256
 659 453 538 575 391 575 c 256
 245 575 123 454 123 307 c 256
 123 155 248 38 391 38 c 256
391 169 m 256
 467 169 529 230 529 307 c 256
 529 382 469 445 391 445 c 256
 313 445 253 382 253 307 c 256
 253 231 314 169 391 169 c 256
391 498 m 0
 498 498 583 407 583 307 c 0
 583 196 488 115 391 115 c 0
 285 115 199 204 199 307 c 0
 199 400 276 498 391 498 c 0
EndSplineSet
EndChar
StartChar: uni0E50
Encoding: 3664 3664 287
Width: 735
VWidth: 1533
Flags: W
HStem: -11 37<270.005 466.274> 434 37<270.005 466.274>
VStem: 74 78<139.312 320.688> 583 78<136.325 323.675>
Fore
368 471 m 256
 504 471 661 393 661 230 c 256
 661 67 504 -11 368 -11 c 256
 231 -11 74 67 74 230 c 256
 74 393 231 471 368 471 c 256
368 26 m 0
 491 26 583 108 583 230 c 256
 583 352 491 434 368 434 c 0
 248 434 152 352 152 230 c 256
 152 108 248 26 368 26 c 0
EndSplineSet
EndChar
StartChar: uni0E51
Encoding: 3665 3665 288
Width: 735
VWidth: 1533
Flags: W
HStem: -51 23<390.276 468.709> 0 38<232.712 373.368> 63 35<279.714 395.211> 265 36<280.677 394.561> 434 37<270.607 465.394>
VStem: 74 78<130.071 318.388> 219 34<124.979 237.502> 422 41<124.968 236.854> 583 78<130.638 319.324>
Fore
368 471 m 256
 504 471 661 393 661 230 c 0
 661 61 517 -25 396 -51 c 1
 356 -28 l 1
 492 3 583 108 583 225 c 0
 583 350 487 434 368 434 c 256
 240 434 152 344 152 227 c 0
 152 119 213 38 305 38 c 0
 340 38 382 55 399 86 c 1
 370 70 362 63 337 63 c 0
 270 63 219 116 219 181 c 256
 219 247 271 301 337 301 c 0
 418 301 463 245 463 170 c 0
 463 68 394 -0 291 0 c 0
 161 0 74 111 74 230 c 0
 74 393 231 471 368 471 c 256
337 98 m 256
 387 98 422 135 422 181 c 256
 422 227 387 265 337 265 c 256
 288 265 253 226 253 181 c 256
 253 135 288 98 337 98 c 256
EndSplineSet
EndChar
StartChar: uni0E52
Encoding: 3666 3666 289
Width: 735
VWidth: 1533
Flags: W
HStem: 0 38<120 616> 101 35<289.476 399.839> 304 35<287.262 402.286> 432 39<299.19 415.542 482.701 587.961> 602 20G<9.19048 60.5>
VStem: 43 77<38 551.675> 187 66<239.482 382.614> 429 34<164.837 277.021> 616 77<38 400.746>
Fore
555 471 m 256
 665 471 693 383 693 316 c 2
 693 0 l 1
 43 0 l 1
 43 495 l 2
 43 539 12 571 -28 580 c 1
 43 622 l 1
 78 614 120 585 120 530 c 2
 120 38 l 1
 616 38 l 1
 616 307 l 2
 616 400 583 432 534 432 c 0
 502 432 474 417 455 373 c 1
 438 373 l 1
 421 419 392 432 362 432 c 0
 287 432 253 357 253 321 c 0
 253 314 254 305 255 293 c 1
 272 322 309 339 345 339 c 0
 412 339 463 286 463 221 c 0
 463 151 401 101 342 101 c 0
 229 101 187 192 187 299 c 0
 187 396 253 471 351 471 c 0
 402 471 432 449 448 411 c 1
 472 451 508 471 555 471 c 256
345 136 m 0
 390 136 429 173 429 221 c 256
 429 267 394 304 345 304 c 256
 296 304 261 267 261 221 c 256
 261 172 300 136 345 136 c 0
EndSplineSet
EndChar
StartChar: uni0E53
Encoding: 3667 3667 290
Width: 735
VWidth: 1533
Flags: W
HStem: -11 39<188.193 305.836> 215 38<188.21 304.723> 432 39<213.964 334.193 407.25 528.117>
VStem: 69 84<96.6224 258.248 205 224.592 160.313 345.173> 340 39<62.0641 181.19> 567 77<0 387.406>
Fore
491 471 m 0
 613 471 644 373 644 305 c 2
 644 0 l 1
 567 0 l 1
 567 293 l 2
 567 355 547 432 469 432 c 0
 421 432 394 403 376 373 c 1
 359 373 l 1
 348 399 326 432 276 432 c 0
 200 432 146 354 146 244 c 0
 146 233 146 220 147 205 c 1
 169 237 205 253 247 253 c 0
 320 253 379 194 379 121 c 0
 379 49 323 -11 245 -11 c 0
 175 -11 69 25 69 235 c 0
 69 340 128 471 255 471 c 0
 323 471 351 440 368 411 c 1
 394 447 430 471 491 471 c 0
247 28 m 256
 300 28 340 72 340 121 c 256
 340 174 296 215 247 215 c 256
 194 215 153 170 153 121 c 256
 153 68 198 28 247 28 c 256
EndSplineSet
EndChar
StartChar: uni0E54
Encoding: 3668 3668 291
Width: 735
VWidth: 1533
Flags: W
HStem: -11 40<233.035 412.173> 21 19<542.161 647.801> 112 37<428.793 539.823> 311 37<428.729 540.062> 593 20G<642 719.5>
VStem: 61 82<119.334 298.116> 354 49<174.611 285.649> 566 38<176.312 283.935> 643 78<540.761 597.535 592.569 602.5 602.5 613>
Fore
721 572 m 0xbf80
 721 287 143 573 143 230 c 0
 143 133 180 29 330 29 c 0xbf80
 357 29 382 32 405 36 c 2
 478 52 l 1
 407 65 354 142 354 215 c 0
 354 292 402 348 483 348 c 0
 549 348 604 301 604 230 c 0
 604 166 553 112 484 112 c 0
 454 112 433 121 419 141 c 1
 464 64 599 43 691 40 c 1
 662 -6 l 1
 625 9 581 21 532 21 c 0x7f80
 434 21 402 -11 304 -11 c 0
 188 -11 61 36 61 222 c 0
 61 263 63 364 156 416 c 0
 300 497 544 408 625 522 c 0
 637 539 643 562 643 592 c 0
 643 599 643 606 642 613 c 1
 719 613 l 1
 720 601 721 587 721 572 c 0xbf80
484 149 m 256
 531 149 566 186 566 230 c 256
 566 274 531 311 484 311 c 256
 441 311 403 278 403 230 c 256
 403 181 442 149 484 149 c 256
EndSplineSet
EndChar
StartChar: uni0E55
Encoding: 3669 3669 292
Width: 735
VWidth: 1533
Flags: W
HStem: -11 40<234.147 412.173> 21 19<542.161 647.801> 112 37<428.793 539.823> 311 37<428.729 540.062> 604 34<308.425 424.8>
VStem: 61 82<123.495 328.402> 236 51<480.564 582.361> 354 49<174.611 285.649> 446 51<480.31 583.006> 566 38<176.312 283.935> 643 78<521.118 598.954 592.931 604.977 604.977 613>
Fore
475 460 m 2xbfe0
 565 460 643 499 643 597 c 0
 643 602 642 607 642 613 c 1
 719 613 l 1
 720 598 721 585 721 573 c 0
 721 531 712 502 686 480 c 0
 563 378 319 473 188 358 c 0
 158 332 143 290 143 233 c 0
 143 136 180 29 330 29 c 0xbfe0
 357 29 382 32 405 36 c 2
 478 52 l 1
 407 65 354 142 354 215 c 0
 354 292 402 348 483 348 c 0
 549 348 604 301 604 230 c 0
 604 166 553 112 484 112 c 0
 454 112 433 121 419 141 c 1
 464 64 599 43 691 40 c 1
 662 -6 l 1
 625 9 581 21 532 21 c 0x7fe0
 434 21 402 -11 304 -11 c 0
 146 -11 61 73 61 228 c 0
 61 410 207 447 274 455 c 1
 249 474 236 500 236 532 c 0
 236 605 311 638 366 638 c 256
 417 638 497 608 497 532 c 0
 497 503 486 479 463 460 c 1
 475 460 l 2xbfe0
366 460 m 256
 411 460 446 487 446 532 c 256
 446 578 410 604 366 604 c 256
 324 604 287 578 287 532 c 256
 287 485 324 460 366 460 c 256
484 149 m 256
 531 149 566 186 566 230 c 256
 566 274 531 311 484 311 c 256
 441 311 403 278 403 230 c 256
 403 181 442 149 484 149 c 256
EndSplineSet
EndChar
StartChar: uni0E56
Encoding: 3670 3670 293
Width: 735
VWidth: 1533
Flags: W
HStem: -11 39<258.646 474.868> 73 31<216.584 287.658> 267 37<177.723 288.749> 432 39<264.358 468.914> 604 20G<17 81>
VStem: 109 43<131.849 241.249> 314 42<130.572 241.589> 592 78<140.844 317.693>
Fore
376 471 m 0
 522 471 670 400 670 233 c 256
 670 81 538 -11 373 -11 c 0
 258 -11 109 42 109 182 c 0
 109 247 158 304 228 304 c 0
 292 304 356 252 356 184 c 0
 356 117 299 73 233 73 c 0
 228 73 222 73 216 74 c 1
 234 60 278 28 371 28 c 0
 499 28 592 110 592 232 c 256
 592 352 488 432 365 432 c 0
 283 432 212 402 167 340 c 1
 149 340 l 1
 132 423 51 546 -18 584 c 1
 52 624 l 1
 110 584 167 463 175 394 c 1
 223 452 336 471 376 471 c 0
233 104 m 256
 277 104 314 139 314 186 c 256
 314 229 281 267 233 267 c 256
 184 267 152 228 152 186 c 256
 152 139 189 104 233 104 c 256
EndSplineSet
EndChar
StartChar: uni0E57
Encoding: 3671 3671 294
Width: 735
VWidth: 1533
Flags: W
HStem: -11 39<121.012 236.836> 215 38<119.21 235.723> 432 39<144.968 265.193 337.791 447.51> 602 20G<689.5 749.293>
VStem: 0 75<155.849 345.428> 271 39<62.0641 181.19> 498 77<100.027 364.3> 642 74<264.93 553.598> 655 73<126.357 467.57>
Fore
655 258 m 0xfe80
 655 346 642 389 642 477 c 0
 642 534 658 612 721 622 c 1
 779 581 l 1
 762 577 716 563 716 466 c 0xff
 716 385 728 345 728 264 c 0
 728 163 694 0 552 0 c 2
 474 0 l 1
 463 12 l 1
 489 62 498 146 498 219 c 0
 498 294 489 432 397 432 c 0
 361 432 338 420 307 373 c 1
 290 373 l 1
 279 399 257 432 207 432 c 0
 112 432 75 320 75 245 c 0
 75 233 76 229 78 205 c 1
 100 237 136 253 178 253 c 0
 251 253 310 194 310 121 c 0
 310 49 254 -11 176 -11 c 0
 35 -11 0 129 0 235 c 0
 0 340 59 471 186 471 c 0
 254 471 282 440 299 411 c 1
 326 451 364 471 412 471 c 0
 542 471 575 330 575 244 c 0
 575 124 561 67 543 29 c 1
 632 42 655 179 655 258 c 0xfe80
178 28 m 256
 231 28 271 72 271 121 c 256
 271 174 227 215 178 215 c 256
 125 215 84 170 84 121 c 256
 84 68 129 28 178 28 c 256
EndSplineSet
EndChar
StartChar: uni0E58
Encoding: 3672 3672 295
Width: 735
VWidth: 1533
Flags: W
HStem: -11 37<194.315 309.566 428.664 581.369> 66 37<496.945 607.707> 265 37<496.386 607.676> 593 20G<627 704.5>
VStem: 61 82<94.2317 323.034> 432 39<129.277 238.65> 628 78<524.484 597.762 592.046 603.477 603.477 613> 633 49<128.594 239.451>
Fore
236 -11 m 0xfd
 96 -11 61 115 61 219 c 0
 61 411 190 450 247 460 c 0
 282 465 317 468 354 470 c 2
 460 472 l 2
 598 477 628 534 628 594 c 0
 628 600 628 606 627 613 c 1
 704 613 l 1
 705 600 706 586 706 571 c 0xfe
 706 520 685 452 536 443 c 2
 432 437 l 2
 275 428 143 404 143 213 c 0
 143 132 155 26 261 26 c 0
 315 26 343 84 351 113 c 1
 368 113 l 1
 391 60 450 23 504 23 c 0
 559 23 598 47 621 95 c 1
 616 87 600 66 552 66 c 0
 486 66 432 118 432 184 c 0
 432 255 488 302 553 302 c 0
 635 302 682 246 682 169 c 0
 682 71 615 -11 514 -11 c 0
 447 -11 397 17 362 74 c 1
 330 11 286 -11 236 -11 c 0xfd
552 103 m 256
 599 103 633 140 633 184 c 256xfd
 633 231 596 265 552 265 c 256
 505 265 471 228 471 184 c 256
 471 137 508 103 552 103 c 256
EndSplineSet
EndChar
StartChar: uni0E59
Encoding: 3673 3673 296
Width: 766
VWidth: 1533
Flags: W
HStem: -8 39<159.156 301.995> 55 35<206.488 303.797> 258 35<207.259 320.239> 409 46<582.817 667.169> 434 37<173.063 346.554> 593 20G<739 816.5>
VStem: 0 78<127.479 334.537> 146 33<116.979 230.126> 348 41<116.935 231.154> 511 39<313 371.779> 745 72<486.135 597.465 596.908 598.021 598.021 613>
Fore
707 417 m 1xf7e0
 733 450 745 508 745 559 c 0
 745 578 743 597 739 613 c 1
 816 613 l 1
 817 600 817 590 817 581 c 0
 817 518 769 400 708 366 c 1
 697 387 667 409 639 409 c 0xf7e0
 572 409 550 349 550 287 c 0
 550 223 589 78 661 0 c 1
 573 0 l 1
 479 130 468 434 265 434 c 0
 115 434 78 313 78 230 c 0
 78 146 123 31 232 31 c 0
 267 31 309 47 325 78 c 1
 286 55 276 55 264 55 c 0
 197 55 146 108 146 173 c 256
 146 239 198 293 264 293 c 0
 344 293 389 236 389 163 c 0
 389 58 318 -8 218 -8 c 0
 87 -8 0 105 0 228 c 0
 0 389 118 471 265 471 c 0xefe0
 391 471 470 408 511 313 c 1
 511 436 576 455 621 455 c 0
 638 455 663 455 707 417 c 1xf7e0
264 90 m 256
 313 90 348 127 348 173 c 256
 348 223 310 258 264 258 c 256
 214 258 179 220 179 173 c 256
 179 127 215 90 264 90 c 256
EndSplineSet
EndChar
StartChar: uni0E5A
Encoding: 3674 3674 297
Width: 820
VWidth: 1533
Flags: W
HStem: 0 21G<471 547 673 750> 356 36<185.074 322.181> 583 38<86.4972 191.573>
VStem: 23 40<455.794 559.419> 215 41<456.75 558.763> 471 76<0 0 0 383 425 475.845 475.845 517> 673 77<0 517>
Fore
672 621 m 1
 747 621 750 574 750 555 c 2
 750 0 l 1
 673 0 l 1
 673 517 l 1
 655 454 586 404 547 383 c 1
 547 0 l 1
 471 0 l 1
 471 517 l 1
 445 429 324 356 230 356 c 0
 159 356 23 386 23 507 c 0
 23 575 73 621 138 621 c 256
 203 621 256 575 256 507 c 0
 256 461 223 409 175 399 c 1
 186 397 208 392 230 392 c 0
 356 392 445 501 469 621 c 1
 515 621 553 605 553 520 c 0
 553 491 547 463 547 425 c 1
 618 469 659 554 672 621 c 1
215 507 m 0
 215 551 178 583 138 583 c 256
 98 583 63 551 63 507 c 256
 63 468 95 432 138 432 c 256
 181 432 215 468 215 507 c 0
EndSplineSet
EndChar
StartChar: uni0E5B
Encoding: 3675 3675 298
Width: 1289
VWidth: 1533
Flags: W
HStem: 32 39<233.493 421.939> 161 38<287.074 401.917> 212 36<1001 1026.73 1026.73 1144.62> 386 39<284.81 403.345> 538 38<217.089 372.539>
VStem: 46 84<195.011 417.57> 213 38<235.118 350.723> 443 69<251.428 399.785 376 446.581>
Fore
877 411 m 1
 918 391 981 314 1001 248 c 1
 1042 248 1021 247 1052 247 c 0
 1090 247 1149 253 1242 274 c 1
 1237 267 l 1
 1196 243 1092 216 994 212 c 1
 983 238 951 294 906 327 c 1
 894 175 l 1
 885 172 l 1
 869 204 829 272 773 316 c 1
 753 133 l 1
 741 130 l 1
 716 206 670 272 622 314 c 1
 600 191 485 32 325 32 c 0
 181 32 46 134 46 302 c 0
 46 446 140 576 305 576 c 0
 446 576 512 453 512 330 c 0
 512 241 433 161 345 161 c 0
 272 161 213 220 213 293 c 256
 213 366 272 425 345 425 c 0
 384 425 421 408 443 376 c 1
 443 395 l 2
 443 480 369 538 305 538 c 0
 165 538 130 428 130 302 c 256
 130 181 192 71 325 71 c 0
 515 71 599 286 599 438 c 1
 653 405 725 275 739 212 c 1
 744 425 l 1
 800 379 849 308 880 232 c 1
 877 411 l 1
345 199 m 256
 398 199 438 244 438 293 c 256
 438 346 394 386 345 386 c 256
 292 386 251 342 251 293 c 256
 251 240 296 199 345 199 c 256
EndSplineSet
EndChar
StartChar: zerowidthnonjoiner
Encoding: 8204 8204 299
Width: 0
VWidth: 1533
Flags: W
HStem: -454 807<-40 41 -40 41 -40 -40>
VStem: -40 81<-454 353>
Fore
-40 -454 m 1
 -40 353 l 1
 41 353 l 1
 41 -454 l 1
 -40 -454 l 1
EndSplineSet
EndChar
StartChar: zerowidthjoiner
Encoding: 8205 8205 300
Width: 0
VWidth: 1533
Flags: W
VStem: -40 81<-454 192>
Fore
-107 190 m 1
 -32 265 l 1
 -107 340 l 1
 -75 373 l 1
 0 297 l 1
 75 373 l 1
 107 340 l 1
 32 265 l 1
 107 190 l 1
 75 158 l 1
 41 192 l 1
 41 -454 l 1
 -40 -454 l 1
 -40 193 l 1
 -75 158 l 1
 -107 190 l 1
0 233 m 1
 0 233 l 1
EndSplineSet
EndChar
StartChar: lefttorightmark
Encoding: 8206 8206 301
Width: 0
VWidth: 1533
Flags: W
HStem: 301 52<41 179>
VStem: -40 81<-454 301>
Fore
166 218 m 1
 132 251 l 1
 181 301 l 1
 41 301 l 1
 41 -454 l 1
 -40 -454 l 1
 -40 353 l 1
 179 353 l 1
 132 400 l 1
 166 434 l 1
 274 327 l 1
 166 218 l 1
EndSplineSet
EndChar
StartChar: righttoleftmark
Encoding: 8207 8207 302
Width: 0
VWidth: 1533
Flags: W
HStem: 301 52<-179 -41>
VStem: -274 314<327 353 327 327> -41 81<-454 301>
Fore
-274 327 m 1xc0
 -166 434 l 1
 -132 400 l 1
 -179 353 l 1
 40 353 l 1xc0
 40 -454 l 1
 -41 -454 l 1
 -41 301 l 1xa0
 -181 301 l 1
 -132 251 l 1
 -166 218 l 1
 -274 327 l 1xc0
EndSplineSet
EndChar
StartChar: endash
Encoding: 8211 8211 303
Width: 550
VWidth: 1533
Flags: W
HStem: 265 51<0 550>
VStem: 0 550<265 316 265 316 265 265>
Fore
0 316 m 1
 550 316 l 1
 550 265 l 1
 0 265 l 1
 0 316 l 1
EndSplineSet
EndChar
StartChar: emdash
Encoding: 8212 8212 304
Width: 1110
VWidth: 1533
Flags: W
HStem: 265 51<0 1110>
VStem: 0 1110<265 316 265 316 265 265>
Fore
0 316 m 1
 1110 316 l 1
 1110 265 l 1
 0 265 l 1
 0 316 l 1
EndSplineSet
EndChar
StartChar: quoteleft
Encoding: 8216 8216 305
Width: 136
VWidth: 1533
Flags: W
HStem: 507 105<47.03 104.611>
VStem: 9 34<563.094 671.149>
Fore
95 733 m 1
 72 711 43 665 43 620 c 0
 43 616 43 611 44 607 c 1
 49 610 56 612 66 612 c 0
 92 612 117 592 117 563 c 0
 117 531 90 507 63 507 c 256
 41 507 9 519 9 587 c 0
 9 679 76 731 92 741 c 1
 95 733 l 1
EndSplineSet
EndChar
StartChar: quoteright
Encoding: 8217 8217 306
Width: 137
VWidth: 1533
Flags: W
HStem: 636 105<32.4641 91.7983>
VStem: 95 34<576.2 684.406>
Fore
41 514 m 1
 66 535 95 582 95 628 c 0
 95 632 95 637 94 641 c 1
 91 638 83 636 72 636 c 0
 49 636 20 656 20 685 c 0
 20 717 47 741 75 741 c 256
 97 741 129 728 129 661 c 0
 129 569 61 516 48 507 c 1
 41 514 l 1
EndSplineSet
EndChar
StartChar: quotesinglbase
Encoding: 8218 8218 307
Width: 136
VWidth: 1533
Flags: W
HStem: -8 103<30.382 89.8906>
VStem: 93 36<-68.8666 39.8825>
Fore
41 -129 m 1
 64 -108 93 -63 93 -19 c 0
 93 -14 93 -8 92 -3 c 1
 89 -6 82 -8 71 -8 c 0
 45 -8 20 12 20 43 c 0
 20 71 43 95 74 95 c 256
 96 95 129 83 129 18 c 0
 129 -74 65 -125 46 -135 c 1
 41 -129 l 1
EndSplineSet
EndChar
StartChar: quotedblleft
Encoding: 8220 8220 308
Width: 323
VWidth: 1533
Flags: W
HStem: 507 105<67.0366 126.228 234.925 291.611>
VStem: 29 34<564.117 671.62> 195 35<563.164 671.844>
Fore
282 733 m 1
 264 716 230 669 230 627 c 0
 230 620 231 614 232 607 c 1
 237 610 243 612 251 612 c 0
 277 612 304 592 304 563 c 0
 304 531 277 507 250 507 c 256
 228 507 195 519 195 587 c 0
 195 679 264 733 276 741 c 1
 282 733 l 1
118 733 m 1
 94 712 63 666 63 621 c 0
 63 616 63 612 64 607 c 1
 69 610 76 612 87 612 c 0
 112 612 138 592 138 563 c 0
 138 531 113 507 84 507 c 256
 62 507 29 521 29 587 c 0
 29 679 96 731 112 741 c 1
 118 733 l 1
EndSplineSet
EndChar
StartChar: quotedblright
Encoding: 8221 8221 309
Width: 323
VWidth: 1533
Flags: W
HStem: 636 105<32.4641 91.7983 198.313 257.056>
VStem: 95 34<576.2 684.406> 262 34<577.204 682.25 634.5 641>
Fore
41 514 m 1
 66 535 95 582 95 628 c 0
 95 632 95 637 94 641 c 1
 91 638 83 636 72 636 c 0
 49 636 20 656 20 685 c 0
 20 717 47 741 75 741 c 256
 97 741 129 728 129 661 c 0
 129 569 61 516 48 507 c 1
 41 514 l 1
207 514 m 1
 232 535 262 582 262 628 c 0
 262 632 261 637 261 641 c 1
 254 638 247 636 239 636 c 0
 209 636 187 658 187 685 c 0
 187 717 211 741 239 741 c 0
 260 741 296 730 296 661 c 0
 296 569 227 516 213 507 c 1
 207 514 l 1
EndSplineSet
EndChar
StartChar: quotedblbase
Encoding: 8222 8222 310
Width: 321
VWidth: 1533
Flags: W
HStem: -8 103<30.382 89.8906 194.449 254.884>
VStem: 93 36<-68.8666 39.8825> 259 34<-67.9526 40.9059>
Fore
41 -129 m 1
 64 -108 93 -63 93 -19 c 0
 93 -14 93 -8 92 -3 c 1
 89 -6 82 -8 71 -8 c 0
 45 -8 20 12 20 43 c 0
 20 71 43 95 74 95 c 256
 96 95 129 83 129 18 c 0
 129 -74 65 -125 46 -135 c 1
 41 -129 l 1
204 -129 m 1
 230 -107 259 -61 259 -16 c 0
 259 -12 259 -7 258 -3 c 1
 253 -6 245 -8 236 -8 c 0
 210 -8 184 11 184 43 c 0
 184 71 207 95 239 95 c 0
 261 95 293 85 293 18 c 0
 293 -74 229 -125 210 -135 c 1
 204 -129 l 1
EndSplineSet
EndChar
StartChar: dagger
Encoding: 8224 8224 311
Width: 613
VWidth: 1533
Flags: W
HStem: 405 63<60 271 350 561> 696 20G<271 350>
VStem: 271 79<-143 405 468 716>
Fore
271 468 m 1
 271 716 l 1
 350 716 l 1
 350 468 l 1
 561 468 l 1
 561 405 l 1
 350 405 l 1
 350 -143 l 1
 271 -143 l 1
 271 405 l 1
 60 405 l 1
 60 468 l 1
 271 468 l 1
EndSplineSet
EndChar
StartChar: daggerdbl
Encoding: 8225 8225 312
Width: 613
VWidth: 1533
Flags: W
HStem: 109 54<60 271 339 550> 415 53<60 271 339 550> 698 20G<271 339>
VStem: 271 68<-141 109 163 415 468 718>
Fore
271 163 m 1
 271 415 l 1
 60 415 l 1
 60 468 l 1
 271 468 l 1
 271 718 l 1
 339 718 l 1
 339 468 l 1
 550 468 l 1
 550 415 l 1
 339 415 l 1
 339 163 l 1
 550 163 l 1
 550 109 l 1
 339 109 l 1
 339 -141 l 1
 271 -141 l 1
 271 109 l 1
 60 109 l 1
 60 163 l 1
 271 163 l 1
EndSplineSet
EndChar
StartChar: bullet
Encoding: 8226 8226 313
Width: 553
VWidth: 1533
Flags: W
HStem: 176 362<193.143 358.603>
VStem: 95 363<273.367 440.633>
Fore
276 176 m 0
 175 176 95 262 95 357 c 0
 95 456 173 538 276 538 c 0
 385 538 458 451 458 357 c 0
 458 263 379 176 276 176 c 0
EndSplineSet
EndChar
StartChar: ellipsis
Encoding: 8230 8230 314
Width: 1110
VWidth: 1533
Flags: W
HStem: -14 108<134.542 218.846 512.558 596.458 886.213 970.613>
VStem: 124 106<-2.77067 83.3911> 501 106<-2.77067 83.2295> 874 107<-1.84462 82.3035>
Fore
176 94 m 256
 207 94 230 70 230 41 c 0
 230 9 205 -14 176 -14 c 256
 148 -14 124 9 124 41 c 0
 124 72 148 94 176 94 c 256
555 94 m 256
 583 94 607 72 607 41 c 0
 607 9 583 -14 555 -14 c 256
 527 -14 501 9 501 41 c 0
 501 72 528 94 555 94 c 256
929 94 m 256
 960 94 981 69 981 41 c 0
 981 12 960 -14 929 -14 c 256
 903 -14 874 8 874 41 c 0
 874 73 903 94 929 94 c 256
EndSplineSet
EndChar
StartChar: perthousand
Encoding: 8240 8240 315
Width: 1117
VWidth: 1533
Flags: W
HStem: -2 30<506.007 610.742 883.885 986.669> 301 29<132.61 235.715> 356 30<507.443 613.782 882.707 985.551> 658 30<132.45 234.617>
VStem: 25 61<397.636 589.005> 282 60<401.049 590.55> 400 60<97.3959 288.742> 659 59<97.7788 288.689> 776 60<96.7297 289.424> 1033 59<97.3463 285.586>
Fore
935 386 m 0
 1043 386 1092 266 1092 193 c 0
 1092 105 1033 -2 935 -2 c 0
 841 -2 776 95 776 193 c 256
 776 293 841 386 935 386 c 0
560 386 m 256
 655 386 718 288 718 193 c 256
 718 100 655 -2 560 -2 c 256
 464 -2 400 98 400 193 c 256
 400 281 458 386 560 386 c 256
178 -17 m 1
 138 -17 l 1
 563 705 l 1
 603 705 l 1
 178 -17 l 1
182 688 m 256
 284 688 342 583 342 495 c 256
 342 405 282 301 184 301 c 256
 88 301 25 397 25 495 c 0
 25 585 85 688 182 688 c 256
935 28 m 0
 1012 28 1033 134 1033 193 c 0
 1033 247 1013 356 935 356 c 256
 856 356 836 248 836 193 c 0
 836 132 858 28 935 28 c 0
659 198 m 0
 659 248 639 356 561 356 c 256
 483 356 460 256 460 193 c 256
 460 132 481 28 560 28 c 0
 640 28 659 138 659 198 c 0
184 330 m 256
 261 330 282 436 282 495 c 0
 282 549 262 658 184 658 c 256
 106 658 86 549 86 495 c 0
 86 436 107 330 184 330 c 256
EndSplineSet
EndChar
StartChar: minute
Encoding: 8242 8242 316
Width: 223
VWidth: 1533
Flags: W
HStem: 497 290
VStem: 44 152<497 757 497 497>
Fore
161 787 m 256
 189 787 196 766 196 757 c 0
 196 749 194 740 190 731 c 2
 77 497 l 1
 44 497 l 1
 123 756 l 2
 127 772 138 787 161 787 c 256
EndSplineSet
EndChar
StartChar: second
Encoding: 8243 8243 317
Width: 351
VWidth: 1533
Flags: W
HStem: 497 290<176 189>
VStem: 44 284<497 757 497 497>
Fore
161 787 m 256
 189 787 196 766 196 757 c 0
 196 749 194 740 190 731 c 2
 77 497 l 1
 44 497 l 1
 123 756 l 2
 127 772 138 787 161 787 c 256
293 787 m 256
 321 787 328 766 328 757 c 0
 328 749 326 740 322 731 c 2
 209 497 l 1
 176 497 l 1
 255 756 l 2
 259 772 270 787 293 787 c 256
EndSplineSet
EndChar
StartChar: guilsinglleft
Encoding: 8249 8249 318
Width: 275
VWidth: 1533
Flags: W
HStem: 72 391<195 196 195 195>
VStem: 28 231<72 267 267 267>
Fore
196 72 m 1
 28 267 l 1
 195 463 l 1
 258 463 l 1
 92 267 l 1
 259 72 l 1
 196 72 l 1
EndSplineSet
EndChar
StartChar: guilsinglright
Encoding: 8250 8250 319
Width: 275
VWidth: 1533
Flags: W
HStem: 72 391<15 80 15 15>
VStem: 15 232<267 463 463 463>
Fore
80 72 m 1
 17 72 l 1
 182 267 l 1
 15 463 l 1
 80 463 l 1
 247 267 l 1
 80 72 l 1
EndSplineSet
EndChar
StartChar: fraction
Encoding: 8260 8260 320
Width: 177
VWidth: 1533
Flags: W
HStem: -20 21G<-186 -126.29> 685 20G<299.234 357>
Fore
357 705 m 1
 -140 -20 l 1
 -186 -20 l 1
 313 705 l 1
 357 705 l 1
EndSplineSet
EndChar
StartChar: Euro
Encoding: 8364 8364 321
Width: 732
VWidth: 1533
Flags: W
HStem: -18 26<365.269 548.791> 255 38<52 112 225 544> 396 38<52 115 225 590> 538 21G<623.5 733> 684 21<363.597 554.853>
VStem: 110 109<293 308.385 308.385 318.523 318.523 386.431> 118 107<187.668 255 383.673 396 434 499.792> 644 89<538 601.095>
Fore
121 434 m 1xfd
 163 623 315 705 460 705 c 0
 634 705 699 623 733 538 c 1
 644 538 l 1
 603 671 521 684 461 684 c 0
 319 684 246 582 225 434 c 1xfb
 606 434 l 1
 590 396 l 1
 221 396 l 1
 220 387 219 378 219 368 c 2
 219 324 l 2xfd
 219 311 220 301 221 293 c 1
 560 293 l 1
 544 255 l 1
 225 255 l 1
 242 123 308 8 468 8 c 0
 563 8 629 89 649 141 c 1
 701 86 l 1
 669 46 608 -18 469 -18 c 0
 291 -18 149 86 118 255 c 1xfb
 37 255 l 1
 52 293 l 1
 112 293 l 1
 111 310 110 328 110 344 c 0
 110 362 112 379 115 396 c 1
 37 396 l 1
 52 434 l 1
 121 434 l 1xfd
EndSplineSet
EndChar
StartChar: uni2113
Encoding: 8467 8467 322
Width: 492
VWidth: 1533
Flags: W
HStem: -18 41<243.318 365.287> 722 26<219.834 297.921>
VStem: 106 86<159.812 247 281 307 350.772 608.562> 322 58<502.558 670.416> 415 69<68.3657 132.133>
Fore
192 242 m 2
 192 171 191 23 304 23 c 0
 371 23 411 86 415 140 c 1
 484 127 l 1
 471 56 404 -18 276 -18 c 0
 158 -18 116 67 110 154 c 0
 107 185 106 216 106 247 c 1
 23 202 l 1
 15 222 l 1
 43 239 71 255 106 281 c 1
 106 330 104 354 104 404 c 0
 104 669 170 748 270 748 c 0
 348 748 380 682 380 610 c 0
 380 561 373 443 192 307 c 1
 192 242 l 2
192 350 m 1
 307 463 322 543 322 604 c 0
 322 634 312 722 264 722 c 0
 198 722 192 636 192 578 c 2
 192 350 l 1
EndSplineSet
EndChar
StartChar: trademark
Encoding: 8482 8482 323
Width: 1090
VWidth: 1533
Flags: W
HStem: 256 460<491 737 327 491> 681 35<29 193 259 423>
VStem: 193 66<265 681> 491 43<265 627> 935 68<265 641>
Fore
935 265 m 1x78
 935 641 l 1
 737 256 l 1
 721 256 l 1
 534 627 l 1
 534 265 l 1
 491 265 l 1
 491 716 l 1
 569 716 l 1xb8
 744 351 l 1
 931 716 l 1
 1003 716 l 1
 1003 265 l 1
 935 265 l 1x78
259 681 m 1x78
 259 265 l 1
 193 265 l 1
 193 681 l 1
 29 681 l 1
 29 716 l 1x78
 423 716 l 1xb8
 423 681 l 1
 259 681 l 1x78
EndSplineSet
EndChar
StartChar: Ohm
Encoding: 8486 8486 324
Width: 941
VWidth: 1533
Flags: W
HStem: 0 66<74 313 629 868> 672 35<357.335 587.305>
VStem: 97 113<275.421 500.071> 731 114<272.148 498.209>
Fore
845 385 m 0
 845 216 713 116 629 66 c 1
 883 66 l 1
 868 0 l 1
 570 0 l 1
 561 17 l 1
 632 104 l 2
 703 193 731 287 731 391 c 0
 731 514 679 672 471 672 c 0
 262 672 210 511 210 391 c 0
 210 276 239 194 310 104 c 2
 382 17 l 1
 373 0 l 1
 74 0 l 1
 58 66 l 1
 313 66 l 1
 230 114 97 217 97 385 c 0
 97 600 286 707 471 707 c 256
 671 707 845 587 845 385 c 0
EndSplineSet
EndChar
StartChar: estimated
Encoding: 8494 8494 325
Width: 533
VWidth: 1533
Flags: W
HStem: -18 36<211.379 355.254> 366 37<129 423> 567 34<204.894 340.552>
VStem: 29 85<165.111 385.56> 434 72<118.412 202>
Fore
114 309 m 0
 114 60 218 18 287 18 c 0
 387 18 426 127 434 202 c 1
 506 202 l 1
 501 96 420 -18 287 -18 c 0
 118 -18 29 143 29 284 c 0
 29 462 128 601 276 601 c 0
 426 601 499 485 511 366 c 1
 120 366 l 1
 116 354 114 333 114 309 c 0
423 403 m 1
 410 467 368 567 271 567 c 0
 186 567 140 477 129 403 c 1
 423 403 l 1
EndSplineSet
EndChar
StartChar: partialdiff
Encoding: 8706 8706 326
Width: 648
VWidth: 1533
Flags: W
HStem: -18 39<212.633 354.641> 403 46<252.993 367.102> 741 42<216.053 394.329>
VStem: 52 106<100.532 290.397> 504 94<343.07 547.014>
Fore
64 678 m 1
 103 749 199 783 288 783 c 0
 476 783 598 611 598 403 c 0
 598 179 478 -18 281 -18 c 0
 137 -18 52 70 52 210 c 0
 52 363 194 449 320 449 c 0
 342 449 426 447 497 366 c 1
 501 396 504 425 504 458 c 0
 504 619 430 741 319 741 c 0
 216 741 175 697 147 655 c 1
 64 678 l 1
158 169 m 0
 158 114 183 21 285 21 c 0
 400 21 468 164 488 325 c 1
 435 398 366 403 340 403 c 0
 208 403 158 291 158 169 c 0
EndSplineSet
EndChar
StartChar: Delta
Encoding: 8710 8710 327
Width: 657
VWidth: 1533
Flags: W
HStem: 0 55<75 530>
Fore
0 0 m 1
 307 745 l 1
 658 0 l 1
 0 0 l 1
290 575 m 1
 75 55 l 1
 530 55 l 1
 290 575 l 1
EndSplineSet
EndChar
StartChar: product
Encoding: 8719 8719 328
Width: 728
VWidth: 1533
Flags: W
HStem: 667 38<182 546>
VStem: 89 93<-86 667> 546 95<-86 667>
Fore
546 -86 m 1
 546 667 l 1
 182 667 l 1
 182 -86 l 1
 89 -86 l 1
 89 705 l 1
 641 705 l 1
 641 -86 l 1
 546 -86 l 1
EndSplineSet
EndChar
StartChar: summation
Encoding: 8721 8721 329
Width: 679
VWidth: 1533
Flags: W
HStem: -87 81<124 604> 665 39<172 603>
Fore
604 -87 m 1
 32 -87 l 1
 32 -60 l 1
 305 296 l 1
 40 678 l 1
 40 704 l 1
 603 704 l 1
 606 665 l 1
 172 665 l 1
 391 347 l 1
 124 -6 l 1
 626 -6 l 1
 604 -87 l 1
EndSplineSet
EndChar
StartChar: minus
Encoding: 8722 8722 330
Width: 662
VWidth: 1533
Flags: W
HStem: 259 65<46 616>
VStem: 46 570<259 324 259 324 259 259>
Fore
46 324 m 1
 616 324 l 1
 616 259 l 1
 46 259 l 1
 46 324 l 1
EndSplineSet
EndChar
StartChar: radical
Encoding: 8730 8730 331
Width: 645
VWidth: 1533
Flags: W
Fore
415 -149 m 1
 150 420 l 1
 48 366 l 1
 35 394 l 1
 212 484 l 1
 423 14 l 1
 432 14 l 1
 593 914 l 1
 629 905 l 1
 434 -138 l 1
 415 -149 l 1
EndSplineSet
EndChar
StartChar: infinity
Encoding: 8734 8734 332
Width: 1002
VWidth: 1533
Flags: W
HStem: 213 52<188.949 346.161 657.012 812.561> 541 54<193.499 341.77 661.855 810.165>
VStem: 31 98<328.866 477.294> 874 98<330.396 473.492>
Fore
500 350 m 1
 385 221 307 213 259 213 c 0
 153 213 31 275 31 403 c 256
 31 557 170 595 264 595 c 0
 359 595 445 526 501 454 c 1
 536 495 622 595 739 595 c 0
 833 595 972 557 972 403 c 256
 972 273 847 213 744 213 c 0
 695 213 610 223 500 350 c 1
744 265 m 0
 823 265 874 339 874 403 c 0
 874 479 810 541 739 541 c 0
 624 541 555 413 547 402 c 1
 579 345 638 265 744 265 c 0
129 403 m 0
 129 341 176 265 259 265 c 0
 377 265 438 369 455 402 c 1
 407 482 340 541 264 541 c 0
 196 541 129 484 129 403 c 0
EndSplineSet
EndChar
StartChar: integral
Encoding: 8747 8747 333
Width: 423
VWidth: 1533
Flags: W
HStem: -210 37<100.52 163.375> 834 38<260.352 326.534>
VStem: 166 73<255.252 728.828> 187 77<-65.2464 526.348>
Fore
166 501 m 0xe0
 166 628 171 872 330 872 c 0
 348 872 381 866 420 803 c 1
 359 771 l 1
 340 831 311 834 293 834 c 0
 271 834 239 812 239 696 c 0xe0
 239 477 264 329 264 132 c 0
 264 -39 231 -210 97 -210 c 0
 44 -210 12 -150 8 -141 c 1
 67 -110 l 1
 87 -168 112 -173 133 -173 c 0
 176 -173 187 -99 187 18 c 0xd0
 187 211 166 296 166 501 c 0xe0
EndSplineSet
EndChar
StartChar: approxequal
Encoding: 8776 8776 334
Width: 659
VWidth: 1533
Flags: W
HStem: 115 54<374.855 517.031> 199 54<140.398 291.65> 314 56<374.504 516.947> 399 55<142.022 291.655>
Fore
205 399 m 0
 145 399 102 345 86 320 c 1
 51 354 l 1
 63 376 117 454 216 454 c 0
 320 454 361 370 451 370 c 0
 522 370 561 434 570 449 c 1
 607 412 l 1
 576 365 516 314 455 314 c 0
 338 314 316 399 205 399 c 0
205 199 m 0
 145 199 102 146 86 121 c 1
 51 155 l 1
 64 179 117 253 216 253 c 0
 320 253 361 169 451 169 c 0
 513 169 553 218 570 248 c 1
 607 213 l 1
 576 166 516 115 455 115 c 0
 340 115 315 199 205 199 c 0
EndSplineSet
EndChar
StartChar: notequal
Encoding: 8800 8800 335
Width: 659
VWidth: 1533
Flags: W
HStem: 143 55<58 235 313 601> 366 56<58 339 419 601>
Fore
469 532 m 1
 419 422 l 1
 601 422 l 1
 601 366 l 1
 391 366 l 1
 313 198 l 1
 601 198 l 1
 601 143 l 1
 287 143 l 1
 225 11 l 1
 181 31 l 1
 235 143 l 1
 58 143 l 1
 58 198 l 1
 259 198 l 1
 339 366 l 1
 58 366 l 1
 58 422 l 1
 363 422 l 1
 425 552 l 1
 469 532 l 1
EndSplineSet
EndChar
StartChar: lessequal
Encoding: 8804 8804 336
Width: 659
VWidth: 1533
Flags: W
HStem: 0 49<44 615>
Fore
123 377 m 1
 123 370 l 1
 595 163 l 1
 595 101 l 1
 63 343 l 1
 63 405 l 1
 596 644 l 1
 596 584 l 1
 123 377 l 1
44 0 m 1
 44 49 l 1
 615 49 l 1
 615 0 l 1
 44 0 l 1
EndSplineSet
EndChar
StartChar: greaterequal
Encoding: 8805 8805 337
Width: 659
VWidth: 1533
Flags: W
HStem: 0 49<44 615>
Fore
64 101 m 1
 64 163 l 1
 537 370 l 1
 537 377 l 1
 63 584 l 1
 63 644 l 1
 596 405 l 1
 596 343 l 1
 64 101 l 1
44 0 m 1
 44 49 l 1
 615 49 l 1
 615 0 l 1
 44 0 l 1
EndSplineSet
EndChar
StartChar: lozenge
Encoding: 9674 9674 338
Width: 668
VWidth: 1533
Flags: W
Fore
373 -81 m 1
 302 -81 l 1
 55 333 l 1
 304 751 l 1
 373 751 l 1
 618 333 l 1
 373 -81 l 1
342 698 m 1
 333 698 l 1
 120 337 l 1
 331 -26 l 1
 343 -26 l 1
 553 337 l 1
 342 698 l 1
EndSplineSet
EndChar
StartChar: dottedcircle
Encoding: 9676 9676 339
Width: 625
VWidth: 1533
Flags: W
HStem: 35 57<298.35 338.752> 57 55<186.534 240.463 385.531 436.469> 110 57<103.534 158.41 465.59 519.469> 195 56<48.5339 102.463 520.534 575.41> 293 57<27.1747 82.8253 542.101 596.873> 389 57<48.7976 102.337 520.729 575.202> 475 55<103.659 158.271 463.736 519.345> 530 56<186.534 240.463 383.537 436.469> 549 57<298.957 338.825>
VStem: 26 58<294.092 348.967> 48 55<195.422 250.533 389.596 445.58> 103 56<110.537 166.41 475.477 529.407> 186 55<57.4668 111.58 530.422 585.533> 282 58<36.3898 90.7805 564.864 604.774> 385 52<57.5312 111.41 530.422 585.533> 465 55<110.956 165.952 475.59 529.268> 520 56<195.534 250.41 389.596 445.469> 541 57<308.864 349.082>
Fore
520 500 m 0x1e1f
 520 483 511 475 494 475 c 0
 473 475 463 483 463 500 c 0
 463 520 473 530 494 530 c 0
 511 530 520 520 520 500 c 0x1e1f
437 557 m 0
 437 539 428 530 411 530 c 0
 392 530 383 539 383 557 c 0
 383 576 392 586 411 586 c 0x1e1f
 428 586 437 576 437 557 c 0
576 420 m 0x1e1f
 576 399 566 389 547 389 c 0
 529 389 520 399 520 420 c 0
 520 437 530 446 549 446 c 0
 567 446 576 437 576 420 c 0x1e1f
241 557 m 0
 241 539 232 530 213 530 c 256
 195 530 186 539 186 557 c 0
 186 576 195 586 213 586 c 256x1e1f
 232 586 241 576 241 557 c 0
576 222 m 0x1e1f
 576 204 566 195 547 195 c 0
 529 195 520 204 520 222 c 0
 520 241 529 251 547 251 c 0
 566 251 576 241 576 222 c 0x1e1f
159 500 m 0
 159 483 149 475 130 475 c 0
 112 475 103 483 103 500 c 0
 103 520 112 530 130 530 c 0
 149 530 159 520 159 500 c 0
520 138 m 0
 520 119 511 110 494 110 c 0
 475 110 465 119 465 138 c 0
 465 157 475 167 494 167 c 0x3e1f
 511 167 520 157 520 138 c 0
437 83 m 0
 437 66 428 57 411 57 c 256
 394 57 385 66 385 83 c 0
 385 102 394 112 411 112 c 256x5e1f
 428 112 437 102 437 83 c 0
103 420 m 0x1e3f
 103 399 94 389 77 389 c 0
 58 389 48 399 48 420 c 0
 48 437 57 446 75 446 c 256
 94 446 103 437 103 420 c 0x1e3f
103 222 m 0
 103 204 94 195 75 195 c 256
 57 195 48 204 48 222 c 0
 48 241 57 251 75 251 c 256
 94 251 103 241 103 222 c 0
241 86 m 0
 241 67 232 57 213 57 c 256
 195 57 186 66 186 83 c 0
 186 102 195 112 213 112 c 256x5e1f
 232 112 241 103 241 86 c 0
159 138 m 0
 159 119 149 110 130 110 c 0
 112 110 103 119 103 138 c 0
 103 157 112 167 130 167 c 0x3e1f
 149 167 159 157 159 138 c 0
311 606 m 256x1e9f
 326 606 340 594 340 576 c 0
 340 565 328 549 311 549 c 256
 299 549 282 561 282 576 c 0
 282 595 299 606 311 606 c 256x1e9f
311 92 m 256x9e1f
 325 92 340 80 340 63 c 0
 340 52 327 35 311 35 c 256
 296 35 282 52 282 63 c 0
 282 81 299 92 311 92 c 256x9e1f
570 350 m 0
 585 350 598 337 598 320 c 0
 598 309 587 293 570 293 c 0
 553 293 541 309 541 320 c 0x1e1f40
 541 338 554 350 570 350 c 0
55 350 m 256
 70 350 84 338 84 320 c 0
 84 309 71 293 55 293 c 256
 39 293 26 309 26 320 c 0x1e5f
 26 338 40 350 55 350 c 256
EndSplineSet
EndChar
StartChar: uni0E10.alt1
Encoding: 63232 63232 340
Width: 640
VWidth: 1533
Flags: W
HStem: 0 21G<441.783 530> 113 39<137.21 250.849> 327 38<137.522 251.2> 399 38<110 484> 500 47<373.526 477.005> 569 52<169.082 307.665>
VStem: 15 95<437 498.789> 69 38<182.618 295.541> 457 73<69 248.25> 484 80<185.81 399> 497 90<566.672 613>
Fore
484 399 m 1xfc40
 15 399 l 1
 15 508 85 621 215 621 c 0
 322 621 357 547 429 547 c 0
 466 547 497 580 497 613 c 1
 587 613 l 1xfe20
 578 551 523 500 458 500 c 0
 370 500 323 569 244 569 c 0
 170 569 110 516 110 437 c 1
 564 437 l 1
 564 415 l 2xfe40
 564 284 530 136 530 16 c 2
 530 0 l 1
 454 0 l 1
 319 221 l 1
 309 161 260 113 195 113 c 0
 119 113 69 171 69 239 c 256
 69 313 124 365 195 365 c 0
 248 365 293 341 330 279 c 2
 457 69 l 1
 457 87 l 2xfd80
 457 219 484 281 484 399 c 1xfc40
195 152 m 256
 245 152 282 194 282 239 c 256
 282 284 245 327 195 327 c 256
 144 327 107 285 107 239 c 0xfd
 107 193 145 152 195 152 c 256
EndSplineSet
EndChar
StartChar: uni0E48.alt2
Encoding: 63242 63242 350
Width: 0
VWidth: 1533
Flags: W
HStem: 690 221<-169 -92 -169 -92 -169 -169>
VStem: -169 77<690 911>
Fore
-169 690 m 1
 -169 911 l 1
 -92 911 l 1
 -92 690 l 1
 -169 690 l 1
EndSplineSet
Substitution2: "Single Substitution lookup 20 subtable" uni0E48.alt3
Substitution2: "Single Substitution lookup 21 subtable" uni0E48
Substitution2: "Single Substitution lookup 22 subtable" uni0E48.alt1
Substitution2: "Single Substitution lookup 20 subtable" uni0E48.alt3
Substitution2: "Single Substitution lookup 21 subtable" uni0E48
Substitution2: "Single Substitution lookup 22 subtable" uni0E48.alt1
EndChar
StartChar: uni0E49.alt2
Encoding: 63243 63243 351
Width: 0
VWidth: 1533
Flags: W
HStem: 733 21G<-266 -235> 785 29<-374.14 -299.138> 923 31<-374.494 -290.306>
VStem: -423 37<826.333 911.55> -278 42<795.114 911.009> -106 92<859.475 926>
Fore
-330 954 m 0
 -271 954 -236 906 -236 856 c 0
 -236 812 -254 761 -278 733 c 1
 -192 772 -135 836 -106 926 c 1
 -14 926 l 1
 -38 797 -226 698 -353 690 c 1
 -301 747 -288 781 -282 799 c 1
 -291 795 -311 785 -331 785 c 0
 -371 785 -423 810 -423 868 c 256
 -423 921 -376 954 -330 954 c 0
-331 814 m 256
 -304 814 -278 837 -278 868 c 256
 -278 895 -302 923 -331 923 c 0
 -364 923 -386 897 -386 868 c 0
 -386 837 -359 814 -331 814 c 256
EndSplineSet
Substitution2: "Single Substitution lookup 20 subtable" uni0E49.alt3
Substitution2: "Single Substitution lookup 21 subtable" uni0E49
Substitution2: "Single Substitution lookup 22 subtable" uni0E49.alt1
Substitution2: "Single Substitution lookup 20 subtable" uni0E49.alt3
Substitution2: "Single Substitution lookup 21 subtable" uni0E49
Substitution2: "Single Substitution lookup 22 subtable" uni0E49.alt1
EndChar
StartChar: uni0E4A.alt2
Encoding: 63244 63244 352
Width: 0
VWidth: 1533
Flags: W
HStem: 681 33<-507.967 -422.432> 716 21G<-192 -171.5> 823 29<-508.031 -421.075> 900 34<-501.596 -407.655 -348.114 -265.1>
VStem: -592 72<732.57 839.776 823 874.977> -409 30<727.434 810.543> -245 64<769.567 861.891> -129 61<747.695 858.516 858.516 894.557>
Fore
-198 716 m 1
 -145 727 -129 779 -129 832 c 0
 -129 843 -130 854 -130 886 c 0
 -130 905 -124 919 -113 929 c 1
 -44 929 l 1
 -65 910 -68 891 -68 852 c 2
 -68 824 l 2
 -68 759 -72 690 -261 690 c 1
 -271 701 l 1
 -252 730 -245 765 -245 814 c 0
 -245 841 -254 900 -313 900 c 0
 -335 900 -349 895 -368 869 c 1
 -386 869 l 1
 -399 890 -421 900 -445 900 c 0
 -486 900 -527 871 -527 823 c 1
 -513 842 -491 852 -463 852 c 0
 -412 852 -379 813 -379 765 c 256
 -379 713 -424 681 -471 681 c 0
 -555 681 -592 746 -592 811 c 0
 -592 891 -520 934 -454 934 c 256
 -431 934 -413 934 -377 903 c 1
 -354 924 -328 934 -299 934 c 0
 -223 934 -181 888 -181 814 c 0
 -181 788 -186 756 -198 716 c 1
-465 714 m 0
 -434 714 -409 742 -409 770 c 256
 -409 797 -435 823 -465 823 c 256
 -492 823 -520 799 -520 770 c 0
 -520 737 -495 714 -465 714 c 0
EndSplineSet
Substitution2: "Single Substitution lookup 20 subtable" uni0E4A.alt3
Substitution2: "Single Substitution lookup 21 subtable" uni0E4A
Substitution2: "Single Substitution lookup 22 subtable" uni0E4A.alt1
Substitution2: "Single Substitution lookup 20 subtable" uni0E4A.alt3
Substitution2: "Single Substitution lookup 21 subtable" uni0E4A
Substitution2: "Single Substitution lookup 22 subtable" uni0E4A.alt1
EndChar
StartChar: uni0E4B.alt2
Encoding: 63245 63245 353
Width: 0
VWidth: 1533
Flags: W
HStem: 797 37<-405 -287 -210 -92>
VStem: -287 77<690 797 834 941>
Fore
-210 797 m 1
 -210 690 l 1
 -287 690 l 1
 -287 797 l 1
 -405 797 l 1
 -405 834 l 1
 -287 834 l 1
 -287 941 l 1
 -210 941 l 1
 -210 834 l 1
 -92 834 l 1
 -92 797 l 1
 -210 797 l 1
EndSplineSet
Substitution2: "Single Substitution lookup 20 subtable" uni0E4B.alt3
Substitution2: "Single Substitution lookup 21 subtable" uni0E4B
Substitution2: "Single Substitution lookup 22 subtable" uni0E4B.alt1
Substitution2: "Single Substitution lookup 20 subtable" uni0E4B.alt3
Substitution2: "Single Substitution lookup 21 subtable" uni0E4B
Substitution2: "Single Substitution lookup 22 subtable" uni0E4B.alt1
EndChar
StartChar: uni0E4C.alt2
Encoding: 63246 63246 354
Width: 0
VWidth: 1533
Flags: W
HStem: 690 34<-266.018 -169.877>
VStem: -333 48<742.473 838.413> -150 43<743.625 838.259>
Fore
-219 690 m 256
 -275 690 -333 727 -333 794 c 0
 -333 950 -101 897 -101 1012 c 1
 -15 994 l 1
 -15 922 -135 911 -182 888 c 1
 -140 878 -107 838 -107 791 c 0
 -107 717 -174 690 -219 690 c 256
-219 724 m 0
 -184 724 -150 753 -150 791 c 256
 -150 830 -184 857 -219 857 c 0
 -256 857 -285 824 -285 791 c 256
 -285 754 -252 724 -219 724 c 0
EndSplineSet
Substitution2: "Single Substitution lookup 20 subtable" uni0E4C.alt3
Substitution2: "Single Substitution lookup 21 subtable" uni0E4C
Substitution2: "Single Substitution lookup 22 subtable" uni0E4C.alt1
Substitution2: "Single Substitution lookup 20 subtable" uni0E4C.alt3
Substitution2: "Single Substitution lookup 21 subtable" uni0E4C
Substitution2: "Single Substitution lookup 22 subtable" uni0E4C.alt1
EndChar
StartChar: uni0E0D.alt1
Encoding: 63247 63247 355
Width: 1068
VWidth: 1533
Flags: W
HStem: -8 42<193.592 307.045> 0 38<626 900> 207 38<193.573 305.279> 593 31<247.964 453.564>
VStem: 92 77<62.295 177.287 218 331.818> 336 38<62.8092 176.886> 549 77<38 504.914> 900 77<38 613>
Fore
350 624 m 0xbf
 493 624 626 567 626 411 c 2
 626 38 l 1
 900 38 l 1
 900 613 l 1
 977 613 l 1
 977 0 l 1
 549 0 l 1x7f
 549 422 l 2
 549 529 461 593 350 593 c 0
 215 593 144 501 138 417 c 1
 238 417 l 1
 238 386 l 1
 172 355 169 297 169 236 c 2
 169 218 l 1
 178 226 201 245 250 245 c 0
 322 245 374 188 374 120 c 0
 374 40 313 -8 242 -8 c 0
 142 -8 92 60 92 149 c 2
 92 247 l 2
 92 305 115 370 193 391 c 1
 58 391 l 1
 71 547 200 624 350 624 c 0xbf
250 34 m 256xbf
 296 34 336 69 336 120 c 256
 336 169 295 207 250 207 c 256
 200 207 163 165 163 120 c 256
 163 69 204 34 250 34 c 256xbf
EndSplineSet
EndChar
StartChar: uni0E0E.alt1
Encoding: 63259 63259 367
Width: 846
VWidth: 1533
Flags: W
HStem: -250 40<202.579 369.967> -89 37<563.807 627.199> -83 39<234.667 421.875> -8 42<82.2568 198.037> 207 38<83.9602 196.995> 593 31<377.147 579.92>
VStem: 15 39<63.2273 176.869> 115 69<-189.73 -108.259> 227 67<62.6828 170.73 165.31 176.15 218 342.737> 678 76<-193 503.617>
Fore
478 624 m 0xdfc0
 601 624 754 581 754 411 c 2
 754 -245 l 1
 678 -245 l 1
 626 -207 574 -172 514 -143 c 1
 427 -199 384 -250 278 -250 c 0
 217 -250 115 -227 115 -152 c 0
 115 -87 187 -44 293 -44 c 0xbfc0
 381 -44 473 -79 514 -97 c 1
 553 -74 594 -59 636 -52 c 1
 636 -89 l 1
 587 -101 571 -108 557 -117 c 1
 579 -128 600 -140 620 -152 c 2
 678 -193 l 1
 678 422 l 2
 678 525 596 593 478 593 c 0
 343 593 273 500 267 417 c 1
 366 417 l 1
 366 386 l 1
 316 367 294 328 294 203 c 0
 294 178 295 163 295 153 c 0
 295 9 214 -8 147 -8 c 0
 76 -8 15 41 15 120 c 0
 15 188 67 245 140 245 c 0
 189 245 212 226 221 218 c 1
 221 316 225 368 328 391 c 1
 187 391 l 1
 204 595 400 624 478 624 c 0xdfc0
140 34 m 0
 186 34 227 69 227 120 c 256
 227 170 185 207 140 207 c 256
 89 207 54 165 54 120 c 0
 54 70 93 34 140 34 c 0
184 -152 m 0
 184 -198 245 -210 282 -210 c 0
 319 -210 352 -200 382 -182 c 2
 471 -123 l 1
 405 -94 345 -83 291 -83 c 0
 260 -83 184 -94 184 -152 c 0
EndSplineSet
EndChar
StartChar: uni0E0F.alt1
Encoding: 63260 63260 368
Width: 846
VWidth: 1533
Flags: W
HStem: -259 40<147.207 257.326> -92 38<138.264 270.096> -8 42<82.2568 198.037> 207 38<83.9602 196.995> 593 31<377.147 580.687>
VStem: 15 39<63.2273 176.869> 61 54<-203.103 -115.787> 227 67<62.6828 170.73 165.31 176.15 218 342.737> 678 76<-193 503.617>
Fore
478 624 m 0
 591 624 754 581 754 411 c 2
 754 -245 l 1
 678 -245 l 1
 573 -147 l 1
 466 -253 l 1
 438 -215 401 -180 363 -152 c 1
 286 -229 256 -259 184 -259 c 0
 126 -259 61 -230 61 -161 c 256
 61 -101 118 -54 203 -54 c 0
 264 -54 319 -78 363 -104 c 1
 397 -81 427 -68 457 -61 c 1
 457 -98 l 1
 434 -105 413 -115 396 -126 c 1
 436 -159 458 -182 471 -198 c 1
 573 -97 l 1
 678 -193 l 1
 678 422 l 2
 678 525 596 593 478 593 c 0
 343 593 273 500 267 417 c 1
 366 417 l 1
 366 386 l 1
 316 367 294 328 294 203 c 0
 294 178 295 163 295 153 c 0
 295 9 214 -8 147 -8 c 0
 76 -8 15 41 15 120 c 0
 15 188 67 245 140 245 c 0
 189 245 212 226 221 218 c 1
 221 316 225 368 328 391 c 1
 187 391 l 1
 204 595 400 624 478 624 c 0
140 34 m 0
 186 34 227 69 227 120 c 256
 227 170 185 207 140 207 c 256
 89 207 54 165 54 120 c 0
 54 70 93 34 140 34 c 0
115 -161 m 0
 115 -208 165 -219 190 -219 c 0
 256 -219 292 -165 330 -132 c 1
 279 -98 234 -92 210 -92 c 0
 177 -92 115 -106 115 -161 c 0
EndSplineSet
EndChar
StartChar: uni0E2C.alt1
Encoding: 63261 63261 369
Width: 876
VWidth: 1533
Flags: MW
HStem: 0 21G<221 316.573 683.427 777> 337 86<500 500> 371 38<83.7823 183.986> 432 37<544.295 671.677> 583 41<83.7455 195.709> 595 31<563.828 662.719>
VStem: 15 39<439.59 553.212> 221 76<74 399 438.842 552.744> 455 68<489.972 574.161> 701 76<74 438>
Fore
774 511 m 1xb7c0
 791 519 809 528 852 564 c 1
 885 524 l 1
 867 508 835 483 777 461 c 1
 777 0 l 1
 695 0 l 1
 500 337 l 1
 305 0 l 1
 221 0 l 1
 221 399 l 1
 198 378 168 371 140 371 c 0xbbc0
 66 371 15 429 15 497 c 0
 15 574 75 624 147 624 c 0xbbc0
 247 624 297 557 297 468 c 2
 297 74 l 1
 500 423 l 1xd7c0
 701 74 l 1
 701 438 l 1
 679 434 654 432 629 432 c 0
 486 432 455 489 455 527 c 0
 455 601 552 626 609 626 c 0
 648 626 683 618 714 600 c 0
 746 584 766 554 774 511 c 1xb7c0
523 530 m 0
 523 493 565 469 613 469 c 0
 642 469 671 473 701 481 c 1
 701 507 l 2
 701 577 647 595 609 595 c 0xb7c0
 583 595 523 582 523 530 c 0
140 409 m 256xbbc0
 186 409 227 447 227 497 c 256
 227 547 185 583 140 583 c 256xbbc0
 87 583 54 539 54 497 c 256
 54 447 93 409 140 409 c 256xbbc0
EndSplineSet
EndChar
StartChar: uni0E4F.liga
Encoding: 63616 63616 370
Width: 766
VWidth: 1533
Flags: W
HStem: -8 46<282.399 485.747> 115 54<309.852 457.08> 445 53<310.291 456.017> 575 46<280.411 486.722>
VStem: 69 46<202.434 408.832> 192 53<235.014 380.755> 259 78<882.277 977.98> 429 78<879.18 977.98> 521 54<232.488 380.54> 652 46<204.296 408.234>
Fore
299 1006 m 256
 330 1006 337 976 337 954 c 0
 337 902 334 850 313 695 c 1
 287 695 l 1
 268 819 259 885 259 957 c 0
 259 978 267 1006 299 1006 c 256
383 621 m 256
 562 621 698 476 698 307 c 256
 698 118 543 -8 383 -8 c 256
 214 -8 69 128 69 307 c 256
 69 478 207 621 383 621 c 256
383 38 m 256
 527 38 652 155 652 307 c 256
 652 453 531 575 383 575 c 256
 237 575 115 454 115 307 c 256
 115 155 240 38 383 38 c 256
383 169 m 256
 459 169 521 230 521 307 c 256
 521 382 461 445 383 445 c 256
 307 445 245 382 245 307 c 256
 245 229 308 169 383 169 c 256
383 498 m 0
 497 498 575 400 575 307 c 0
 575 202 487 115 383 115 c 0
 282 115 192 198 192 307 c 0
 192 401 268 498 383 498 c 0
469 1006 m 256
 500 1006 507 976 507 954 c 0
 507 902 504 850 483 695 c 1
 457 695 l 1
 431 878 429 891 429 957 c 0
 429 978 437 1006 469 1006 c 256
EndSplineSet
LCarets2: 1 0 
Ligature2: "'liga' Standard Ligatures in Latin lookup 19 subtable" uni0E4F quotedbl
EndChar
StartChar: uni0E24.liga
Encoding: 63617 63617 371
Width: 1087
VWidth: 1533
Flags: W
HStem: -8 42<193.592 307.045> 207 38<193.573 305.279> 593 31<247.964 453.786 681.809 860.886>
VStem: 92 77<62.295 177.287 218 332.875> 336 38<62.8092 176.886> 549 77<-184 451.476> 934 76<-184 516.844>
Fore
768 624 m 0
 884 624 1010 582 1010 412 c 2
 1010 -184 l 1
 934 -184 l 1
 934 422 l 2
 934 500 901 593 768 593 c 0
 700 593 636 556 607 498 c 1
 620 473 626 446 626 411 c 2
 626 -184 l 1
 549 -184 l 1
 549 422 l 2
 549 529 461 593 350 593 c 0
 215 593 144 501 138 417 c 1
 238 417 l 1
 238 386 l 1
 172 353 169 297 169 238 c 2
 169 218 l 1
 178 226 201 245 250 245 c 0
 322 245 374 188 374 120 c 0
 374 40 313 -8 242 -8 c 0
 142 -8 92 60 92 149 c 2
 92 247 l 2
 92 305 115 370 193 391 c 1
 58 391 l 1
 71 547 200 624 350 624 c 0
 497 624 554 570 576 546 c 1
 627 601 711 624 768 624 c 0
250 34 m 256
 296 34 336 69 336 120 c 256
 336 169 295 207 250 207 c 256
 200 207 163 165 163 120 c 256
 163 69 204 34 250 34 c 256
EndSplineSet
LCarets2: 1 0 
Ligature2: "'liga' Standard Ligatures in Latin lookup 19 subtable" uni0E24 uni0E45
Ligature2: "'liga' Standard Ligatures in Latin lookup 19 subtable" uni0E24 uni0E32
EndChar
StartChar: uni0E26.liga
Encoding: 63618 63618 372
Width: 1221
VWidth: 1533
Flags: W
HStem: -8 42<82.2568 197.576> 207 38<83.9602 196.995> 593 31<377.147 581.252 795.835 982.164>
VStem: 15 39<63.2273 176.869> 227 66<63.7859 172.406 168.661 176.15 218 340.29> 678 76<-184 503.617> 1069 76<-184 511.545>
Fore
888 624 m 0
 1001 624 1145 582 1145 412 c 2
 1145 -184 l 1
 1069 -184 l 1
 1069 422 l 2
 1069 527 999 593 888 593 c 0
 821 593 756 560 728 514 c 1
 744 487 754 451 754 411 c 2
 754 -184 l 1
 678 -184 l 1
 678 422 l 2
 678 525 596 593 478 593 c 0
 343 593 273 500 267 417 c 1
 366 417 l 1
 366 386 l 1
 309 364 293 318 293 182 c 0
 293 171 294 164 294 160 c 0
 294 17 228 -8 147 -8 c 0
 76 -8 15 41 15 120 c 0
 15 188 67 245 140 245 c 0
 189 245 212 226 221 218 c 1
 221 316 225 368 328 391 c 1
 187 391 l 1
 204 595 400 624 478 624 c 0
 618 624 673 576 696 553 c 1
 749 606 836 624 888 624 c 0
140 34 m 0
 186 34 227 69 227 120 c 256
 227 170 185 207 140 207 c 256
 89 207 54 165 54 120 c 0
 54 70 93 34 140 34 c 0
EndSplineSet
LCarets2: 1 0 
Ligature2: "'liga' Standard Ligatures in Latin lookup 19 subtable" uni0E26 uni0E45
Ligature2: "'liga' Standard Ligatures in Latin lookup 19 subtable" uni0E26 uni0E32
EndChar
StartChar: fi
Encoding: 64257 64257 373
Width: 573
VWidth: 1533
Flags: W
HStem: 0 21G<115 187 368 438> 468 39<43 115 187 368> 682 60<221.02 317.771>
VStem: 115 72<0 468 507 619.588> 368 70<0 468>
Fore
287 682 m 0
 231 682 187 648 187 590 c 2
 187 507 l 1
 438 509 l 1
 438 0 l 1
 368 0 l 1
 368 468 l 1
 187 468 l 1
 187 0 l 1
 115 0 l 1
 115 468 l 1
 26 468 l 1
 43 507 l 1
 115 507 l 1
 115 594 155 742 314 742 c 0
 325 742 335 741 345 741 c 1
 345 668 l 1
 324 677 304 682 287 682 c 0
EndSplineSet
LCarets2: 1 0 
Ligature2: "'liga' Standard Ligatures in Latin lookup 19 subtable" f i
EndChar
StartChar: fl
Encoding: 64258 64258 374
Width: 573
VWidth: 1533
Flags: W
HStem: 0 21G<115 187 363 434> 468 39<43 115 187 273> 682 60<230.172 363>
VStem: 115 72<0 468 507 619.18> 363 71<0 681>
Fore
115 507 m 1
 115 626 179 742 324 742 c 2
 434 742 l 1
 434 0 l 1
 363 0 l 1
 363 681 l 1
 353 682 l 1
 287 682 l 2
 231 682 187 648 187 590 c 2
 187 507 l 1
 290 507 l 1
 273 468 l 1
 187 468 l 1
 187 0 l 1
 115 0 l 1
 115 468 l 1
 26 468 l 1
 43 507 l 1
 115 507 l 1
EndSplineSet
LCarets2: 1 0 
Ligature2: "'liga' Standard Ligatures in Latin lookup 19 subtable" f l
EndChar
StartChar: franc
Encoding: 8355 8355 467
Width: 562
VWidth: 1533
Flags: W
HStem: 0 21G<94 186> 147 49<-20 94 186 365> 359 50<186 491> 695 50<186 515>
VStem: 94 92<0 147 196 359 409 695>
Fore
-20 147 m 1
 -20 196 l 1
 94 196 l 1
 94 745 l 1
 515 745 l 1
 515 695 l 1
 186 695 l 1
 186 409 l 1
 491 409 l 1
 491 359 l 1
 186 359 l 1
 186 196 l 1
 365 196 l 1
 365 147 l 1
 186 147 l 1
 186 0 l 1
 94 0 l 1
 94 147 l 1
 -20 147 l 1
EndSplineSet
EndChar
StartChar: dong
Encoding: 8363 8363 468
Width: 659
VWidth: 1533
Flags: W
HStem: -159 55<52 596> -17 38<233.48 378.805> 515 37<236.545 405.633> 624 40<452 526 596 699>
VStem: 28 85<158.683 374.525> 526 70<-2 97 159.666 372.617 423 624 664 742>
Fore
304 552 m 0
 362 552 474 537 526 423 c 1
 526 624 l 1
 452 624 l 1
 452 664 l 1
 526 664 l 1
 526 742 l 1
 596 742 l 1
 596 664 l 1
 699 664 l 1
 699 624 l 1
 596 624 l 1
 596 -2 l 1
 526 -2 l 1
 526 97 l 1
 462 -12 341 -17 304 -17 c 0
 154 -17 28 103 28 267 c 0
 28 431 138 552 304 552 c 0
52 -159 m 1
 52 -104 l 1
 596 -104 l 1
 596 -159 l 1
 52 -159 l 1
322 21 m 0
 456 21 526 155 526 265 c 0
 526 389 445 515 322 515 c 0
 183 515 113 382 113 265 c 256
 113 150 184 21 322 21 c 0
EndSplineSet
EndChar
StartChar: Dcroat
Encoding: 272 272 475
Width: 878
VWidth: 1533
Flags: W
HStem: 0 37<186 539.546> 366 37<17 103 186 392> 678 38<186 542.076>
VStem: 103 83<37 366 403 678> 741 101<237.71 498.316>
Fore
842 378 m 0
 842 76 616 0 363 0 c 2
 103 0 l 1
 103 366 l 1
 17 366 l 1
 17 403 l 1
 103 403 l 1
 103 716 l 1
 357 716 l 2
 593 716 842 648 842 378 c 0
741 380 m 0
 741 599 593 678 379 678 c 2
 186 678 l 1
 186 403 l 1
 392 403 l 1
 392 366 l 1
 186 366 l 1
 186 37 l 1
 379 37 l 2
 669 37 741 179 741 380 c 0
EndSplineSet
EndChar
StartChar: dcroat
Encoding: 273 273 476
Width: 659
VWidth: 1533
Flags: W
HStem: -17 38<231.477 378.502> 515 37<236.339 404.854> 626 38<452 526 596 699>
VStem: 28 85<158.397 374.955> 526 70<0 97 159.666 372.617 425 626 664 742>
Fore
304 552 m 0
 359 552 473 539 526 425 c 1
 526 626 l 1
 452 626 l 1
 452 664 l 1
 526 664 l 1
 526 742 l 1
 596 742 l 1
 596 664 l 1
 699 664 l 1
 699 626 l 1
 596 626 l 1
 596 0 l 1
 526 0 l 1
 526 97 l 1
 461 -12 340 -17 304 -17 c 0
 142 -17 28 116 28 268 c 0
 28 432 138 552 304 552 c 0
322 21 m 0
 456 21 526 155 526 265 c 0
 526 389 445 515 322 515 c 0
 182 515 113 382 113 265 c 256
 113 150 184 21 322 21 c 0
EndSplineSet
EndChar
StartChar: Idotaccent
Encoding: 304 304 481
Width: 248
VWidth: 1533
Flags: W
HStem: 0 21G<94 155> 828 113<81.2129 171.778>
VStem: 69 115<840.358 928.391> 94 61<0 745>
Fore
94 0 m 1xd0
 94 745 l 1
 155 745 l 1
 155 0 l 1
 94 0 l 1xd0
124 828 m 0
 98 828 69 850 69 883 c 0
 69 919 97 941 124 941 c 0
 159 941 184 917 184 883 c 0xe0
 184 852 159 828 124 828 c 0
EndSplineSet
EndChar
StartChar: dotlessi
Encoding: 305 305 482
Width: 248
VWidth: 1533
Flags: W
HStem: 0 532<94 153 94 153 94 94>
VStem: 94 59<0 532>
Fore
94 0 m 1
 94 532 l 1
 153 532 l 1
 153 0 l 1
 94 0 l 1
EndSplineSet
EndChar
StartChar: Ohorn
Encoding: 416 416 487
Width: 898
VWidth: 1533
Flags: W
HStem: -26 29<329.014 562.307> 710 29<333.515 563.145>
VStem: 29 101<233.758 475.287> 762 103<237.832 477.739> 831 83<673.136 768>
Back
739 603 m 1
 810 618 831 679 831 768 c 1
 914 768 l 1
 914 616 793 585 739 578 c 1
 739 603 l 1
448 739 m 256
 671 739 865 576 865 357 c 0
 865 126 659 -26 446 -26 c 256
 231 -26 29 127 29 356 c 256
 29 589 246 739 448 739 c 256
446 3 m 0
 636 3 762 152 762 357 c 0
 762 562 636 710 448 710 c 0
 238 710 130 539 130 356 c 256
 130 154 254 3 446 3 c 0
EndSplineSet
Fore
446 3 m 0xf0
 636 3 762 152 762 357 c 0
 762 562 636 710 448 710 c 0
 238 710 130 539 130 356 c 0
 130 154 254 3 446 3 c 0xf0
782 587 m 1
 834 524 865 445 865 357 c 0xf0
 865 126 659 -26 446 -26 c 0
 231 -26 29 127 29 356 c 0
 29 589 246 739 448 739 c 0
 570 739 684 690 761 610 c 1
 814 632 831 689 831 768 c 1
 914 768 l 1xe8
 914 649 840 604 782 587 c 1
EndSplineSet
EndChar
StartChar: ohorn
Encoding: 417 417 488
Width: 679
VWidth: 1533
Flags: W
HStem: -15 38<241.318 445.951> 511 38<236.149 444.846>
VStem: 38 88<157.879 375.429> 558 86<157.067 345.664> 645 83<463.478 557>
Back
563 406 m 1
 607 416 645 446 645 557 c 1
 728 557 l 1
 728 448 664 391 563 379 c 1
 563 406 l 1
342 549 m 0
 516 549 644 436 644 267 c 256
 644 98 511 -15 340 -15 c 256
 170 -15 38 98 38 267 c 256
 38 436 173 549 342 549 c 0
343 23 m 0
 453 23 558 80 558 267 c 0
 558 410 491 511 342 511 c 0
 169 511 126 383 126 267 c 256
 126 124 193 23 343 23 c 0
EndSplineSet
Fore
343 23 m 0
 453 23 558 80 558 267 c 0
 558 410 491 511 342 511 c 0
 169 511 126 383 126 267 c 0
 126 124 193 23 343 23 c 0
617 391 m 1
 635 355 644 313 644 267 c 0
 644 98 511 -15 340 -15 c 0
 170 -15 38 98 38 267 c 0
 38 436 173 549 342 549 c 0
 455 549 548 501 600 422 c 1
 626 441 645 479 645 557 c 1
 728 557 l 1
 728 469 686 415 617 391 c 1
EndSplineSet
EndChar
StartChar: Uhorn
Encoding: 431 431 489
Width: 939
VWidth: 1533
Flags: W
HStem: -25 34<317.727 553.405> 696 20G<74 156 718 799 865 946>
VStem: 74 82<165.334 716> 718 81<165.516 274 274 531 559 716> 865 81<621.943 716>
Back
773 550 m 1
 848 568 865 633 865 716 c 1
 946 716 l 1
 946 564 824 533 773 526 c 1
 773 550 l 1
435 9 m 256
 597 9 718 115 718 274 c 2
 718 716 l 1
 799 716 l 1
 799 291 l 2
 799 73 639 -25 435 -25 c 256
 232 -25 74 74 74 291 c 2
 74 716 l 1
 156 716 l 1
 156 274 l 2
 156 114 275 9 435 9 c 256
EndSplineSet
Fore
435 9 m 0
 597 9 718 115 718 274 c 2
 718 716 l 1
 799 716 l 1
 799 559 l 1
 852 585 865 644 865 716 c 1
 946 716 l 1
 946 586 857 544 799 531 c 1
 799 291 l 2
 799 73 639 -25 435 -25 c 0
 232 -25 74 74 74 291 c 2
 74 716 l 1
 156 716 l 1
 156 274 l 2
 156 114 275 9 435 9 c 0
EndSplineSet
EndChar
StartChar: uhorn
Encoding: 432 432 490
Width: 670
VWidth: 1533
Flags: W
HStem: -17 38<210.556 391.491> 514 20G<61 135 495 566 612 695>
VStem: 61 74<88.9522 534> 495 71<0 100 134.644 363 398 534> 612 83<440.346 534>
Back
695 534 m 1
 695 481.333 680.333 440 651 410 c 128
 621.667 380 581 362 529 356 c 1
 529 383 l 1
 547.667 387 562.333 394 573 404 c 128
 583.667 414 591.833 425.833 597.5 439.5 c 128
 603.167 453.167 607 468.167 609 484.5 c 128
 611 500.833 612 517.333 612 534 c 1
 695 534 l 1
495 0 m 1
 495 100 l 1
 477.667 67.3333 451.167 39.6667 415.5 17 c 128
 379.833 -5.66667 343.667 -17 307 -17 c 0
 277 -17 247.167 -13.6667 217.5 -7 c 128
 187.833 -0.333333 161.5 10.5 138.5 25.5 c 128
 115.5 40.5 96.8333 60 82.5 84 c 128
 68.1667 108 61 137.667 61 173 c 2
 61 534 l 1
 135 534 l 1
 135 163 l 2
 135 139 139.833 118.167 149.5 100.5 c 128
 159.167 82.8333 172 68 188 56 c 128
 204 44 222.167 35.1667 242.5 29.5 c 128
 262.833 23.8333 284.333 21 307 21 c 0
 335.667 21 361.667 27 385 39 c 128
 408.333 51 428.167 67 444.5 87 c 128
 460.833 107 473.333 129.667 482 155 c 128
 490.667 180.333 495 206.333 495 233 c 2
 495 534 l 1
 566 534 l 1
 566 0 l 1
 495 0 l 1
EndSplineSet
Fore
307 21 m 0
 420 21 495 122 495 233 c 2
 495 534 l 1
 566 534 l 1
 566 398 l 1
 593 417 612 455 612 534 c 1
 695 534 l 1
 695 439 646 383 566 363 c 1
 566 0 l 1
 495 0 l 1
 495 100 l 1
 461 35 382 -17 307 -17 c 0
 205 -17 61 21 61 173 c 2
 61 534 l 1
 135 534 l 1
 135 163 l 2
 135 77 205 21 307 21 c 0
EndSplineSet
EndChar
